G04*
G04 #@! TF.GenerationSoftware,Altium Limited,Altium Designer,22.5.1 (42)*
G04*
G04 Layer_Color=32768*
%FSLAX44Y44*%
%MOMM*%
G71*
G04*
G04 #@! TF.SameCoordinates,9AAE9822-52E9-4CA5-9BA1-C6C8D3A4EDC0*
G04*
G04*
G04 #@! TF.FilePolarity,Positive*
G04*
G01*
G75*
%ADD54C,0.0500*%
D54*
X405080Y650840D02*
G03*
X405080Y650840I-82500J0D01*
G01*
X406350Y320640D02*
G03*
X406350Y320640I-82500J0D01*
G01*
X196130Y59690D02*
G03*
X196130Y59690I-82500J0D01*
G01*
X665430Y260350D02*
G03*
X665430Y260350I-82500J0D01*
G01*
X50060Y191400D02*
X204960Y191510D01*
X50060Y545800D02*
X204960D01*
X50060Y193300D02*
Y545800D01*
X204760Y191510D02*
Y545800D01*
X769620Y254260D02*
X924520Y254370D01*
X769620Y-100030D02*
X924520D01*
Y252470D01*
X769820Y-100030D02*
Y254260D01*
X658910Y714800D02*
X885410D01*
Y656800D02*
Y714800D01*
X658910Y656800D02*
X885410D01*
X658910D02*
Y714800D01*
X421850Y585690D02*
X479850D01*
X421850Y359190D02*
Y585690D01*
Y359190D02*
X479850D01*
Y585690D01*
X457420Y148800D02*
Y206800D01*
X230920D02*
X457420D01*
X230920Y148800D02*
Y206800D01*
Y148800D02*
X457420D01*
M02*
