G04*
G04 #@! TF.GenerationSoftware,Altium Limited,Altium Designer,22.5.1 (42)*
G04*
G04 Layer_Physical_Order=1*
G04 Layer_Color=255*
%FSLAX44Y44*%
%MOMM*%
G71*
G04*
G04 #@! TF.SameCoordinates,9AAE9822-52E9-4CA5-9BA1-C6C8D3A4EDC0*
G04*
G04*
G04 #@! TF.FilePolarity,Positive*
G04*
G01*
G75*
%ADD17R,1.4000X0.9500*%
%ADD34C,1.5240*%
%ADD35C,0.8000*%
%ADD36C,1.5000*%
%ADD37C,1.4000*%
%ADD38C,1.1000*%
%ADD39R,2.5000X2.5000*%
%ADD40C,2.2500*%
%ADD41R,2.2500X2.2500*%
%ADD42C,1.3500*%
%ADD43R,1.3500X1.3500*%
%ADD44C,1.4000*%
%ADD45R,1.4000X1.4000*%
%ADD46R,1.4000X1.4000*%
%ADD47C,1.5240*%
%ADD48O,2.5400X1.2700*%
%ADD49C,0.6000*%
%ADD50R,2.2500X2.2500*%
%ADD51O,1.5240X3.0480*%
%ADD52R,1.5000X1.5000*%
%ADD53C,1.5000*%
G36*
X11417Y743760D02*
X14348Y743756D01*
X14603Y743736D01*
X14604Y743756D01*
X40452Y743720D01*
X40937Y742547D01*
X30812Y732421D01*
X28860Y730043D01*
X27409Y727329D01*
X26516Y724385D01*
X26214Y721323D01*
Y295910D01*
X26516Y292848D01*
X27409Y289904D01*
X28860Y287190D01*
X30812Y284811D01*
X88638Y226985D01*
X65031Y203379D01*
X63080Y201000D01*
X61629Y198286D01*
X60736Y195342D01*
X60434Y192280D01*
Y76690D01*
X59130D01*
Y42690D01*
X70933D01*
X195842Y-82219D01*
X198220Y-84170D01*
X200934Y-85621D01*
X203878Y-86514D01*
X206940Y-86816D01*
X549516D01*
X550755Y-87478D01*
X554076Y-88485D01*
X557530Y-88825D01*
X560984Y-88485D01*
X564305Y-87478D01*
X567366Y-85841D01*
X570050Y-83639D01*
X572251Y-80956D01*
X573887Y-77895D01*
X574895Y-74574D01*
X575235Y-71120D01*
X574895Y-67666D01*
X573887Y-64345D01*
X572251Y-61283D01*
X570050Y-58601D01*
X567366Y-56399D01*
X564305Y-54763D01*
X560984Y-53755D01*
X557530Y-53415D01*
X554076Y-53755D01*
X550755Y-54763D01*
X549516Y-55424D01*
X213441D01*
X93130Y64887D01*
Y76690D01*
X91826D01*
Y185779D01*
X121933Y215887D01*
X121934Y215887D01*
X156847Y250800D01*
X184980D01*
Y259124D01*
X240530D01*
X243592Y259426D01*
X246537Y260319D01*
X249250Y261770D01*
X251628Y263722D01*
X329047Y341140D01*
X340850D01*
Y375140D01*
X306850D01*
Y363337D01*
X234029Y290516D01*
X184980D01*
Y295800D01*
X139980D01*
Y278327D01*
X110835Y249182D01*
X57606Y302411D01*
Y714821D01*
X60039Y717254D01*
X79601D01*
X80017Y716052D01*
X78375Y715372D01*
X75555Y713208D01*
X69112Y706765D01*
X66948Y703945D01*
X65588Y700660D01*
X65124Y697136D01*
Y616051D01*
X65588Y612527D01*
X66948Y609243D01*
X69112Y606423D01*
X149223Y526312D01*
X150242Y525530D01*
X152043Y524148D01*
X153967Y523351D01*
X155327Y522788D01*
X158851Y522323D01*
X341585D01*
X342300Y521737D01*
X345253Y520158D01*
X348457Y519186D01*
X351790Y518858D01*
X355123Y519186D01*
X358327Y520158D01*
X361280Y521737D01*
X361996Y522323D01*
X414850D01*
X418374Y522788D01*
X421658Y524148D01*
X424478Y526312D01*
X448857Y550690D01*
X472100D01*
Y593190D01*
X429600D01*
Y569947D01*
X409210Y549557D01*
X361996D01*
X361280Y550143D01*
X358327Y551722D01*
X355123Y552694D01*
X351790Y553022D01*
X348457Y552694D01*
X345253Y551722D01*
X342300Y550143D01*
X341585Y549557D01*
X164492D01*
X92357Y621692D01*
Y689964D01*
X147220D01*
X160880Y676303D01*
Y674740D01*
X162443D01*
X163321Y673861D01*
X166141Y671697D01*
X169426Y670337D01*
X172950Y669873D01*
X176474Y670337D01*
X179007Y671386D01*
X182130D01*
X182880Y671485D01*
Y662990D01*
X167880D01*
Y659740D01*
X160880D01*
Y647490D01*
Y640740D01*
X167880D01*
Y637490D01*
X182880D01*
X189034D01*
X189400Y637189D01*
X192113Y635739D01*
X195058Y634846D01*
X198120Y634544D01*
X201182Y634846D01*
X204127Y635739D01*
X204880Y636141D01*
Y636142D01*
X206840Y637190D01*
X209219Y639142D01*
X242721Y672644D01*
X305580D01*
Y671340D01*
X339580D01*
Y683143D01*
X367421Y710984D01*
X518597D01*
Y563654D01*
X404979Y450036D01*
X358489D01*
X358327Y450122D01*
X355123Y451094D01*
X351790Y451422D01*
X348457Y451094D01*
X345253Y450122D01*
X342300Y448543D01*
X339711Y446419D01*
X337587Y443830D01*
X336008Y440877D01*
X335036Y437673D01*
X334708Y434340D01*
X335036Y431007D01*
X336008Y427803D01*
X337587Y424850D01*
X339711Y422261D01*
X342300Y420137D01*
X345253Y418558D01*
X348457Y417586D01*
X351790Y417258D01*
X355123Y417586D01*
X358327Y418558D01*
X358489Y418644D01*
X411480D01*
X414542Y418946D01*
X417486Y419839D01*
X420200Y421290D01*
X422579Y423242D01*
X545391Y546054D01*
X547343Y548433D01*
X548793Y551146D01*
X549687Y554090D01*
X549988Y557152D01*
Y710984D01*
X740620D01*
Y645481D01*
X735330D01*
X732631Y645216D01*
X702550D01*
Y646270D01*
X669050D01*
Y645216D01*
X643927D01*
X640865Y644914D01*
X637921Y644021D01*
X635207Y642570D01*
X632829Y640619D01*
X623901Y631691D01*
X621950Y629313D01*
X620499Y626599D01*
X619606Y623655D01*
X619304Y620593D01*
Y546100D01*
X619606Y543038D01*
X620499Y540094D01*
X621950Y537380D01*
X623901Y535001D01*
X640412Y518492D01*
X642790Y516540D01*
X645504Y515089D01*
X648448Y514196D01*
X651510Y513894D01*
X671350D01*
X672003Y512805D01*
X671520Y511901D01*
X670562Y508744D01*
X670239Y505460D01*
X670562Y502176D01*
X671520Y499019D01*
X673075Y496109D01*
X675169Y493559D01*
X677719Y491465D01*
X680629Y489910D01*
X683786Y488952D01*
X687070Y488629D01*
X690354Y488952D01*
X691205Y489211D01*
X692150Y489117D01*
X714235D01*
X728005Y475348D01*
X728107Y474315D01*
X729042Y471233D01*
X729607Y470174D01*
X728954Y469085D01*
X703820D01*
Y472210D01*
X678846D01*
X613745Y537311D01*
Y633629D01*
X650140Y670024D01*
X651410Y669739D01*
Y664550D01*
X693910D01*
Y707050D01*
X651410D01*
Y701375D01*
X643890D01*
X640852Y701076D01*
X637930Y700189D01*
X635237Y698750D01*
X632877Y696813D01*
X587157Y651093D01*
X585220Y648733D01*
X583781Y646040D01*
X582894Y643119D01*
X582595Y640080D01*
Y530860D01*
X582894Y527822D01*
X583781Y524900D01*
X585220Y522207D01*
X587157Y519847D01*
X664507Y442497D01*
X666867Y440560D01*
X669560Y439121D01*
X670320Y438890D01*
Y438710D01*
X670913D01*
X672482Y438234D01*
X675520Y437935D01*
X730788D01*
X731331Y436787D01*
X730560Y435848D01*
X729042Y433007D01*
X728107Y429925D01*
X727791Y426720D01*
X728107Y423515D01*
X729042Y420433D01*
X730560Y417593D01*
X732603Y415103D01*
X735092Y413060D01*
X737933Y411541D01*
X741015Y410606D01*
X744220Y410291D01*
X756920D01*
X760125Y410606D01*
X763207Y411541D01*
X764386Y412171D01*
X765475Y411519D01*
Y335085D01*
X765774Y332046D01*
X766661Y329124D01*
X768100Y326432D01*
X770037Y324072D01*
X773835Y320273D01*
X773963Y319853D01*
X775541Y316900D01*
X777666Y314311D01*
X780254Y312187D01*
X783208Y310608D01*
X786412Y309636D01*
X789745Y309308D01*
X793077Y309636D01*
X796282Y310608D01*
X799235Y312187D01*
X801824Y314311D01*
X803948Y316900D01*
X805527Y319853D01*
X806499Y323057D01*
X806827Y326390D01*
X806499Y329723D01*
X805527Y332927D01*
X803948Y335880D01*
X801824Y338469D01*
X799235Y340593D01*
X796625Y341988D01*
Y570333D01*
X796326Y573372D01*
X795439Y576293D01*
X794000Y578986D01*
X792063Y581346D01*
X783276Y590133D01*
X780916Y592070D01*
X778223Y593509D01*
X775302Y594396D01*
X772263Y594695D01*
X761900D01*
X760125Y595233D01*
X756920Y595549D01*
X744220D01*
X741015Y595233D01*
X737933Y594299D01*
X735092Y592780D01*
X732603Y590737D01*
X730560Y588247D01*
X729042Y585407D01*
X728107Y582325D01*
X727791Y579120D01*
X728107Y575915D01*
X729042Y572833D01*
X730509Y570087D01*
X729050Y568890D01*
X726382Y565639D01*
X724400Y561930D01*
X724184Y561220D01*
X750570D01*
Y546220D01*
X723834D01*
X723141Y545286D01*
X658011D01*
X650696Y552601D01*
Y613824D01*
X669050D01*
Y612770D01*
X702550D01*
Y613824D01*
X735330D01*
X738029Y614090D01*
X744689D01*
X747388Y613824D01*
X840340D01*
X843402Y614126D01*
X846346Y615019D01*
X849060Y616470D01*
X851439Y618422D01*
X882758Y649742D01*
X884710Y652120D01*
X886161Y654834D01*
X887054Y657778D01*
X887356Y660840D01*
Y671429D01*
X889414Y673937D01*
X891387Y677629D01*
X892602Y681634D01*
X893013Y685800D01*
X892602Y689966D01*
X891387Y693971D01*
X889414Y697663D01*
X886759Y700899D01*
X883523Y703554D01*
X879831Y705527D01*
X875826Y706742D01*
X871660Y707153D01*
X867494Y706742D01*
X863489Y705527D01*
X859797Y703554D01*
X856561Y700899D01*
X853906Y697663D01*
X851933Y693971D01*
X850717Y689966D01*
X850307Y685800D01*
X850717Y681634D01*
X851933Y677629D01*
X853906Y673937D01*
X855964Y671429D01*
Y667341D01*
X833839Y645216D01*
X772011D01*
Y717753D01*
X771710Y720815D01*
X770817Y723759D01*
X769366Y726473D01*
X767414Y728851D01*
X758487Y737778D01*
X756108Y739730D01*
X753395Y741181D01*
X752416Y741478D01*
X752605Y742747D01*
X938840Y742493D01*
X942070Y741718D01*
X945956Y740108D01*
X949543Y737910D01*
X952742Y735178D01*
X955474Y731979D01*
X957672Y728392D01*
X959281Y724506D01*
X960264Y720415D01*
X960594Y716222D01*
X960451Y714408D01*
X960451Y714408D01*
X960475Y713771D01*
X960549Y713204D01*
X960549Y713204D01*
X960555Y713163D01*
X960793Y711351D01*
X960930Y711021D01*
X960929Y-115888D01*
X960162Y-119084D01*
X958552Y-122970D01*
X956354Y-126557D01*
X953622Y-129756D01*
X950424Y-132488D01*
X946837Y-134686D01*
X942950Y-136296D01*
X938860Y-137278D01*
X934666Y-137608D01*
X932853Y-137465D01*
X932853Y-137465D01*
X932215Y-137489D01*
X931648Y-137564D01*
X931648Y-137564D01*
X931607Y-137569D01*
X929795Y-137808D01*
X929343Y-137995D01*
X9826Y-140507D01*
X6620Y-139738D01*
X2734Y-138128D01*
X-853Y-135930D01*
X-4052Y-133198D01*
X-6784Y-129999D01*
X-8982Y-126412D01*
X-10591Y-122526D01*
X-11574Y-118435D01*
X-11904Y-114242D01*
X-11761Y-112429D01*
X-11761Y-112428D01*
X-11785Y-111791D01*
X-11859Y-111224D01*
X-11859Y-111223D01*
X-11865Y-111183D01*
X-11993Y-110205D01*
X-13509Y722014D01*
X-12707Y725355D01*
X-11097Y729241D01*
X-8899Y732828D01*
X-6167Y736027D01*
X-2968Y738759D01*
X619Y740957D01*
X4505Y742567D01*
X8595Y743549D01*
X11366Y743767D01*
X11417Y743760D01*
D02*
G37*
%LPC*%
G36*
X330080Y634055D02*
Y620840D01*
X343295D01*
X343004Y621800D01*
X340961Y625622D01*
X338212Y628972D01*
X334862Y631721D01*
X331040Y633764D01*
X330080Y634055D01*
D02*
G37*
G36*
X315080D02*
X314120Y633764D01*
X310298Y631721D01*
X306948Y628972D01*
X304199Y625622D01*
X302156Y621800D01*
X301865Y620840D01*
X315080D01*
Y634055D01*
D02*
G37*
G36*
X204880Y625740D02*
X190380D01*
Y613490D01*
X204880D01*
Y625740D01*
D02*
G37*
G36*
X175380D02*
X160880D01*
Y613490D01*
X175380D01*
Y625740D01*
D02*
G37*
G36*
X343295Y605840D02*
X330080D01*
Y592625D01*
X331040Y592916D01*
X334862Y594959D01*
X338212Y597708D01*
X340961Y601058D01*
X343004Y604880D01*
X343295Y605840D01*
D02*
G37*
G36*
X315080D02*
X301865D01*
X302156Y604880D01*
X304199Y601058D01*
X306948Y597708D01*
X310298Y594959D01*
X314120Y592916D01*
X315080Y592625D01*
Y605840D01*
D02*
G37*
G36*
X693300Y599974D02*
Y587020D01*
X706254D01*
X705992Y587884D01*
X703972Y591662D01*
X701254Y594974D01*
X697942Y597692D01*
X694164Y599712D01*
X693300Y599974D01*
D02*
G37*
G36*
X678300D02*
X677436Y599712D01*
X673658Y597692D01*
X670346Y594974D01*
X667628Y591662D01*
X665608Y587884D01*
X665346Y587020D01*
X678300D01*
Y599974D01*
D02*
G37*
G36*
X706254Y572020D02*
X693300D01*
Y559066D01*
X694164Y559328D01*
X697942Y561348D01*
X701254Y564066D01*
X703972Y567378D01*
X705992Y571156D01*
X706254Y572020D01*
D02*
G37*
G36*
X678300D02*
X665346D01*
X665608Y571156D01*
X667628Y567378D01*
X670346Y564066D01*
X673658Y561348D01*
X677436Y559328D01*
X678300Y559066D01*
Y572020D01*
D02*
G37*
G36*
X190060Y490800D02*
X170060D01*
Y470800D01*
X190060D01*
Y490800D01*
D02*
G37*
G36*
X155060D02*
X135060D01*
Y470800D01*
X155060D01*
Y490800D01*
D02*
G37*
G36*
X190060Y455800D02*
X170060D01*
Y435800D01*
X190060D01*
Y455800D01*
D02*
G37*
G36*
X155060D02*
X135060D01*
Y435800D01*
X155060D01*
Y455800D01*
D02*
G37*
G36*
X603130Y440463D02*
Y418980D01*
X618359D01*
Y419100D01*
X617923Y423534D01*
X616629Y427798D01*
X614529Y431728D01*
X611702Y435172D01*
X608258Y437999D01*
X604328Y440099D01*
X603130Y440463D01*
D02*
G37*
G36*
X618359Y403980D02*
X603130D01*
Y382497D01*
X604328Y382861D01*
X608258Y384961D01*
X611702Y387788D01*
X614529Y391232D01*
X616629Y395162D01*
X617923Y399426D01*
X618359Y403860D01*
Y403980D01*
D02*
G37*
G36*
X458350Y398135D02*
Y380440D01*
X476045D01*
X475892Y381077D01*
X474311Y384894D01*
X472152Y388417D01*
X469469Y391559D01*
X466327Y394242D01*
X462804Y396401D01*
X458987Y397982D01*
X458350Y398135D01*
D02*
G37*
G36*
X443350D02*
X442713Y397982D01*
X438896Y396401D01*
X435373Y394242D01*
X432231Y391559D01*
X429548Y388417D01*
X427389Y384894D01*
X425808Y381077D01*
X425655Y380440D01*
X443350D01*
Y398135D01*
D02*
G37*
G36*
X870860Y379370D02*
X855860D01*
Y364370D01*
X870860D01*
Y379370D01*
D02*
G37*
G36*
X840860D02*
X825860D01*
Y364370D01*
X840860D01*
Y379370D01*
D02*
G37*
G36*
X476045Y365440D02*
X458350D01*
Y347745D01*
X458987Y347898D01*
X462804Y349479D01*
X466327Y351638D01*
X469469Y354321D01*
X472152Y357463D01*
X474311Y360986D01*
X475892Y364803D01*
X476045Y365440D01*
D02*
G37*
G36*
X443350D02*
X425655D01*
X425808Y364803D01*
X427389Y360986D01*
X429548Y357463D01*
X432231Y354321D01*
X435373Y351638D01*
X438896Y349479D01*
X442713Y347898D01*
X443350Y347745D01*
Y365440D01*
D02*
G37*
G36*
X833120Y595549D02*
X820420D01*
X817215Y595233D01*
X814133Y594299D01*
X811292Y592780D01*
X808803Y590737D01*
X806760Y588247D01*
X805241Y585407D01*
X804306Y582325D01*
X803991Y579120D01*
X804306Y575915D01*
X805241Y572833D01*
X806760Y569992D01*
X808803Y567503D01*
X809349Y567055D01*
Y565785D01*
X808803Y565337D01*
X806760Y562848D01*
X805241Y560007D01*
X804306Y556925D01*
X803991Y553720D01*
X804306Y550515D01*
X805241Y547433D01*
X806760Y544593D01*
X808803Y542103D01*
X809349Y541655D01*
Y540385D01*
X808803Y539937D01*
X806760Y537448D01*
X805241Y534607D01*
X804306Y531525D01*
X803991Y528320D01*
X804306Y525115D01*
X805241Y522033D01*
X806709Y519287D01*
X805250Y518090D01*
X802582Y514839D01*
X800600Y511130D01*
X800384Y510420D01*
X826770D01*
Y495420D01*
X800384D01*
X800600Y494710D01*
X802582Y491001D01*
X805250Y487750D01*
X806709Y486553D01*
X805241Y483807D01*
X804306Y480725D01*
X803991Y477520D01*
X804306Y474315D01*
X805241Y471233D01*
X806760Y468392D01*
X808803Y465903D01*
X809349Y465455D01*
Y464185D01*
X808803Y463737D01*
X806760Y461247D01*
X805241Y458407D01*
X804306Y455325D01*
X803991Y452120D01*
X804306Y448915D01*
X805241Y445833D01*
X806760Y442993D01*
X808803Y440503D01*
X809349Y440055D01*
Y438785D01*
X808803Y438337D01*
X806760Y435848D01*
X805241Y433007D01*
X804306Y429925D01*
X803991Y426720D01*
X804306Y423515D01*
X805241Y420433D01*
X806760Y417593D01*
X808803Y415103D01*
X811292Y413060D01*
X814133Y411541D01*
X817215Y410606D01*
X820420Y410291D01*
X833120D01*
X836325Y410606D01*
X839407Y411541D01*
X842247Y413060D01*
X844737Y415103D01*
X846780Y417593D01*
X848298Y420433D01*
X849233Y423515D01*
X849549Y426720D01*
X849233Y429925D01*
X848298Y433007D01*
X847151Y435154D01*
X847912Y436424D01*
X875030D01*
X878092Y436726D01*
X881036Y437619D01*
X883750Y439070D01*
X886128Y441021D01*
X914069Y468961D01*
X916020Y471340D01*
X917471Y474054D01*
X917914Y475515D01*
X919184Y475326D01*
Y347166D01*
X870860D01*
Y349370D01*
X848360D01*
X825860D01*
Y334370D01*
X830115D01*
X830968Y333429D01*
X830775Y331470D01*
X831113Y328039D01*
X832114Y324741D01*
X833739Y321701D01*
X835381Y319700D01*
X835805Y318770D01*
X835381Y317840D01*
X833739Y315840D01*
X832114Y312799D01*
X831113Y309501D01*
X830775Y306070D01*
X831113Y302639D01*
X832114Y299341D01*
X833739Y296301D01*
X835926Y293636D01*
X838590Y291449D01*
X841631Y289824D01*
X844929Y288823D01*
X848360Y288485D01*
X851791Y288823D01*
X855089Y289824D01*
X856119Y290374D01*
X918210D01*
X921272Y290676D01*
X924216Y291569D01*
X926930Y293020D01*
X929308Y294972D01*
X945978Y311641D01*
X947930Y314020D01*
X949380Y316733D01*
X950274Y319678D01*
X950575Y322740D01*
Y331470D01*
Y531970D01*
X950274Y535032D01*
X949380Y537977D01*
X947930Y540690D01*
X945978Y543069D01*
X930579Y558469D01*
X928200Y560420D01*
X925486Y561871D01*
X922542Y562764D01*
X919480Y563066D01*
X917446D01*
X916903Y564214D01*
X916965Y564289D01*
X918520Y567199D01*
X919478Y570356D01*
X919801Y573640D01*
X919478Y576924D01*
X918520Y580081D01*
X916965Y582991D01*
X914871Y585541D01*
X912321Y587635D01*
X909411Y589190D01*
X906254Y590148D01*
X902970Y590471D01*
X899687Y590148D01*
X897010Y589336D01*
X859390D01*
X856328Y589034D01*
X853384Y588141D01*
X850670Y586690D01*
X849450Y585689D01*
X847934Y586088D01*
X846780Y588247D01*
X844737Y590737D01*
X842247Y592780D01*
X839407Y594299D01*
X836325Y595233D01*
X833120Y595549D01*
D02*
G37*
G36*
X185060Y390800D02*
X140060D01*
Y345800D01*
X185060D01*
Y390800D01*
D02*
G37*
G36*
X591820Y503255D02*
X553617D01*
X550578Y502956D01*
X547657Y502069D01*
X544964Y500630D01*
X542604Y498693D01*
X533817Y489906D01*
X531880Y487546D01*
X530441Y484854D01*
X529554Y481932D01*
X529255Y478893D01*
Y427340D01*
X528473Y425876D01*
X527465Y422554D01*
X527125Y419100D01*
Y403860D01*
X527465Y400406D01*
X528473Y397085D01*
X530109Y394024D01*
X532310Y391340D01*
X534994Y389139D01*
X538055Y387503D01*
X541376Y386495D01*
X544830Y386155D01*
X548284Y386495D01*
X551605Y387503D01*
X553445Y388486D01*
X554534Y387833D01*
Y365911D01*
X335611Y146988D01*
X333660Y144610D01*
X332209Y141896D01*
X331316Y138952D01*
X331014Y135890D01*
Y115312D01*
X329841Y114826D01*
X265931Y178736D01*
X265613Y181966D01*
X264397Y185971D01*
X262424Y189663D01*
X259769Y192899D01*
X256533Y195554D01*
X252841Y197527D01*
X248836Y198743D01*
X244670Y199153D01*
X240504Y198743D01*
X236499Y197527D01*
X232807Y195554D01*
X229571Y192899D01*
X226916Y189663D01*
X224943Y185971D01*
X223727Y181966D01*
X223317Y177800D01*
X223727Y173634D01*
X224943Y169629D01*
X226916Y165937D01*
X229571Y162701D01*
X232807Y160046D01*
X236499Y158073D01*
X240504Y156858D01*
X243734Y156539D01*
X330092Y70181D01*
X332470Y68230D01*
X335184Y66779D01*
X338128Y65886D01*
X341190Y65584D01*
X404736D01*
X405975Y64922D01*
X409296Y63915D01*
X412750Y63575D01*
X416204Y63915D01*
X419525Y64922D01*
X422587Y66559D01*
X425270Y68760D01*
X427471Y71444D01*
X429108Y74504D01*
X430115Y77826D01*
X430455Y81280D01*
X430115Y84734D01*
X429108Y88055D01*
X427471Y91117D01*
X425270Y93799D01*
X422587Y96001D01*
X419525Y97638D01*
X416204Y98645D01*
X412750Y98985D01*
X409296Y98645D01*
X405975Y97638D01*
X404736Y96976D01*
X362406D01*
Y129389D01*
X421247Y188230D01*
X422420Y187744D01*
Y156550D01*
X464920D01*
Y164255D01*
X608989D01*
X789520Y-16276D01*
Y-40030D01*
X834520D01*
Y4970D01*
X812326D01*
X626453Y190843D01*
X562430Y254866D01*
Y277350D01*
X528430D01*
Y243350D01*
X531324D01*
X532480Y241187D01*
X534417Y238827D01*
X576665Y196578D01*
X576179Y195405D01*
X464920D01*
Y199050D01*
X433726D01*
X433240Y200223D01*
X581329Y348312D01*
X583280Y350690D01*
X584731Y353404D01*
X585624Y356348D01*
X585926Y359410D01*
Y382169D01*
X587196Y382781D01*
X588130Y382497D01*
Y411480D01*
Y440463D01*
X586932Y440099D01*
X583002Y437999D01*
X579558Y435172D01*
X578942Y434422D01*
X577006Y435457D01*
X573684Y436465D01*
X570230Y436805D01*
X566776Y436465D01*
X563455Y435457D01*
X561494Y434410D01*
X560405Y435063D01*
Y472105D01*
X585369D01*
X698165Y359309D01*
Y333680D01*
X697763Y332927D01*
X696791Y329723D01*
X696462Y326390D01*
X696791Y323057D01*
X697763Y319853D01*
X699341Y316900D01*
X701466Y314311D01*
X704054Y312187D01*
X707008Y310608D01*
X710212Y309636D01*
X713545Y309308D01*
X716877Y309636D01*
X720082Y310608D01*
X723035Y312187D01*
X725624Y314311D01*
X727748Y316900D01*
X729327Y319853D01*
X730299Y323057D01*
X730627Y326390D01*
X730299Y329723D01*
X729327Y332927D01*
X729315Y332949D01*
Y365760D01*
X729016Y368798D01*
X728129Y371720D01*
X726690Y374413D01*
X724753Y376773D01*
X602833Y498693D01*
X600473Y500630D01*
X597780Y502069D01*
X594859Y502956D01*
X591820Y503255D01*
D02*
G37*
G36*
X331350Y303855D02*
Y290640D01*
X344565D01*
X344274Y291600D01*
X342231Y295422D01*
X339482Y298772D01*
X336132Y301521D01*
X332310Y303564D01*
X331350Y303855D01*
D02*
G37*
G36*
X316350D02*
X315390Y303564D01*
X311568Y301521D01*
X308218Y298772D01*
X305469Y295422D01*
X303426Y291600D01*
X303135Y290640D01*
X316350D01*
Y303855D01*
D02*
G37*
G36*
X627930Y281065D02*
Y267850D01*
X641145D01*
X640854Y268810D01*
X638811Y272632D01*
X636062Y275982D01*
X632712Y278731D01*
X628890Y280774D01*
X627930Y281065D01*
D02*
G37*
G36*
X612930D02*
X611970Y280774D01*
X608148Y278731D01*
X604798Y275982D01*
X602049Y272632D01*
X600006Y268810D01*
X599715Y267850D01*
X612930D01*
Y281065D01*
D02*
G37*
G36*
X344565Y275640D02*
X331350D01*
Y262425D01*
X332310Y262716D01*
X336132Y264759D01*
X339482Y267508D01*
X342231Y270858D01*
X344274Y274680D01*
X344565Y275640D01*
D02*
G37*
G36*
X316350D02*
X303135D01*
X303426Y274680D01*
X305469Y270858D01*
X308218Y267508D01*
X311568Y264759D01*
X315390Y262716D01*
X316350Y262425D01*
Y275640D01*
D02*
G37*
G36*
X641145Y252850D02*
X627930D01*
Y239635D01*
X628890Y239926D01*
X632712Y241969D01*
X636062Y244718D01*
X638811Y248068D01*
X640854Y251890D01*
X641145Y252850D01*
D02*
G37*
G36*
X612930D02*
X599715D01*
X600006Y251890D01*
X602049Y248068D01*
X604798Y244718D01*
X608148Y241969D01*
X611970Y239926D01*
X612930Y239635D01*
Y252850D01*
D02*
G37*
G36*
X839600Y199970D02*
X819600D01*
Y179970D01*
X839600D01*
Y199970D01*
D02*
G37*
G36*
X804600D02*
X784600D01*
Y179970D01*
X804600D01*
Y199970D01*
D02*
G37*
G36*
X839600Y164970D02*
X819600D01*
Y144970D01*
X839600D01*
Y164970D01*
D02*
G37*
G36*
X804600D02*
X784600D01*
Y144970D01*
X804600D01*
Y164970D01*
D02*
G37*
G36*
X158630Y80405D02*
Y67190D01*
X171845D01*
X171554Y68150D01*
X169511Y71972D01*
X166762Y75322D01*
X163412Y78071D01*
X159590Y80114D01*
X158630Y80405D01*
D02*
G37*
G36*
X143630D02*
X142670Y80114D01*
X138848Y78071D01*
X135498Y75322D01*
X132749Y71972D01*
X130706Y68150D01*
X130415Y67190D01*
X143630D01*
Y80405D01*
D02*
G37*
G36*
X834520Y99970D02*
X789520D01*
Y54970D01*
X834520D01*
Y99970D01*
D02*
G37*
G36*
X171845Y52190D02*
X158630D01*
Y38975D01*
X159590Y39266D01*
X163412Y41309D01*
X166762Y44058D01*
X169511Y47408D01*
X171554Y51230D01*
X171845Y52190D01*
D02*
G37*
G36*
X143630D02*
X130415D01*
X130706Y51230D01*
X132749Y47408D01*
X135498Y44058D01*
X138848Y41309D01*
X142670Y39266D01*
X143630Y38975D01*
Y52190D01*
D02*
G37*
%LPD*%
D17*
X182880Y633240D02*
D03*
Y701240D02*
D03*
Y684240D02*
D03*
Y667240D02*
D03*
Y650240D02*
D03*
D34*
X198120D02*
X236220Y688340D01*
X322580D01*
X902970Y480060D02*
Y522002D01*
X875030Y452120D02*
X902970Y480060D01*
X863803Y528320D02*
X872650Y519473D01*
X853440Y477520D02*
X872650Y496730D01*
Y519473D01*
X919480Y547370D02*
X934880Y531970D01*
Y331470D02*
Y531970D01*
X863803Y528320D02*
X882853Y547370D01*
X919480D01*
X826770Y528320D02*
X863803D01*
X859390Y573640D02*
X902970D01*
X839470Y553720D02*
X859390Y573640D01*
X53537Y732950D02*
X105016D01*
X41910Y721323D02*
X53537Y732950D01*
X110835Y226985D02*
X158670Y274820D01*
X41910Y295910D02*
Y721323D01*
X360920Y726680D02*
X747388D01*
X643927Y629520D02*
X735330D01*
X635000Y546100D02*
Y620593D01*
X643927Y629520D01*
X635000Y546100D02*
X651510Y529590D01*
X749300D01*
X762870Y629520D02*
X840340D01*
X871660Y660840D01*
X41910Y295910D02*
X110835Y226985D01*
X848360Y331470D02*
X934880D01*
Y322740D02*
Y331470D01*
X534292Y557152D02*
Y726680D01*
X534292Y726680D01*
X322580Y688340D02*
X360920Y726680D01*
X848360Y306070D02*
X918210D01*
X934880Y322740D01*
X411480Y434340D02*
X534292Y557152D01*
X351790Y434340D02*
X411480D01*
X76130Y192280D02*
X110835Y226985D01*
X76130Y59690D02*
X206940Y-71120D01*
X557530D01*
X346710Y135890D02*
X570230Y359410D01*
X346710Y86167D02*
Y135890D01*
X341190Y81280D02*
X412750D01*
X570230Y359410D02*
Y411480D01*
X244670Y177800D02*
X341190Y81280D01*
X240530Y274820D02*
X323850Y358140D01*
X158670Y274820D02*
X240530D01*
X76130Y59690D02*
Y192280D01*
X826770Y452120D02*
X875030D01*
X826770Y553720D02*
X839470D01*
X826770Y477520D02*
X853440D01*
X762870Y629520D02*
X762870Y629520D01*
X747388Y629520D02*
X762870D01*
X735330Y629786D02*
X747388D01*
X749300Y529590D02*
X750570Y528320D01*
X756316Y632460D02*
Y717753D01*
X871660Y660840D02*
Y685800D01*
X747388Y726680D02*
X756316Y717753D01*
D35*
X182880Y650240D02*
X198120D01*
X172950Y683490D02*
X182130D01*
X182880Y684240D01*
D36*
X750570Y579120D02*
X772263D01*
X781050Y570333D01*
Y335085D02*
Y570333D01*
Y335085D02*
X789745Y326390D01*
X105136Y733070D02*
X174093D01*
X182880Y724283D01*
X105016Y732950D02*
X105136Y733070D01*
X182880Y706120D02*
Y724283D01*
X687070Y453510D02*
X751840D01*
X675520D02*
X687070D01*
X598170Y530860D02*
X675520Y453510D01*
X598170Y530860D02*
Y640080D01*
X643890Y685800D01*
X672660D01*
X591820Y487680D02*
X713740Y365760D01*
X553617Y487680D02*
X591820D01*
X713740Y325857D02*
Y365760D01*
X544830Y411480D02*
Y478893D01*
X553617Y487680D01*
X615440Y179830D02*
X812800Y-17530D01*
X545430Y249840D02*
X615440Y179830D01*
X443670Y177800D02*
X445700Y179830D01*
X615440D01*
X545430Y249840D02*
Y260350D01*
D37*
X744870Y478010D02*
Y479798D01*
X692150Y504190D02*
X720478D01*
X744870Y479798D01*
D38*
X85184Y703580D02*
X152860D01*
X78740Y616051D02*
Y697136D01*
X85184Y703580D01*
X78740Y616051D02*
X158851Y535940D01*
X152860Y703580D02*
X172950Y683490D01*
X158851Y535940D02*
X350978D01*
X351790D02*
X414850D01*
X450850Y571940D01*
D39*
X162560Y368300D02*
D03*
X162480Y273300D02*
D03*
X162560Y463300D02*
D03*
X812020Y77470D02*
D03*
X812100Y172470D02*
D03*
X812020Y-17530D02*
D03*
D40*
X871660Y685800D02*
D03*
X450850Y372940D02*
D03*
X244670Y177800D02*
D03*
D41*
X672660Y685800D02*
D03*
X443670Y177800D02*
D03*
D42*
X902970Y573640D02*
D03*
X687070Y505460D02*
D03*
X685800Y579520D02*
D03*
D43*
X902970Y523640D02*
D03*
X687070Y455460D02*
D03*
X685800Y629520D02*
D03*
D44*
X713545Y326390D02*
D03*
X789745D02*
D03*
X322580Y613340D02*
D03*
X323850Y283140D02*
D03*
X151130Y59690D02*
D03*
X620430Y260350D02*
D03*
X351790Y535940D02*
D03*
Y434340D02*
D03*
D45*
X322580Y688340D02*
D03*
X323850Y358140D02*
D03*
D46*
X76130Y59690D02*
D03*
X545430Y260350D02*
D03*
D47*
X557530Y-71120D02*
D03*
X412750Y81280D02*
D03*
D48*
X826770Y452120D02*
D03*
Y553720D02*
D03*
Y579120D02*
D03*
X750570D02*
D03*
Y553720D02*
D03*
Y528320D02*
D03*
Y477520D02*
D03*
Y454660D02*
D03*
X826770Y477520D02*
D03*
Y502920D02*
D03*
Y528320D02*
D03*
X750570Y502920D02*
D03*
Y426720D02*
D03*
X826770D02*
D03*
D49*
Y579120D02*
D03*
D50*
X450850Y571940D02*
D03*
D51*
X544830Y411480D02*
D03*
X570230D02*
D03*
X595630D02*
D03*
D52*
X848360Y356870D02*
D03*
D53*
Y331470D02*
D03*
Y306070D02*
D03*
M02*
