G04*
G04 #@! TF.GenerationSoftware,Altium Limited,Altium Designer,22.5.1 (42)*
G04*
G04 Layer_Color=65535*
%FSLAX44Y44*%
%MOMM*%
G71*
G04*
G04 #@! TF.SameCoordinates,9AAE9822-52E9-4CA5-9BA1-C6C8D3A4EDC0*
G04*
G04*
G04 #@! TF.FilePolarity,Positive*
G04*
G01*
G75*
%ADD10C,0.2000*%
%ADD11C,0.1270*%
%ADD12C,0.0000*%
%ADD13C,0.2540*%
%ADD14C,0.1524*%
%ADD15C,0.3810*%
%ADD16C,0.3048*%
G36*
X623570Y429253D02*
Y424171D01*
X604543D01*
Y429253D01*
X586740D01*
Y424171D01*
X579126D01*
Y429253D01*
X561340D01*
Y424164D01*
X553699D01*
Y429253D01*
X535940D01*
Y424178D01*
X516883D01*
Y429253D01*
X516840D01*
Y436880D01*
X623570D01*
Y429253D01*
D02*
G37*
G36*
X103471Y-59695D02*
X104690D01*
Y-60102D01*
Y-60508D01*
X105096D01*
Y-60914D01*
Y-61320D01*
Y-61726D01*
Y-62133D01*
X104690D01*
Y-62539D01*
Y-62945D01*
Y-63351D01*
X104284D01*
Y-63757D01*
X103877D01*
Y-64163D01*
Y-64570D01*
X103471D01*
Y-64976D01*
Y-65382D01*
X103065D01*
Y-65788D01*
Y-66194D01*
X102659D01*
Y-66600D01*
Y-67007D01*
X102253D01*
Y-67413D01*
X101847D01*
Y-67819D01*
Y-68225D01*
X101440D01*
Y-68631D01*
X101034D01*
Y-69038D01*
Y-69444D01*
X100628D01*
Y-69850D01*
Y-70256D01*
X100222D01*
Y-70662D01*
Y-71069D01*
X99816D01*
Y-71475D01*
Y-71881D01*
X99409D01*
Y-72287D01*
Y-72693D01*
X99003D01*
Y-73099D01*
X98597D01*
Y-73506D01*
Y-73912D01*
X98191D01*
Y-74318D01*
X97785D01*
Y-74724D01*
Y-75130D01*
X97379D01*
Y-75537D01*
Y-75943D01*
X96972D01*
Y-76349D01*
Y-76755D01*
X96566D01*
Y-77161D01*
Y-77568D01*
X96160D01*
Y-77974D01*
Y-78380D01*
X95754D01*
Y-78786D01*
X95347D01*
Y-79192D01*
Y-79598D01*
X94941D01*
Y-80005D01*
Y-80411D01*
X94535D01*
Y-80817D01*
X94129D01*
Y-81223D01*
Y-81629D01*
X93723D01*
Y-82036D01*
Y-82442D01*
X93317D01*
Y-82848D01*
Y-83254D01*
X92910D01*
Y-83660D01*
X92504D01*
Y-84066D01*
X92098D01*
Y-84473D01*
X90473D01*
Y-84066D01*
X89661D01*
Y-83660D01*
Y-83254D01*
X89255D01*
Y-82848D01*
Y-82442D01*
X88849D01*
Y-82036D01*
X88442D01*
Y-81629D01*
Y-81223D01*
X88036D01*
Y-80817D01*
Y-80411D01*
X87630D01*
Y-80005D01*
X87224D01*
Y-79598D01*
Y-79192D01*
X86818D01*
Y-78786D01*
X87224D01*
Y-78380D01*
X88036D01*
Y-78786D01*
X88442D01*
Y-78380D01*
X89661D01*
Y-78786D01*
X90067D01*
Y-79192D01*
X91286D01*
Y-79598D01*
X92504D01*
Y-79192D01*
X93317D01*
Y-78786D01*
X93723D01*
Y-78380D01*
Y-77974D01*
Y-77568D01*
X94129D01*
Y-77161D01*
Y-76755D01*
X93723D01*
Y-76349D01*
Y-75943D01*
X93317D01*
Y-75537D01*
X92504D01*
Y-75130D01*
X90473D01*
Y-75537D01*
X90067D01*
Y-75943D01*
X89661D01*
Y-76349D01*
X88849D01*
Y-75943D01*
X88442D01*
Y-76349D01*
X85599D01*
Y-75943D01*
X85193D01*
Y-75537D01*
X84787D01*
Y-75130D01*
Y-74724D01*
X84381D01*
Y-74318D01*
X83974D01*
Y-73912D01*
Y-73506D01*
X83568D01*
Y-73099D01*
X83162D01*
Y-72693D01*
Y-72287D01*
X93723D01*
Y-72693D01*
X94129D01*
Y-73099D01*
X94941D01*
Y-73506D01*
X95347D01*
Y-73099D01*
X96566D01*
Y-72693D01*
X96972D01*
Y-72287D01*
X97379D01*
Y-71881D01*
Y-71475D01*
Y-71069D01*
Y-70662D01*
Y-70256D01*
Y-69850D01*
X96972D01*
Y-69444D01*
X96160D01*
Y-69038D01*
X94535D01*
Y-69444D01*
X93723D01*
Y-69850D01*
X81537D01*
Y-69444D01*
X81131D01*
Y-69038D01*
Y-68631D01*
X80725D01*
Y-68225D01*
Y-67819D01*
X80319D01*
Y-67413D01*
X79913D01*
Y-67007D01*
Y-66600D01*
X79506D01*
Y-66194D01*
X97379D01*
Y-66600D01*
X97785D01*
Y-67007D01*
X99816D01*
Y-66600D01*
X100222D01*
Y-66194D01*
X100628D01*
Y-65788D01*
X101034D01*
Y-65382D01*
Y-64976D01*
Y-64570D01*
Y-64163D01*
Y-63757D01*
Y-63351D01*
X100222D01*
Y-62945D01*
X99409D01*
Y-62539D01*
X98191D01*
Y-62945D01*
X97379D01*
Y-63351D01*
X96972D01*
Y-63757D01*
X78288D01*
Y-63351D01*
X77881D01*
Y-62945D01*
X77475D01*
Y-62539D01*
Y-62133D01*
X77069D01*
Y-61726D01*
Y-61320D01*
Y-60914D01*
Y-60508D01*
X77475D01*
Y-60102D01*
Y-59695D01*
X79100D01*
Y-59289D01*
X103471D01*
Y-59695D01*
D02*
G37*
G36*
X106721Y-91784D02*
X107127D01*
Y-92190D01*
X106721D01*
Y-92596D01*
X101847D01*
Y-92190D01*
Y-91784D01*
X102253D01*
Y-91378D01*
X106721D01*
Y-91784D01*
D02*
G37*
G36*
X71789D02*
Y-92190D01*
Y-92596D01*
X66915D01*
Y-92190D01*
X66508D01*
Y-91784D01*
X66915D01*
Y-91378D01*
X71789D01*
Y-91784D01*
D02*
G37*
G36*
X91286D02*
X92098D01*
Y-92190D01*
X92504D01*
Y-92596D01*
Y-93003D01*
X90879D01*
Y-92596D01*
X88849D01*
Y-93003D01*
X88442D01*
Y-93409D01*
X88036D01*
Y-93815D01*
Y-94221D01*
X87630D01*
Y-94627D01*
Y-95034D01*
Y-95440D01*
Y-95846D01*
X88036D01*
Y-96252D01*
Y-96658D01*
X88442D01*
Y-97064D01*
X89255D01*
Y-97471D01*
X90473D01*
Y-97064D01*
X91692D01*
Y-96658D01*
X92504D01*
Y-97064D01*
Y-97471D01*
Y-97877D01*
X92098D01*
Y-98283D01*
X91286D01*
Y-98689D01*
X89661D01*
Y-98283D01*
X89255D01*
Y-98689D01*
X88442D01*
Y-98283D01*
X88036D01*
Y-97877D01*
X87630D01*
Y-97471D01*
X87224D01*
Y-97064D01*
X86818D01*
Y-96658D01*
X86411D01*
Y-96252D01*
Y-95846D01*
Y-95440D01*
Y-95034D01*
Y-94627D01*
Y-94221D01*
Y-93815D01*
Y-93409D01*
X86818D01*
Y-93003D01*
X87224D01*
Y-92596D01*
Y-92190D01*
X87630D01*
Y-91784D01*
X88849D01*
Y-91378D01*
X91286D01*
Y-91784D01*
D02*
G37*
G36*
X79913D02*
Y-92190D01*
Y-92596D01*
Y-93003D01*
Y-93409D01*
Y-93815D01*
Y-94221D01*
Y-94627D01*
Y-95034D01*
Y-95440D01*
Y-95846D01*
Y-96252D01*
Y-96658D01*
Y-97064D01*
Y-97471D01*
Y-97877D01*
Y-98283D01*
Y-98689D01*
X79100D01*
Y-98283D01*
X78694D01*
Y-97877D01*
Y-97471D01*
Y-97064D01*
Y-96658D01*
Y-96252D01*
Y-95846D01*
Y-95440D01*
X75444D01*
Y-95846D01*
Y-96252D01*
Y-96658D01*
Y-97064D01*
Y-97471D01*
Y-97877D01*
Y-98283D01*
X75038D01*
Y-98689D01*
X74632D01*
Y-98283D01*
X74226D01*
Y-97877D01*
Y-97471D01*
Y-97064D01*
Y-96658D01*
Y-96252D01*
Y-95846D01*
Y-95440D01*
Y-95034D01*
Y-94627D01*
Y-94221D01*
Y-93815D01*
Y-93409D01*
Y-93003D01*
Y-92596D01*
Y-92190D01*
Y-91784D01*
X74632D01*
Y-91378D01*
X75038D01*
Y-91784D01*
X75444D01*
Y-92190D01*
Y-92596D01*
Y-93003D01*
Y-93409D01*
Y-93815D01*
Y-94221D01*
X78694D01*
Y-93815D01*
Y-93409D01*
Y-93003D01*
Y-92596D01*
Y-92190D01*
Y-91784D01*
X79100D01*
Y-91378D01*
X79913D01*
Y-91784D01*
D02*
G37*
G36*
X36036Y-50736D02*
X37243D01*
Y-50937D01*
X38248D01*
Y-51138D01*
X39053D01*
Y-51339D01*
X39656D01*
Y-51540D01*
X40259D01*
Y-51741D01*
X40862D01*
Y-51943D01*
X41265D01*
Y-52144D01*
X41868D01*
Y-52345D01*
X42270D01*
Y-52546D01*
X42672D01*
Y-52747D01*
X43275D01*
Y-52948D01*
X43477D01*
Y-53149D01*
X43879D01*
Y-53350D01*
X44281D01*
Y-53551D01*
X44683D01*
Y-53752D01*
X44884D01*
Y-53953D01*
X45286D01*
Y-54155D01*
X45487D01*
Y-54356D01*
X45689D01*
Y-54557D01*
X46091D01*
Y-54758D01*
X46292D01*
Y-54959D01*
X46694D01*
Y-55160D01*
X46895D01*
Y-55361D01*
X47096D01*
Y-55562D01*
X47297D01*
Y-55763D01*
X47498D01*
Y-55964D01*
X47901D01*
Y-56165D01*
X48102D01*
Y-56367D01*
X48303D01*
Y-56568D01*
X48504D01*
Y-56769D01*
X48705D01*
Y-56970D01*
X48906D01*
Y-57171D01*
X49107D01*
Y-57372D01*
X49308D01*
Y-57573D01*
X49509D01*
Y-57774D01*
X49710D01*
Y-57975D01*
X49911D01*
Y-58176D01*
X50112D01*
Y-58377D01*
Y-58578D01*
X50314D01*
Y-58780D01*
X50515D01*
Y-58981D01*
X50716D01*
Y-59182D01*
X50917D01*
Y-59383D01*
Y-59584D01*
X51118D01*
Y-59785D01*
X51319D01*
Y-59986D01*
X51520D01*
Y-60187D01*
Y-60388D01*
X51721D01*
Y-60589D01*
X51922D01*
Y-60790D01*
Y-60992D01*
X52123D01*
Y-61193D01*
Y-61394D01*
X52324D01*
Y-61595D01*
Y-61796D01*
X52526D01*
Y-61997D01*
Y-62198D01*
X52727D01*
Y-62399D01*
X52928D01*
Y-62600D01*
Y-62801D01*
X53129D01*
Y-63002D01*
Y-63204D01*
X53330D01*
Y-63404D01*
Y-63606D01*
X53531D01*
Y-63807D01*
Y-64008D01*
Y-64209D01*
X53732D01*
Y-64410D01*
Y-64611D01*
X53933D01*
Y-64812D01*
Y-65013D01*
Y-65214D01*
X54134D01*
Y-65415D01*
Y-65616D01*
Y-65818D01*
X54335D01*
Y-66019D01*
Y-66220D01*
Y-66421D01*
X54536D01*
Y-66622D01*
Y-66823D01*
Y-67024D01*
Y-67225D01*
X54737D01*
Y-67426D01*
Y-67627D01*
Y-67828D01*
Y-68030D01*
Y-68231D01*
X54939D01*
Y-68432D01*
Y-68633D01*
Y-68834D01*
Y-69035D01*
Y-69236D01*
Y-69437D01*
X55140D01*
Y-69638D01*
Y-69839D01*
Y-70040D01*
Y-70241D01*
Y-70443D01*
Y-70644D01*
Y-70845D01*
Y-71046D01*
Y-71247D01*
Y-71448D01*
Y-71649D01*
Y-71850D01*
Y-72051D01*
Y-72252D01*
Y-72453D01*
Y-72655D01*
Y-72856D01*
Y-73057D01*
Y-73258D01*
Y-73459D01*
Y-73660D01*
Y-73861D01*
Y-74062D01*
Y-74263D01*
Y-74464D01*
Y-74665D01*
Y-74866D01*
Y-75068D01*
Y-75269D01*
Y-75470D01*
X54939D01*
Y-75671D01*
Y-75872D01*
Y-76073D01*
Y-76274D01*
Y-76475D01*
Y-76676D01*
Y-76877D01*
X54737D01*
Y-77078D01*
Y-77280D01*
Y-77481D01*
Y-77682D01*
X54536D01*
Y-77883D01*
Y-78084D01*
Y-78285D01*
Y-78486D01*
X54335D01*
Y-78687D01*
Y-78888D01*
Y-79089D01*
X54134D01*
Y-79290D01*
Y-79492D01*
Y-79693D01*
X53933D01*
Y-79894D01*
Y-80095D01*
Y-80296D01*
X53732D01*
Y-80497D01*
Y-80698D01*
Y-80899D01*
X53531D01*
Y-81100D01*
Y-81301D01*
X53330D01*
Y-81502D01*
Y-81704D01*
X53129D01*
Y-81905D01*
Y-82106D01*
X52928D01*
Y-82307D01*
Y-82508D01*
X52727D01*
Y-82709D01*
Y-82910D01*
X52526D01*
Y-83111D01*
Y-83312D01*
X52324D01*
Y-83513D01*
Y-83714D01*
X52123D01*
Y-83916D01*
X51922D01*
Y-84116D01*
Y-84318D01*
X51721D01*
Y-84519D01*
X51520D01*
Y-84720D01*
Y-84921D01*
X51319D01*
Y-85122D01*
X51118D01*
Y-85323D01*
Y-85524D01*
X50917D01*
Y-85725D01*
X50716D01*
Y-85926D01*
X50515D01*
Y-86127D01*
Y-86328D01*
X50314D01*
Y-86530D01*
X50112D01*
Y-86731D01*
X49911D01*
Y-86932D01*
X49710D01*
Y-87133D01*
X49509D01*
Y-87334D01*
Y-87535D01*
X49308D01*
Y-87736D01*
X48906D01*
Y-87937D01*
Y-88138D01*
X48504D01*
Y-88339D01*
Y-88540D01*
X48303D01*
Y-88742D01*
X47901D01*
Y-88943D01*
X47699D01*
Y-89144D01*
X47498D01*
Y-89345D01*
X47297D01*
Y-89546D01*
X47096D01*
Y-89747D01*
X46694D01*
Y-89948D01*
X46493D01*
Y-90149D01*
X46292D01*
Y-90350D01*
X45890D01*
Y-90551D01*
X45689D01*
Y-90752D01*
X45286D01*
Y-90954D01*
X45085D01*
Y-91155D01*
X44683D01*
Y-91356D01*
X44482D01*
Y-91557D01*
X44080D01*
Y-91758D01*
X43678D01*
Y-91959D01*
X43275D01*
Y-92160D01*
X42873D01*
Y-92361D01*
X42471D01*
Y-92562D01*
X42069D01*
Y-92763D01*
X41667D01*
Y-92964D01*
X41063D01*
Y-93166D01*
X40460D01*
Y-93367D01*
X40058D01*
Y-93568D01*
X39254D01*
Y-93769D01*
X38650D01*
Y-93970D01*
X37645D01*
Y-94171D01*
X36439D01*
Y-94372D01*
X34629D01*
Y-94573D01*
X31411D01*
Y-94372D01*
X29602D01*
Y-94171D01*
X28395D01*
Y-93970D01*
X27390D01*
Y-93769D01*
X26585D01*
Y-93568D01*
X26183D01*
Y-93367D01*
X25580D01*
Y-93166D01*
X24976D01*
Y-92964D01*
X24574D01*
Y-92763D01*
X23971D01*
Y-92562D01*
X23569D01*
Y-92361D01*
X23167D01*
Y-92160D01*
X22764D01*
Y-91959D01*
X22362D01*
Y-91758D01*
X21960D01*
Y-91557D01*
X21558D01*
Y-91356D01*
X21357D01*
Y-91155D01*
X20955D01*
Y-90954D01*
X20754D01*
Y-90752D01*
X20352D01*
Y-90551D01*
X20150D01*
Y-90350D01*
X19748D01*
Y-90149D01*
X19547D01*
Y-89948D01*
X19346D01*
Y-89747D01*
X19145D01*
Y-89546D01*
X18743D01*
Y-89345D01*
X18542D01*
Y-89144D01*
X18341D01*
Y-88943D01*
X18139D01*
Y-88742D01*
X17938D01*
Y-88540D01*
X17536D01*
Y-88339D01*
X17335D01*
Y-88138D01*
Y-87937D01*
X17134D01*
Y-87736D01*
X16732D01*
Y-87535D01*
X16531D01*
Y-87334D01*
Y-87133D01*
X16330D01*
Y-86932D01*
X16129D01*
Y-86731D01*
X15928D01*
Y-86530D01*
X15726D01*
Y-86328D01*
X15525D01*
Y-86127D01*
Y-85926D01*
X15324D01*
Y-85725D01*
X15123D01*
Y-85524D01*
X14922D01*
Y-85323D01*
Y-85122D01*
X14721D01*
Y-84921D01*
X14520D01*
Y-84720D01*
Y-84519D01*
X14319D01*
Y-84318D01*
X14118D01*
Y-84116D01*
Y-83916D01*
X13917D01*
Y-83714D01*
X13716D01*
Y-83513D01*
Y-83312D01*
X13514D01*
Y-83111D01*
Y-82910D01*
X13313D01*
Y-82709D01*
Y-82508D01*
X13112D01*
Y-82307D01*
Y-82106D01*
X12911D01*
Y-81905D01*
Y-81704D01*
X12710D01*
Y-81502D01*
Y-81301D01*
X12509D01*
Y-81100D01*
Y-80899D01*
Y-80698D01*
X12308D01*
Y-80497D01*
Y-80296D01*
X12107D01*
Y-80095D01*
Y-79894D01*
Y-79693D01*
X11906D01*
Y-79492D01*
Y-79290D01*
Y-79089D01*
X11705D01*
Y-78888D01*
Y-78687D01*
Y-78486D01*
X11504D01*
Y-78285D01*
Y-78084D01*
Y-77883D01*
Y-77682D01*
X11302D01*
Y-77481D01*
Y-77280D01*
Y-77078D01*
Y-76877D01*
Y-76676D01*
X11101D01*
Y-76475D01*
Y-76274D01*
Y-76073D01*
Y-75872D01*
Y-75671D01*
Y-75470D01*
X10900D01*
Y-75269D01*
Y-75068D01*
Y-74866D01*
Y-74665D01*
Y-74464D01*
Y-74263D01*
Y-74062D01*
Y-73861D01*
Y-73660D01*
Y-73459D01*
Y-73258D01*
Y-73057D01*
Y-72856D01*
Y-72655D01*
Y-72453D01*
Y-72252D01*
Y-72051D01*
Y-71850D01*
Y-71649D01*
Y-71448D01*
Y-71247D01*
Y-71046D01*
Y-70845D01*
Y-70644D01*
Y-70443D01*
Y-70241D01*
Y-70040D01*
Y-69839D01*
Y-69638D01*
Y-69437D01*
X11101D01*
Y-69236D01*
Y-69035D01*
Y-68834D01*
Y-68633D01*
Y-68432D01*
X11302D01*
Y-68231D01*
Y-68030D01*
Y-67828D01*
Y-67627D01*
Y-67426D01*
X11504D01*
Y-67225D01*
Y-67024D01*
Y-66823D01*
Y-66622D01*
Y-66421D01*
X11705D01*
Y-66220D01*
Y-66019D01*
Y-65818D01*
X11906D01*
Y-65616D01*
Y-65415D01*
Y-65214D01*
X12107D01*
Y-65013D01*
Y-64812D01*
Y-64611D01*
X12308D01*
Y-64410D01*
Y-64209D01*
X12509D01*
Y-64008D01*
Y-63807D01*
X12710D01*
Y-63606D01*
Y-63404D01*
Y-63204D01*
X12911D01*
Y-63002D01*
Y-62801D01*
X13112D01*
Y-62600D01*
Y-62399D01*
X13313D01*
Y-62198D01*
X13514D01*
Y-61997D01*
Y-61796D01*
Y-61595D01*
X13716D01*
Y-61394D01*
X13917D01*
Y-61193D01*
Y-60992D01*
X14118D01*
Y-60790D01*
X14319D01*
Y-60589D01*
Y-60388D01*
X14520D01*
Y-60187D01*
X14721D01*
Y-59986D01*
Y-59785D01*
X14922D01*
Y-59584D01*
X15123D01*
Y-59383D01*
Y-59182D01*
X15324D01*
Y-58981D01*
X15525D01*
Y-58780D01*
X15726D01*
Y-58578D01*
X15928D01*
Y-58377D01*
X16129D01*
Y-58176D01*
Y-57975D01*
X16330D01*
Y-57774D01*
X16531D01*
Y-57573D01*
X16732D01*
Y-57372D01*
X16933D01*
Y-57171D01*
X17134D01*
Y-56970D01*
X17335D01*
Y-56769D01*
X17536D01*
Y-56568D01*
X17737D01*
Y-56367D01*
X17938D01*
Y-56165D01*
X18139D01*
Y-55964D01*
X18341D01*
Y-55763D01*
X18743D01*
Y-55562D01*
X18944D01*
Y-55361D01*
X19145D01*
Y-55160D01*
X19346D01*
Y-54959D01*
X19748D01*
Y-54758D01*
X19949D01*
Y-54557D01*
X20150D01*
Y-54356D01*
X20553D01*
Y-54155D01*
X20754D01*
Y-53953D01*
X21156D01*
Y-53752D01*
X21357D01*
Y-53551D01*
X21759D01*
Y-53350D01*
X22161D01*
Y-53149D01*
X22563D01*
Y-52948D01*
X22764D01*
Y-52747D01*
X23368D01*
Y-52546D01*
X23770D01*
Y-52345D01*
X24172D01*
Y-52144D01*
X24574D01*
Y-51943D01*
X25178D01*
Y-51741D01*
X25781D01*
Y-51540D01*
X26384D01*
Y-51339D01*
X26987D01*
Y-51138D01*
X27792D01*
Y-50937D01*
X28797D01*
Y-50736D01*
X30004D01*
Y-50535D01*
X36036D01*
Y-50736D01*
D02*
G37*
G36*
X106721Y-95034D02*
Y-95440D01*
X106314D01*
Y-95846D01*
X105908D01*
Y-95440D01*
X101847D01*
Y-95034D01*
Y-94627D01*
X106721D01*
Y-95034D01*
D02*
G37*
G36*
X71789D02*
Y-95440D01*
X71383D01*
Y-95846D01*
X70976D01*
Y-95440D01*
X66508D01*
Y-95034D01*
Y-94627D01*
X71789D01*
Y-95034D01*
D02*
G37*
G36*
X114844Y-91784D02*
X115251D01*
Y-92190D01*
Y-92596D01*
Y-93003D01*
X114844D01*
Y-93409D01*
Y-93815D01*
X114438D01*
Y-94221D01*
Y-94627D01*
X114032D01*
Y-95034D01*
Y-95440D01*
Y-95846D01*
X113626D01*
Y-96252D01*
Y-96658D01*
X113220D01*
Y-97064D01*
Y-97471D01*
X112814D01*
Y-97877D01*
Y-98283D01*
X112407D01*
Y-98689D01*
X111595D01*
Y-98283D01*
X111189D01*
Y-97877D01*
Y-97471D01*
X110783D01*
Y-97064D01*
Y-96658D01*
Y-96252D01*
X110376D01*
Y-95846D01*
Y-95440D01*
X109970D01*
Y-95034D01*
Y-94627D01*
X109564D01*
Y-94221D01*
Y-93815D01*
Y-93409D01*
X109158D01*
Y-93003D01*
Y-92596D01*
X108752D01*
Y-92190D01*
Y-91784D01*
X109158D01*
Y-91378D01*
X109970D01*
Y-91784D01*
Y-92190D01*
X110376D01*
Y-92596D01*
Y-93003D01*
X110783D01*
Y-93409D01*
Y-93815D01*
Y-94221D01*
X111189D01*
Y-94627D01*
Y-95034D01*
X111595D01*
Y-95440D01*
Y-95846D01*
Y-96252D01*
X112407D01*
Y-95846D01*
Y-95440D01*
X112814D01*
Y-95034D01*
Y-94627D01*
X113220D01*
Y-94221D01*
Y-93815D01*
Y-93409D01*
X113626D01*
Y-93003D01*
Y-92596D01*
Y-92190D01*
X114032D01*
Y-91784D01*
X114438D01*
Y-91378D01*
X114844D01*
Y-91784D01*
D02*
G37*
G36*
X64477D02*
Y-92190D01*
Y-92596D01*
Y-93003D01*
X64071D01*
Y-93409D01*
Y-93815D01*
X63665D01*
Y-94221D01*
Y-94627D01*
Y-95034D01*
X63259D01*
Y-95440D01*
Y-95846D01*
X62853D01*
Y-96252D01*
Y-96658D01*
Y-97064D01*
X62446D01*
Y-97471D01*
Y-97877D01*
X62040D01*
Y-98283D01*
Y-98689D01*
X61228D01*
Y-98283D01*
X60416D01*
Y-97877D01*
Y-97471D01*
Y-97064D01*
X60009D01*
Y-96658D01*
Y-96252D01*
X59603D01*
Y-95846D01*
Y-95440D01*
X59197D01*
Y-95034D01*
Y-94627D01*
Y-94221D01*
X58791D01*
Y-93815D01*
Y-93409D01*
X58385D01*
Y-93003D01*
Y-92596D01*
Y-92190D01*
Y-91784D01*
Y-91378D01*
X59197D01*
Y-91784D01*
Y-92190D01*
X59603D01*
Y-92596D01*
X60009D01*
Y-93003D01*
Y-93409D01*
Y-93815D01*
X60416D01*
Y-94221D01*
Y-94627D01*
Y-95034D01*
X60822D01*
Y-95440D01*
Y-95846D01*
Y-96252D01*
X61634D01*
Y-95846D01*
Y-95440D01*
X62040D01*
Y-95034D01*
Y-94627D01*
X62446D01*
Y-94221D01*
Y-93815D01*
X62853D01*
Y-93409D01*
Y-93003D01*
Y-92596D01*
X63259D01*
Y-92190D01*
Y-91784D01*
X63665D01*
Y-91378D01*
X64477D01*
Y-91784D01*
D02*
G37*
G36*
X122156D02*
X122562D01*
Y-92190D01*
X123374D01*
Y-92596D01*
Y-93003D01*
X123780D01*
Y-93409D01*
Y-93815D01*
X124187D01*
Y-94221D01*
Y-94627D01*
Y-95034D01*
Y-95440D01*
Y-95846D01*
X123780D01*
Y-96252D01*
Y-96658D01*
Y-97064D01*
X123374D01*
Y-97471D01*
X122968D01*
Y-97877D01*
X122156D01*
Y-98283D01*
X121343D01*
Y-98689D01*
X119719D01*
Y-98283D01*
X118500D01*
Y-97877D01*
X118094D01*
Y-97471D01*
X117688D01*
Y-97064D01*
X117282D01*
Y-96658D01*
X116875D01*
Y-96252D01*
Y-95846D01*
Y-95440D01*
Y-95034D01*
Y-94627D01*
Y-94221D01*
Y-93815D01*
X117282D01*
Y-93409D01*
Y-93003D01*
X117688D01*
Y-92596D01*
Y-92190D01*
X118500D01*
Y-91784D01*
X118906D01*
Y-91378D01*
X122156D01*
Y-91784D01*
D02*
G37*
G36*
X106721Y-97877D02*
Y-98283D01*
Y-98689D01*
X102253D01*
Y-98283D01*
X101847D01*
Y-97877D01*
Y-97471D01*
X106721D01*
Y-97877D01*
D02*
G37*
G36*
X96160Y-91784D02*
Y-92190D01*
Y-92596D01*
Y-93003D01*
Y-93409D01*
Y-93815D01*
Y-94221D01*
Y-94627D01*
Y-95034D01*
Y-95440D01*
Y-95846D01*
Y-96252D01*
Y-96658D01*
Y-97064D01*
X99409D01*
Y-97471D01*
X99816D01*
Y-97877D01*
Y-98283D01*
X99409D01*
Y-98689D01*
X95347D01*
Y-98283D01*
X94941D01*
Y-97877D01*
Y-97471D01*
Y-97064D01*
Y-96658D01*
Y-96252D01*
Y-95846D01*
Y-95440D01*
Y-95034D01*
Y-94627D01*
Y-94221D01*
Y-93815D01*
Y-93409D01*
Y-93003D01*
Y-92596D01*
Y-92190D01*
Y-91784D01*
Y-91378D01*
X96160D01*
Y-91784D01*
D02*
G37*
G36*
X83568D02*
X83974D01*
Y-92190D01*
Y-92596D01*
Y-93003D01*
Y-93409D01*
Y-93815D01*
Y-94221D01*
Y-94627D01*
Y-95034D01*
Y-95440D01*
Y-95846D01*
Y-96252D01*
Y-96658D01*
Y-97064D01*
Y-97471D01*
Y-97877D01*
Y-98283D01*
X83568D01*
Y-98689D01*
X83162D01*
Y-98283D01*
X82756D01*
Y-97877D01*
Y-97471D01*
Y-97064D01*
Y-96658D01*
Y-96252D01*
Y-95846D01*
Y-95440D01*
Y-95034D01*
Y-94627D01*
Y-94221D01*
Y-93815D01*
Y-93409D01*
Y-93003D01*
Y-92596D01*
Y-92190D01*
Y-91784D01*
Y-91378D01*
X83568D01*
Y-91784D01*
D02*
G37*
G36*
X71789Y-97877D02*
Y-98283D01*
Y-98689D01*
X66915D01*
Y-98283D01*
Y-97877D01*
Y-97471D01*
X71789D01*
Y-97877D01*
D02*
G37*
%LPC*%
G36*
X34629Y-50736D02*
X31210D01*
Y-50937D01*
X29602D01*
Y-51138D01*
X28596D01*
Y-51339D01*
X27792D01*
Y-51540D01*
X26987D01*
Y-51741D01*
X26183D01*
Y-51943D01*
X25580D01*
Y-52144D01*
X25178D01*
Y-52345D01*
X24574D01*
Y-52546D01*
X24172D01*
Y-52747D01*
X23770D01*
Y-52948D01*
X23368D01*
Y-53149D01*
X22966D01*
Y-53350D01*
X22563D01*
Y-53551D01*
X22161D01*
Y-53752D01*
X21759D01*
Y-53953D01*
X21558D01*
Y-54155D01*
X21357D01*
Y-54356D01*
X20955D01*
Y-54557D01*
X20553D01*
Y-54758D01*
X20352D01*
Y-54959D01*
X20150D01*
Y-55160D01*
X19748D01*
Y-55361D01*
X19547D01*
Y-55562D01*
X19346D01*
Y-55763D01*
X19145D01*
Y-55964D01*
X18944D01*
Y-56165D01*
X18542D01*
Y-56367D01*
X18341D01*
Y-56568D01*
X18139D01*
Y-56769D01*
X17938D01*
Y-56970D01*
X17737D01*
Y-57171D01*
X17536D01*
Y-57372D01*
X17335D01*
Y-57573D01*
X17134D01*
Y-57774D01*
X16933D01*
Y-57975D01*
X16732D01*
Y-58176D01*
X16531D01*
Y-58377D01*
Y-58578D01*
X16330D01*
Y-58780D01*
X16129D01*
Y-58981D01*
X15928D01*
Y-59182D01*
X15726D01*
Y-59383D01*
Y-59584D01*
X15525D01*
Y-59785D01*
X15324D01*
Y-59986D01*
Y-60187D01*
X15123D01*
Y-60388D01*
X14922D01*
Y-60589D01*
Y-60790D01*
X14721D01*
Y-60992D01*
X14520D01*
Y-61193D01*
Y-61394D01*
X14319D01*
Y-61595D01*
X14118D01*
Y-61796D01*
Y-61997D01*
Y-62198D01*
X13917D01*
Y-62399D01*
X13716D01*
Y-62600D01*
Y-62801D01*
X13514D01*
Y-63002D01*
Y-63204D01*
X13313D01*
Y-63404D01*
Y-63606D01*
Y-63807D01*
X13112D01*
Y-64008D01*
Y-64209D01*
X12911D01*
Y-64410D01*
Y-64611D01*
Y-64812D01*
X12710D01*
Y-65013D01*
Y-65214D01*
X12509D01*
Y-65415D01*
Y-65616D01*
Y-65818D01*
X12308D01*
Y-66019D01*
Y-66220D01*
Y-66421D01*
X12107D01*
Y-66622D01*
Y-66823D01*
Y-67024D01*
Y-67225D01*
X11906D01*
Y-67426D01*
Y-67627D01*
Y-67828D01*
Y-68030D01*
Y-68231D01*
X11705D01*
Y-68432D01*
Y-68633D01*
Y-68834D01*
Y-69035D01*
Y-69236D01*
Y-69437D01*
X11504D01*
Y-69638D01*
Y-69839D01*
Y-70040D01*
Y-70241D01*
Y-70443D01*
Y-70644D01*
Y-70845D01*
Y-71046D01*
Y-71247D01*
Y-71448D01*
Y-71649D01*
Y-71850D01*
Y-72051D01*
Y-72252D01*
Y-72453D01*
Y-72655D01*
Y-72856D01*
Y-73057D01*
Y-73258D01*
Y-73459D01*
Y-73660D01*
Y-73861D01*
Y-74062D01*
Y-74263D01*
Y-74464D01*
Y-74665D01*
Y-74866D01*
Y-75068D01*
Y-75269D01*
X11705D01*
Y-75470D01*
Y-75671D01*
Y-75872D01*
Y-76073D01*
Y-76274D01*
Y-76475D01*
X11906D01*
Y-76676D01*
Y-76877D01*
Y-77078D01*
Y-77280D01*
Y-77481D01*
X12107D01*
Y-77682D01*
Y-77883D01*
Y-78084D01*
Y-78285D01*
X12308D01*
Y-78486D01*
Y-78687D01*
Y-78888D01*
Y-79089D01*
X12509D01*
Y-79290D01*
Y-79492D01*
X12710D01*
Y-79693D01*
Y-79894D01*
Y-80095D01*
X12911D01*
Y-80296D01*
Y-80497D01*
X13112D01*
Y-80698D01*
Y-80899D01*
Y-81100D01*
X13313D01*
Y-81301D01*
Y-81502D01*
X13514D01*
Y-81704D01*
Y-81905D01*
X13716D01*
Y-82106D01*
Y-82307D01*
X13917D01*
Y-82508D01*
Y-82709D01*
X14118D01*
Y-82910D01*
Y-83111D01*
X14319D01*
Y-83312D01*
Y-83513D01*
X14520D01*
Y-83714D01*
X14721D01*
Y-83916D01*
Y-84116D01*
X14922D01*
Y-84318D01*
Y-84519D01*
X15123D01*
Y-84720D01*
X15324D01*
Y-84921D01*
X15525D01*
Y-85122D01*
Y-85323D01*
X15726D01*
Y-85524D01*
X15928D01*
Y-85725D01*
X16129D01*
Y-85926D01*
X16330D01*
Y-86127D01*
Y-86328D01*
X16531D01*
Y-86530D01*
X16732D01*
Y-86731D01*
X16933D01*
Y-86932D01*
X17134D01*
Y-87133D01*
X17335D01*
Y-87334D01*
Y-87535D01*
X17737D01*
Y-87736D01*
X17938D01*
Y-87937D01*
X18139D01*
Y-88138D01*
Y-88339D01*
X18542D01*
Y-88540D01*
X18743D01*
Y-88742D01*
X18944D01*
Y-88943D01*
X19145D01*
Y-89144D01*
X19346D01*
Y-89345D01*
X19547D01*
Y-89546D01*
X19949D01*
Y-89747D01*
X20150D01*
Y-89948D01*
X20352D01*
Y-90149D01*
X20754D01*
Y-90350D01*
X20955D01*
Y-90551D01*
X21357D01*
Y-90752D01*
X21558D01*
Y-90954D01*
X21960D01*
Y-91155D01*
X22362D01*
Y-91356D01*
X22764D01*
Y-91557D01*
X23167D01*
Y-91758D01*
X23368D01*
Y-91959D01*
X23770D01*
Y-92160D01*
X24373D01*
Y-92361D01*
X24775D01*
Y-92562D01*
X25379D01*
Y-92763D01*
X25781D01*
Y-92964D01*
X26384D01*
Y-93166D01*
X26987D01*
Y-93367D01*
X27993D01*
Y-93568D01*
X28797D01*
Y-93769D01*
X30205D01*
Y-93970D01*
X32417D01*
Y-94171D01*
X33020D01*
Y-93970D01*
X35835D01*
Y-93769D01*
X37042D01*
Y-93568D01*
X38047D01*
Y-93367D01*
X38851D01*
Y-93166D01*
X39455D01*
Y-92964D01*
X40058D01*
Y-92763D01*
X40661D01*
Y-92562D01*
X41063D01*
Y-92361D01*
X41667D01*
Y-92160D01*
X42069D01*
Y-91959D01*
X42471D01*
Y-91758D01*
X42873D01*
Y-91557D01*
X43275D01*
Y-91356D01*
X43477D01*
Y-91155D01*
X43879D01*
Y-90954D01*
X44281D01*
Y-90752D01*
X44683D01*
Y-90551D01*
X44884D01*
Y-90350D01*
X45286D01*
Y-90149D01*
X45487D01*
Y-89948D01*
X45689D01*
Y-89747D01*
X46091D01*
Y-89546D01*
X46292D01*
Y-89345D01*
X46493D01*
Y-89144D01*
X46694D01*
Y-88943D01*
X46895D01*
Y-88742D01*
X47297D01*
Y-88540D01*
X47498D01*
Y-88339D01*
X47699D01*
Y-88138D01*
X47901D01*
Y-87937D01*
X48102D01*
Y-87736D01*
X48303D01*
Y-87535D01*
X48504D01*
Y-87334D01*
X48705D01*
Y-87133D01*
X48906D01*
Y-86932D01*
X49107D01*
Y-86731D01*
X49308D01*
Y-86530D01*
Y-86328D01*
X49509D01*
Y-86127D01*
X49710D01*
Y-85926D01*
X49911D01*
Y-85725D01*
X50112D01*
Y-85524D01*
X50314D01*
Y-85323D01*
Y-85122D01*
X50515D01*
Y-84921D01*
X50716D01*
Y-84720D01*
Y-84519D01*
X50917D01*
Y-84318D01*
X51118D01*
Y-84116D01*
Y-83916D01*
X51319D01*
Y-83714D01*
X51520D01*
Y-83513D01*
Y-83312D01*
X51721D01*
Y-83111D01*
Y-82910D01*
X51922D01*
Y-82709D01*
Y-82508D01*
X52123D01*
Y-82307D01*
Y-82106D01*
X52324D01*
Y-81905D01*
Y-81704D01*
X52526D01*
Y-81502D01*
Y-81301D01*
X52727D01*
Y-81100D01*
Y-80899D01*
X52928D01*
Y-80698D01*
Y-80497D01*
Y-80296D01*
X53129D01*
Y-80095D01*
Y-79894D01*
X53330D01*
Y-79693D01*
Y-79492D01*
Y-79290D01*
Y-79089D01*
X53531D01*
Y-78888D01*
Y-78687D01*
X53732D01*
Y-78486D01*
Y-78285D01*
Y-78084D01*
Y-77883D01*
X53933D01*
Y-77682D01*
Y-77481D01*
Y-77280D01*
Y-77078D01*
X54134D01*
Y-76877D01*
Y-76676D01*
Y-76475D01*
Y-76274D01*
Y-76073D01*
Y-75872D01*
X54335D01*
Y-75671D01*
Y-75470D01*
Y-75269D01*
Y-75068D01*
Y-74866D01*
Y-74665D01*
Y-74464D01*
Y-74263D01*
X54536D01*
Y-74062D01*
Y-73861D01*
Y-73660D01*
Y-73459D01*
Y-73258D01*
Y-73057D01*
Y-72856D01*
Y-72655D01*
Y-72453D01*
Y-72252D01*
Y-72051D01*
Y-71850D01*
Y-71649D01*
Y-71448D01*
Y-71247D01*
Y-71046D01*
Y-70845D01*
Y-70644D01*
X54335D01*
Y-70443D01*
Y-70241D01*
Y-70040D01*
Y-69839D01*
Y-69638D01*
Y-69437D01*
Y-69236D01*
Y-69035D01*
Y-68834D01*
X54134D01*
Y-68633D01*
Y-68432D01*
Y-68231D01*
Y-68030D01*
Y-67828D01*
X53933D01*
Y-67627D01*
Y-67426D01*
Y-67225D01*
Y-67024D01*
Y-66823D01*
X53732D01*
Y-66622D01*
Y-66421D01*
Y-66220D01*
X53531D01*
Y-66019D01*
Y-65818D01*
Y-65616D01*
X53330D01*
Y-65415D01*
Y-65214D01*
Y-65013D01*
X53129D01*
Y-64812D01*
Y-64611D01*
Y-64410D01*
X52928D01*
Y-64209D01*
Y-64008D01*
X52727D01*
Y-63807D01*
Y-63606D01*
Y-63404D01*
X52526D01*
Y-63204D01*
Y-63002D01*
X52324D01*
Y-62801D01*
Y-62600D01*
X52123D01*
Y-62399D01*
Y-62198D01*
X51922D01*
Y-61997D01*
Y-61796D01*
X51721D01*
Y-61595D01*
X51520D01*
Y-61394D01*
Y-61193D01*
X51319D01*
Y-60992D01*
Y-60790D01*
X51118D01*
Y-60589D01*
X50917D01*
Y-60388D01*
X50716D01*
Y-60187D01*
Y-59986D01*
X50515D01*
Y-59785D01*
Y-59584D01*
X50314D01*
Y-59383D01*
X50112D01*
Y-59182D01*
X49911D01*
Y-58981D01*
Y-58780D01*
X49710D01*
Y-58578D01*
X49509D01*
Y-58377D01*
X49308D01*
Y-58176D01*
X49107D01*
Y-57975D01*
X48906D01*
Y-57774D01*
X48705D01*
Y-57573D01*
X48504D01*
Y-57372D01*
Y-57171D01*
X48102D01*
Y-56970D01*
X47901D01*
Y-56769D01*
X47699D01*
Y-56568D01*
X47498D01*
Y-56367D01*
X47297D01*
Y-56165D01*
X47096D01*
Y-55964D01*
X46895D01*
Y-55763D01*
X46694D01*
Y-55562D01*
X46493D01*
Y-55361D01*
X46091D01*
Y-55160D01*
X45890D01*
Y-54959D01*
X45487D01*
Y-54758D01*
X45286D01*
Y-54557D01*
X45085D01*
Y-54356D01*
X44683D01*
Y-54155D01*
X44482D01*
Y-53953D01*
X44080D01*
Y-53752D01*
X43678D01*
Y-53551D01*
X43477D01*
Y-53350D01*
X43074D01*
Y-53149D01*
X42672D01*
Y-52948D01*
X42270D01*
Y-52747D01*
X41868D01*
Y-52546D01*
X41265D01*
Y-52345D01*
X40862D01*
Y-52144D01*
X40460D01*
Y-51943D01*
X39656D01*
Y-51741D01*
X38851D01*
Y-51540D01*
X38248D01*
Y-51339D01*
X37243D01*
Y-51138D01*
X36237D01*
Y-50937D01*
X34629D01*
Y-50736D01*
D02*
G37*
%LPD*%
G36*
X37042Y-52546D02*
Y-52747D01*
X36841D01*
Y-52546D01*
X36640D01*
Y-52345D01*
X37042D01*
Y-52546D01*
D02*
G37*
G36*
X33824Y-53149D02*
Y-53350D01*
X33020D01*
Y-53149D01*
Y-52948D01*
X33824D01*
Y-53149D01*
D02*
G37*
G36*
X40460Y-53350D02*
X40862D01*
Y-53551D01*
X41063D01*
Y-53752D01*
Y-53953D01*
X40661D01*
Y-53752D01*
X40460D01*
Y-53551D01*
X40058D01*
Y-53752D01*
Y-53953D01*
X40259D01*
Y-54155D01*
X40661D01*
Y-54356D01*
Y-54557D01*
Y-54758D01*
Y-54959D01*
Y-55160D01*
X40259D01*
Y-55361D01*
X40058D01*
Y-55160D01*
X39455D01*
Y-54959D01*
Y-54758D01*
X39254D01*
Y-54557D01*
Y-54356D01*
X39656D01*
Y-54557D01*
Y-54758D01*
X39857D01*
Y-54959D01*
X40259D01*
Y-54758D01*
X40460D01*
Y-54557D01*
X40259D01*
Y-54356D01*
X40058D01*
Y-54155D01*
X39656D01*
Y-53953D01*
Y-53752D01*
Y-53551D01*
X39857D01*
Y-53350D01*
X40058D01*
Y-53149D01*
X40460D01*
Y-53350D01*
D02*
G37*
G36*
X30205Y-52948D02*
X30406D01*
Y-53149D01*
Y-53350D01*
Y-53551D01*
Y-53752D01*
X30607D01*
Y-53953D01*
X30205D01*
Y-53752D01*
Y-53551D01*
X30004D01*
Y-53350D01*
Y-53149D01*
Y-52948D01*
X29803D01*
Y-53149D01*
X29602D01*
Y-53350D01*
Y-53551D01*
Y-53752D01*
Y-53953D01*
Y-54155D01*
X29400D01*
Y-53953D01*
Y-53752D01*
X29199D01*
Y-53551D01*
Y-53350D01*
Y-53149D01*
Y-52948D01*
Y-52747D01*
X30205D01*
Y-52948D01*
D02*
G37*
G36*
X35835Y-52345D02*
Y-52546D01*
Y-52747D01*
Y-52948D01*
X36036D01*
Y-53149D01*
Y-53350D01*
Y-53551D01*
Y-53752D01*
X36237D01*
Y-53953D01*
X36439D01*
Y-53752D01*
Y-53551D01*
Y-53350D01*
X36640D01*
Y-53149D01*
Y-52948D01*
Y-52747D01*
X36841D01*
Y-52948D01*
Y-53149D01*
Y-53350D01*
Y-53551D01*
Y-53752D01*
Y-53953D01*
X36640D01*
Y-54155D01*
X35835D01*
Y-53953D01*
X35634D01*
Y-53752D01*
Y-53551D01*
X34830D01*
Y-53752D01*
Y-53953D01*
X34428D01*
Y-53752D01*
Y-53551D01*
X34629D01*
Y-53350D01*
X34830D01*
Y-53149D01*
Y-52948D01*
X35031D01*
Y-52747D01*
Y-52546D01*
X35232D01*
Y-52345D01*
Y-52144D01*
X35835D01*
Y-52345D01*
D02*
G37*
G36*
X26987Y-53752D02*
X27188D01*
Y-53953D01*
Y-54155D01*
Y-54356D01*
X27390D01*
Y-54557D01*
X27188D01*
Y-54758D01*
X26987D01*
Y-54959D01*
X26585D01*
Y-54758D01*
X26384D01*
Y-54557D01*
X26183D01*
Y-54356D01*
X25982D01*
Y-54557D01*
Y-54758D01*
Y-54959D01*
Y-55160D01*
X25781D01*
Y-55361D01*
X25178D01*
Y-55160D01*
X24976D01*
Y-54959D01*
Y-54758D01*
Y-54557D01*
X24775D01*
Y-54356D01*
Y-54155D01*
X24976D01*
Y-53953D01*
X25781D01*
Y-54155D01*
X26183D01*
Y-53953D01*
Y-53752D01*
Y-53551D01*
X26987D01*
Y-53752D01*
D02*
G37*
G36*
X28797Y-53149D02*
Y-53350D01*
Y-53551D01*
X28998D01*
Y-53752D01*
Y-53953D01*
Y-54155D01*
Y-54356D01*
X28797D01*
Y-54155D01*
X28596D01*
Y-53953D01*
Y-53752D01*
Y-53551D01*
X28395D01*
Y-53350D01*
X27993D01*
Y-53551D01*
X27792D01*
Y-53752D01*
X27993D01*
Y-53953D01*
Y-54155D01*
Y-54356D01*
Y-54557D01*
X27792D01*
Y-54356D01*
X27591D01*
Y-54155D01*
Y-53953D01*
Y-53752D01*
X27390D01*
Y-53551D01*
Y-53350D01*
X27591D01*
Y-53149D01*
X28395D01*
Y-52948D01*
X28797D01*
Y-53149D01*
D02*
G37*
G36*
X37846D02*
X38449D01*
Y-53350D01*
Y-53551D01*
Y-53752D01*
Y-53953D01*
Y-54155D01*
X38248D01*
Y-54356D01*
Y-54557D01*
X37846D01*
Y-54356D01*
Y-54155D01*
X38047D01*
Y-53953D01*
Y-53752D01*
Y-53551D01*
Y-53350D01*
X37645D01*
Y-53551D01*
Y-53752D01*
Y-53953D01*
X37444D01*
Y-54155D01*
Y-54356D01*
X37042D01*
Y-54155D01*
Y-53953D01*
X37243D01*
Y-53752D01*
Y-53551D01*
Y-53350D01*
Y-53149D01*
X37444D01*
Y-52948D01*
X37846D01*
Y-53149D01*
D02*
G37*
G36*
X32015Y-52747D02*
Y-52948D01*
Y-53149D01*
Y-53350D01*
Y-53551D01*
Y-53752D01*
Y-53953D01*
Y-54155D01*
Y-54356D01*
X31612D01*
Y-54557D01*
X31210D01*
Y-54356D01*
X30808D01*
Y-54155D01*
X31009D01*
Y-53953D01*
Y-53752D01*
X30808D01*
Y-53551D01*
Y-53350D01*
Y-53149D01*
Y-52948D01*
Y-52747D01*
Y-52546D01*
X32015D01*
Y-52747D01*
D02*
G37*
G36*
X22764Y-54758D02*
X22966D01*
Y-54959D01*
X22563D01*
Y-54758D01*
Y-54557D01*
X22764D01*
Y-54758D01*
D02*
G37*
G36*
X24373D02*
X24574D01*
Y-54959D01*
X24775D01*
Y-55160D01*
Y-55361D01*
X24976D01*
Y-55562D01*
X24574D01*
Y-55361D01*
X24373D01*
Y-55160D01*
Y-54959D01*
X23770D01*
Y-55160D01*
X23971D01*
Y-55361D01*
Y-55562D01*
X24172D01*
Y-55763D01*
Y-55964D01*
X23770D01*
Y-55763D01*
Y-55562D01*
X23569D01*
Y-55361D01*
Y-55160D01*
X23368D01*
Y-54959D01*
Y-54758D01*
X23770D01*
Y-54557D01*
X24373D01*
Y-54758D01*
D02*
G37*
G36*
X43477Y-55361D02*
X43678D01*
Y-55562D01*
Y-55763D01*
Y-55964D01*
X43477D01*
Y-56165D01*
X43275D01*
Y-56367D01*
Y-56568D01*
X43074D01*
Y-56769D01*
X42873D01*
Y-56568D01*
X42471D01*
Y-56367D01*
X42270D01*
Y-56165D01*
Y-55964D01*
Y-55763D01*
X42471D01*
Y-55562D01*
X42873D01*
Y-55763D01*
X43275D01*
Y-55562D01*
X43074D01*
Y-55361D01*
X42672D01*
Y-55160D01*
X43477D01*
Y-55361D01*
D02*
G37*
G36*
X41868Y-53953D02*
Y-54155D01*
Y-54356D01*
Y-54557D01*
X42270D01*
Y-54758D01*
Y-54959D01*
Y-55160D01*
Y-55361D01*
X42069D01*
Y-55562D01*
Y-55763D01*
X41868D01*
Y-55964D01*
X41667D01*
Y-55763D01*
Y-55562D01*
Y-55361D01*
X41868D01*
Y-55160D01*
Y-54959D01*
Y-54758D01*
X41466D01*
Y-54959D01*
X41265D01*
Y-55160D01*
Y-55361D01*
Y-55562D01*
X40862D01*
Y-55361D01*
Y-55160D01*
X41063D01*
Y-54959D01*
Y-54758D01*
X41265D01*
Y-54557D01*
Y-54356D01*
X41466D01*
Y-54155D01*
Y-53953D01*
X41667D01*
Y-53752D01*
X41868D01*
Y-53953D01*
D02*
G37*
G36*
X23167Y-55361D02*
X23368D01*
Y-55562D01*
Y-55763D01*
Y-55964D01*
X23569D01*
Y-56165D01*
Y-56367D01*
X23368D01*
Y-56165D01*
X23167D01*
Y-55964D01*
Y-55763D01*
X22966D01*
Y-55562D01*
X22764D01*
Y-55361D01*
Y-55160D01*
X23167D01*
Y-55361D01*
D02*
G37*
G36*
X22362Y-55562D02*
X22563D01*
Y-55763D01*
X22764D01*
Y-55964D01*
Y-56165D01*
X22966D01*
Y-56367D01*
X23167D01*
Y-56568D01*
Y-56769D01*
Y-56970D01*
Y-57171D01*
X22966D01*
Y-57372D01*
X22362D01*
Y-57171D01*
Y-56970D01*
X22161D01*
Y-56769D01*
X21960D01*
Y-56568D01*
X21759D01*
Y-56367D01*
X21558D01*
Y-56165D01*
Y-55964D01*
X21759D01*
Y-55763D01*
X21960D01*
Y-55562D01*
X22161D01*
Y-55361D01*
X22362D01*
Y-55562D01*
D02*
G37*
G36*
X21357Y-56568D02*
X21558D01*
Y-56769D01*
X21759D01*
Y-56970D01*
Y-57171D01*
X21960D01*
Y-57372D01*
X21558D01*
Y-57171D01*
X21357D01*
Y-56970D01*
Y-56769D01*
X20754D01*
Y-56970D01*
Y-57171D01*
X20955D01*
Y-57372D01*
X21156D01*
Y-57573D01*
X21357D01*
Y-57774D01*
X20955D01*
Y-57573D01*
X20754D01*
Y-57372D01*
X20553D01*
Y-57171D01*
X20352D01*
Y-56970D01*
Y-56769D01*
X20553D01*
Y-56568D01*
X20754D01*
Y-56367D01*
X21357D01*
Y-56568D01*
D02*
G37*
G36*
X46292Y-57372D02*
X46493D01*
Y-57573D01*
X46694D01*
Y-57774D01*
Y-57975D01*
X46292D01*
Y-57774D01*
Y-57573D01*
X45890D01*
Y-57774D01*
X46091D01*
Y-57975D01*
X46292D01*
Y-58176D01*
Y-58377D01*
Y-58578D01*
X46091D01*
Y-58780D01*
X45487D01*
Y-58578D01*
X45286D01*
Y-58377D01*
Y-58176D01*
X45085D01*
Y-57975D01*
X45487D01*
Y-58176D01*
Y-58377D01*
X45890D01*
Y-58176D01*
Y-57975D01*
X45487D01*
Y-57774D01*
X45689D01*
Y-57573D01*
Y-57372D01*
Y-57171D01*
X46292D01*
Y-57372D01*
D02*
G37*
G36*
X44281Y-55964D02*
X44683D01*
Y-56165D01*
X44884D01*
Y-56367D01*
X45085D01*
Y-56568D01*
X45487D01*
Y-56769D01*
Y-56970D01*
Y-57171D01*
X45286D01*
Y-57372D01*
X45085D01*
Y-57573D01*
Y-57774D01*
X44884D01*
Y-57975D01*
X44683D01*
Y-57774D01*
Y-57573D01*
Y-57372D01*
X44884D01*
Y-57171D01*
X45085D01*
Y-56970D01*
Y-56769D01*
X44683D01*
Y-56970D01*
X44482D01*
Y-57171D01*
Y-57372D01*
X44281D01*
Y-57573D01*
X44080D01*
Y-57372D01*
X43879D01*
Y-57171D01*
X44080D01*
Y-56970D01*
X44281D01*
Y-56769D01*
X44482D01*
Y-56568D01*
Y-56367D01*
X44080D01*
Y-56568D01*
X43879D01*
Y-56769D01*
X43678D01*
Y-56970D01*
X43275D01*
Y-56769D01*
X43477D01*
Y-56568D01*
Y-56367D01*
X43678D01*
Y-56165D01*
X43879D01*
Y-55964D01*
X44080D01*
Y-55763D01*
X44281D01*
Y-55964D01*
D02*
G37*
G36*
X19748Y-56970D02*
Y-57171D01*
X19547D01*
Y-57372D01*
X19346D01*
Y-57573D01*
Y-57774D01*
X19748D01*
Y-57573D01*
X19949D01*
Y-57372D01*
X20352D01*
Y-57573D01*
Y-57774D01*
X19949D01*
Y-57975D01*
X19748D01*
Y-58176D01*
X19949D01*
Y-58377D01*
X20150D01*
Y-58176D01*
X20352D01*
Y-57975D01*
X20955D01*
Y-58176D01*
X20754D01*
Y-58377D01*
X20553D01*
Y-58578D01*
X20352D01*
Y-58780D01*
X20150D01*
Y-58981D01*
X19949D01*
Y-58780D01*
X19748D01*
Y-58578D01*
X19547D01*
Y-58377D01*
Y-58176D01*
X19346D01*
Y-57975D01*
X19145D01*
Y-57774D01*
X18944D01*
Y-57573D01*
Y-57372D01*
X19145D01*
Y-57171D01*
X19346D01*
Y-56970D01*
X19547D01*
Y-56769D01*
X19748D01*
Y-56970D01*
D02*
G37*
G36*
X18341Y-58377D02*
Y-58578D01*
X18743D01*
Y-58780D01*
Y-58981D01*
Y-59182D01*
X18944D01*
Y-59383D01*
X19145D01*
Y-59584D01*
X19346D01*
Y-59785D01*
X19145D01*
Y-59986D01*
X18944D01*
Y-59785D01*
X18743D01*
Y-59584D01*
Y-59383D01*
X18341D01*
Y-59182D01*
X18139D01*
Y-58981D01*
X17938D01*
Y-58780D01*
Y-58578D01*
Y-58377D01*
X18139D01*
Y-58176D01*
X18341D01*
Y-58377D01*
D02*
G37*
G36*
X48102D02*
X48303D01*
Y-58578D01*
X48102D01*
Y-58780D01*
X47901D01*
Y-58981D01*
X47699D01*
Y-59182D01*
X47498D01*
Y-59383D01*
X47297D01*
Y-59584D01*
Y-59785D01*
Y-59986D01*
X47699D01*
Y-59785D01*
X47901D01*
Y-59584D01*
X48102D01*
Y-59383D01*
X48303D01*
Y-59182D01*
X48504D01*
Y-58981D01*
X48705D01*
Y-59182D01*
X48906D01*
Y-59383D01*
X48705D01*
Y-59584D01*
X48504D01*
Y-59785D01*
X48303D01*
Y-59986D01*
X48102D01*
Y-60187D01*
X47901D01*
Y-60388D01*
X47096D01*
Y-60187D01*
X46895D01*
Y-59986D01*
Y-59785D01*
Y-59584D01*
X46694D01*
Y-59383D01*
X46895D01*
Y-59182D01*
X47096D01*
Y-58981D01*
X47297D01*
Y-58780D01*
X47498D01*
Y-58578D01*
X47699D01*
Y-58377D01*
X47901D01*
Y-58176D01*
X48102D01*
Y-58377D01*
D02*
G37*
G36*
X18139Y-59584D02*
X18341D01*
Y-59785D01*
X18542D01*
Y-59986D01*
X18743D01*
Y-60187D01*
Y-60388D01*
X18542D01*
Y-60589D01*
Y-60790D01*
X17737D01*
Y-60589D01*
X17536D01*
Y-60388D01*
Y-60187D01*
X17335D01*
Y-59986D01*
Y-59785D01*
X17536D01*
Y-59584D01*
X17737D01*
Y-59383D01*
X18139D01*
Y-59584D01*
D02*
G37*
G36*
X50314Y-61193D02*
Y-61394D01*
X49911D01*
Y-61193D01*
Y-60992D01*
X50314D01*
Y-61193D01*
D02*
G37*
G36*
X48906Y-60187D02*
Y-60388D01*
X49107D01*
Y-60589D01*
X49308D01*
Y-60790D01*
Y-60992D01*
Y-61193D01*
X49107D01*
Y-61394D01*
X48906D01*
Y-61595D01*
X48705D01*
Y-61796D01*
X48303D01*
Y-61595D01*
Y-61394D01*
X48504D01*
Y-61193D01*
X48705D01*
Y-60992D01*
X48906D01*
Y-60790D01*
Y-60589D01*
X48504D01*
Y-60790D01*
X48303D01*
Y-60992D01*
X48102D01*
Y-61193D01*
X47901D01*
Y-60992D01*
X47699D01*
Y-60790D01*
X48102D01*
Y-60589D01*
X48303D01*
Y-60388D01*
X48504D01*
Y-60187D01*
X48705D01*
Y-59986D01*
X48906D01*
Y-60187D01*
D02*
G37*
G36*
X16933Y-61193D02*
Y-61394D01*
X17134D01*
Y-61595D01*
X17335D01*
Y-61796D01*
Y-61997D01*
X17536D01*
Y-62198D01*
X17737D01*
Y-62399D01*
Y-62600D01*
Y-62801D01*
X17335D01*
Y-62600D01*
Y-62399D01*
X17134D01*
Y-62198D01*
X16732D01*
Y-61997D01*
X16330D01*
Y-62198D01*
X16129D01*
Y-62399D01*
X16531D01*
Y-62600D01*
X17134D01*
Y-62801D01*
X16933D01*
Y-63002D01*
X16330D01*
Y-62801D01*
X15928D01*
Y-62600D01*
X15726D01*
Y-62399D01*
X15525D01*
Y-62198D01*
Y-61997D01*
X16129D01*
Y-61796D01*
Y-61595D01*
X16531D01*
Y-61796D01*
X16933D01*
Y-61595D01*
X16732D01*
Y-61394D01*
X16531D01*
Y-61193D01*
Y-60992D01*
X16933D01*
Y-61193D01*
D02*
G37*
G36*
X49911Y-61595D02*
X49710D01*
Y-61796D01*
X49509D01*
Y-61997D01*
X49308D01*
Y-62198D01*
X49107D01*
Y-62399D01*
X48705D01*
Y-62198D01*
Y-61997D01*
X48906D01*
Y-61796D01*
X49107D01*
Y-61595D01*
X49509D01*
Y-61394D01*
X49911D01*
Y-61595D01*
D02*
G37*
G36*
X50112Y-61997D02*
Y-62198D01*
Y-62399D01*
X49911D01*
Y-62600D01*
X49710D01*
Y-62801D01*
X50112D01*
Y-62600D01*
X50515D01*
Y-62801D01*
X50716D01*
Y-63002D01*
X50112D01*
Y-63204D01*
X49107D01*
Y-63002D01*
Y-62801D01*
X49308D01*
Y-62600D01*
X49509D01*
Y-62399D01*
Y-62198D01*
X49710D01*
Y-61997D01*
X49911D01*
Y-61796D01*
X50112D01*
Y-61997D01*
D02*
G37*
G36*
X15525Y-62801D02*
X15726D01*
Y-63002D01*
X16129D01*
Y-63204D01*
X16330D01*
Y-63404D01*
X16732D01*
Y-63606D01*
X16531D01*
Y-63807D01*
X16330D01*
Y-63606D01*
X16129D01*
Y-63404D01*
X15726D01*
Y-63204D01*
X15525D01*
Y-63002D01*
X15123D01*
Y-62801D01*
Y-62600D01*
X15525D01*
Y-62801D01*
D02*
G37*
G36*
Y-63606D02*
X15726D01*
Y-63807D01*
X16129D01*
Y-64008D01*
X16330D01*
Y-64209D01*
Y-64410D01*
X16129D01*
Y-64611D01*
Y-64812D01*
X15324D01*
Y-64611D01*
X15123D01*
Y-64410D01*
X14922D01*
Y-64209D01*
X15324D01*
Y-64410D01*
X15928D01*
Y-64209D01*
X15726D01*
Y-64008D01*
X15525D01*
Y-63807D01*
X15123D01*
Y-63606D01*
Y-63404D01*
X15525D01*
Y-63606D01*
D02*
G37*
G36*
X50917D02*
X51118D01*
Y-63807D01*
Y-64008D01*
Y-64209D01*
X50917D01*
Y-64410D01*
X50515D01*
Y-64611D01*
X49911D01*
Y-64410D01*
X49710D01*
Y-64209D01*
Y-64008D01*
Y-63807D01*
X49911D01*
Y-63606D01*
X50112D01*
Y-63404D01*
X50917D01*
Y-63606D01*
D02*
G37*
G36*
X51520Y-64812D02*
Y-65013D01*
X51721D01*
Y-65214D01*
X51319D01*
Y-65013D01*
X51118D01*
Y-65214D01*
X50716D01*
Y-65415D01*
X50314D01*
Y-65214D01*
Y-65013D01*
X50515D01*
Y-64812D01*
X50917D01*
Y-64611D01*
X51520D01*
Y-64812D01*
D02*
G37*
G36*
X15123Y-65013D02*
X14922D01*
Y-65214D01*
X14721D01*
Y-65415D01*
X14922D01*
Y-65616D01*
X15123D01*
Y-65818D01*
X15324D01*
Y-65616D01*
Y-65415D01*
Y-65214D01*
Y-65013D01*
X15525D01*
Y-65214D01*
X15726D01*
Y-65415D01*
Y-65616D01*
Y-65818D01*
X15525D01*
Y-66019D01*
X14922D01*
Y-65818D01*
X14520D01*
Y-65616D01*
Y-65415D01*
Y-65214D01*
Y-65013D01*
X14721D01*
Y-64812D01*
X15123D01*
Y-65013D01*
D02*
G37*
G36*
X51922Y-65818D02*
X52123D01*
Y-66019D01*
Y-66220D01*
Y-66421D01*
X51922D01*
Y-66622D01*
X51721D01*
Y-66421D01*
X51520D01*
Y-66622D01*
Y-66823D01*
X50917D01*
Y-66622D01*
X50716D01*
Y-66421D01*
Y-66220D01*
Y-66019D01*
Y-65818D01*
X51319D01*
Y-65616D01*
X51922D01*
Y-65818D01*
D02*
G37*
G36*
X14520Y-66220D02*
X15123D01*
Y-66421D01*
X15324D01*
Y-66622D01*
Y-66823D01*
X15123D01*
Y-67024D01*
Y-67225D01*
Y-67426D01*
X14721D01*
Y-67225D01*
X14520D01*
Y-67024D01*
X14118D01*
Y-66823D01*
Y-66622D01*
Y-66421D01*
Y-66220D01*
X14319D01*
Y-66019D01*
X14520D01*
Y-66220D01*
D02*
G37*
G36*
X52324Y-66823D02*
X52727D01*
Y-67024D01*
X52526D01*
Y-67225D01*
X52324D01*
Y-67426D01*
X51721D01*
Y-67627D01*
X51520D01*
Y-67828D01*
X51118D01*
Y-67627D01*
Y-67426D01*
X51319D01*
Y-67225D01*
X51721D01*
Y-67024D01*
X51922D01*
Y-66823D01*
X52123D01*
Y-66622D01*
X52324D01*
Y-66823D01*
D02*
G37*
G36*
X52526Y-67828D02*
Y-68030D01*
X52324D01*
Y-68231D01*
X52123D01*
Y-68432D01*
X52727D01*
Y-68633D01*
X52928D01*
Y-68834D01*
X51118D01*
Y-68633D01*
X50917D01*
Y-68432D01*
Y-68231D01*
X51319D01*
Y-68432D01*
X51520D01*
Y-68231D01*
X51721D01*
Y-68030D01*
X51922D01*
Y-67828D01*
X52324D01*
Y-67627D01*
X52526D01*
Y-67828D01*
D02*
G37*
G36*
X13716Y-67225D02*
Y-67426D01*
Y-67627D01*
X13514D01*
Y-67828D01*
Y-68030D01*
X13917D01*
Y-67828D01*
Y-67627D01*
X14118D01*
Y-67426D01*
X14319D01*
Y-67627D01*
Y-67828D01*
Y-68030D01*
Y-68231D01*
X14721D01*
Y-68432D01*
Y-68633D01*
Y-68834D01*
X14520D01*
Y-68633D01*
X14118D01*
Y-68432D01*
X13514D01*
Y-68231D01*
X13313D01*
Y-68030D01*
Y-67828D01*
Y-67627D01*
Y-67426D01*
X13514D01*
Y-67225D01*
Y-67024D01*
X13716D01*
Y-67225D01*
D02*
G37*
G36*
X47498Y-84519D02*
Y-84720D01*
X47297D01*
Y-84921D01*
X47498D01*
Y-85122D01*
X48303D01*
Y-85323D01*
Y-85524D01*
Y-85725D01*
Y-85926D01*
X48102D01*
Y-86127D01*
X47901D01*
Y-86328D01*
X47699D01*
Y-86530D01*
X47498D01*
Y-86731D01*
X47297D01*
Y-86932D01*
X46895D01*
Y-87133D01*
Y-87334D01*
X46694D01*
Y-87535D01*
X46493D01*
Y-87736D01*
X46091D01*
Y-87937D01*
X45487D01*
Y-87736D01*
X45286D01*
Y-87535D01*
Y-87334D01*
X45487D01*
Y-87133D01*
Y-86932D01*
X44683D01*
Y-86731D01*
X44884D01*
Y-86530D01*
X45085D01*
Y-86328D01*
X45487D01*
Y-86530D01*
Y-86731D01*
X45890D01*
Y-86932D01*
Y-87133D01*
X46493D01*
Y-86932D01*
Y-86731D01*
Y-86530D01*
X47096D01*
Y-86328D01*
Y-86127D01*
X46895D01*
Y-85926D01*
X46694D01*
Y-85725D01*
X46493D01*
Y-85524D01*
X46292D01*
Y-85323D01*
X46694D01*
Y-85524D01*
X46895D01*
Y-85725D01*
X47297D01*
Y-85926D01*
X47699D01*
Y-85725D01*
X47901D01*
Y-85524D01*
X47096D01*
Y-85323D01*
X46895D01*
Y-85122D01*
Y-84921D01*
X47096D01*
Y-84720D01*
Y-84519D01*
Y-84318D01*
X47498D01*
Y-84519D01*
D02*
G37*
G36*
X47699Y-87334D02*
Y-87535D01*
X47498D01*
Y-87736D01*
X46895D01*
Y-87535D01*
X47096D01*
Y-87334D01*
X47297D01*
Y-87133D01*
X47699D01*
Y-87334D01*
D02*
G37*
G36*
X17335Y-82910D02*
X17134D01*
Y-83111D01*
X16933D01*
Y-83312D01*
Y-83513D01*
Y-83714D01*
X17134D01*
Y-83916D01*
X17536D01*
Y-83714D01*
X17737D01*
Y-83513D01*
X18139D01*
Y-83714D01*
X17938D01*
Y-83916D01*
Y-84116D01*
X18341D01*
Y-84318D01*
Y-84519D01*
Y-84720D01*
X18743D01*
Y-84921D01*
X18542D01*
Y-85122D01*
Y-85323D01*
X18743D01*
Y-85524D01*
X19547D01*
Y-85725D01*
X19748D01*
Y-85926D01*
Y-86127D01*
X19547D01*
Y-86328D01*
Y-86530D01*
X19748D01*
Y-86731D01*
X19949D01*
Y-86932D01*
X20553D01*
Y-87133D01*
Y-87334D01*
X20955D01*
Y-87535D01*
X21156D01*
Y-87334D01*
X20955D01*
Y-87133D01*
X20754D01*
Y-86932D01*
Y-86731D01*
Y-86530D01*
X21357D01*
Y-86731D01*
Y-86932D01*
Y-87133D01*
Y-87334D01*
Y-87535D01*
Y-87736D01*
Y-87937D01*
X21156D01*
Y-88138D01*
X20352D01*
Y-87937D01*
Y-87736D01*
X20150D01*
Y-87535D01*
X19949D01*
Y-87334D01*
X19748D01*
Y-87133D01*
X19547D01*
Y-86932D01*
X19346D01*
Y-86731D01*
X19145D01*
Y-86530D01*
X18944D01*
Y-86328D01*
X18743D01*
Y-86127D01*
Y-85926D01*
X18542D01*
Y-85725D01*
X18341D01*
Y-85524D01*
X18139D01*
Y-85323D01*
Y-85122D01*
X17938D01*
Y-84921D01*
X17737D01*
Y-84720D01*
Y-84519D01*
X17536D01*
Y-84318D01*
X16933D01*
Y-84116D01*
X16732D01*
Y-83916D01*
X16531D01*
Y-83714D01*
Y-83513D01*
Y-83312D01*
Y-83111D01*
Y-82910D01*
X16732D01*
Y-82709D01*
X17335D01*
Y-82910D01*
D02*
G37*
G36*
X23167Y-88540D02*
X23368D01*
Y-88742D01*
X23167D01*
Y-88943D01*
X22966D01*
Y-88742D01*
X22764D01*
Y-88540D01*
Y-88339D01*
X23167D01*
Y-88540D01*
D02*
G37*
G36*
X43879Y-87736D02*
X44080D01*
Y-87937D01*
X44281D01*
Y-88138D01*
Y-88339D01*
X44482D01*
Y-88540D01*
X44683D01*
Y-88742D01*
Y-88943D01*
Y-89144D01*
X44482D01*
Y-88943D01*
Y-88742D01*
X44281D01*
Y-88540D01*
X44080D01*
Y-88339D01*
X43879D01*
Y-88138D01*
X43678D01*
Y-87937D01*
Y-87736D01*
Y-87535D01*
X43879D01*
Y-87736D01*
D02*
G37*
G36*
X43477Y-88138D02*
Y-88339D01*
X43678D01*
Y-88540D01*
Y-88742D01*
X43879D01*
Y-88943D01*
Y-89144D01*
Y-89345D01*
Y-89546D01*
Y-89747D01*
X43678D01*
Y-89948D01*
Y-90149D01*
Y-90350D01*
X43477D01*
Y-90551D01*
X42873D01*
Y-90350D01*
X42471D01*
Y-90551D01*
X41868D01*
Y-90752D01*
X41667D01*
Y-90954D01*
X40862D01*
Y-91155D01*
X40661D01*
Y-91356D01*
X40259D01*
Y-91155D01*
X40058D01*
Y-90954D01*
Y-90752D01*
X40661D01*
Y-90551D01*
Y-90350D01*
X40460D01*
Y-90149D01*
X40259D01*
Y-89948D01*
X40460D01*
Y-89747D01*
X40661D01*
Y-89948D01*
X40862D01*
Y-90149D01*
X41063D01*
Y-90350D01*
X41667D01*
Y-90149D01*
Y-89948D01*
Y-89747D01*
X41265D01*
Y-89546D01*
Y-89345D01*
X41667D01*
Y-89546D01*
Y-89747D01*
X41868D01*
Y-89948D01*
X42471D01*
Y-89747D01*
Y-89546D01*
X42270D01*
Y-89345D01*
X42471D01*
Y-89144D01*
X42270D01*
Y-88943D01*
X42672D01*
Y-89144D01*
X43074D01*
Y-89345D01*
X43477D01*
Y-89144D01*
X43678D01*
Y-88943D01*
X43477D01*
Y-88742D01*
X43275D01*
Y-88540D01*
Y-88339D01*
X43074D01*
Y-88138D01*
X42873D01*
Y-87937D01*
X43477D01*
Y-88138D01*
D02*
G37*
G36*
X35232Y-54959D02*
X36237D01*
Y-55160D01*
X37042D01*
Y-55361D01*
X37645D01*
Y-55562D01*
X38248D01*
Y-55763D01*
X38851D01*
Y-55964D01*
X39455D01*
Y-56165D01*
X39857D01*
Y-56367D01*
X40259D01*
Y-56568D01*
X40862D01*
Y-56769D01*
X41265D01*
Y-56970D01*
X41466D01*
Y-57171D01*
X41868D01*
Y-57372D01*
X42270D01*
Y-57573D01*
X42672D01*
Y-57774D01*
X42873D01*
Y-57975D01*
X43074D01*
Y-58176D01*
X43477D01*
Y-58377D01*
X43678D01*
Y-58578D01*
X44080D01*
Y-58780D01*
X44281D01*
Y-58981D01*
X44683D01*
Y-59182D01*
Y-59383D01*
X44884D01*
Y-59584D01*
X45085D01*
Y-59785D01*
X45487D01*
Y-59986D01*
X45689D01*
Y-60187D01*
X45890D01*
Y-60388D01*
Y-60589D01*
X46292D01*
Y-60790D01*
Y-60992D01*
X46493D01*
Y-61193D01*
X46694D01*
Y-61394D01*
Y-61595D01*
X46895D01*
Y-61796D01*
X47096D01*
Y-61997D01*
X47297D01*
Y-62198D01*
X47498D01*
Y-62399D01*
Y-62600D01*
X47699D01*
Y-62801D01*
Y-63002D01*
X47901D01*
Y-63204D01*
X48102D01*
Y-63404D01*
Y-63606D01*
X48303D01*
Y-63807D01*
Y-64008D01*
X48504D01*
Y-64209D01*
Y-64410D01*
X48705D01*
Y-64611D01*
Y-64812D01*
X48906D01*
Y-65013D01*
Y-65214D01*
X49107D01*
Y-65415D01*
Y-65616D01*
X49308D01*
Y-65818D01*
Y-66019D01*
X49509D01*
Y-66220D01*
Y-66421D01*
Y-66622D01*
X49710D01*
Y-66823D01*
Y-67024D01*
Y-67225D01*
X49911D01*
Y-67426D01*
Y-67627D01*
Y-67828D01*
X50112D01*
Y-68030D01*
Y-68231D01*
Y-68432D01*
X50314D01*
Y-68633D01*
Y-68834D01*
Y-69035D01*
Y-69236D01*
Y-69437D01*
Y-69638D01*
X50515D01*
Y-69839D01*
Y-70040D01*
Y-70241D01*
Y-70443D01*
Y-70644D01*
Y-70845D01*
Y-71046D01*
Y-71247D01*
Y-71448D01*
Y-71649D01*
Y-71850D01*
Y-72051D01*
Y-72252D01*
Y-72453D01*
Y-72655D01*
Y-72856D01*
Y-73057D01*
Y-73258D01*
Y-73459D01*
Y-73660D01*
Y-73861D01*
Y-74062D01*
Y-74263D01*
Y-74464D01*
Y-74665D01*
Y-74866D01*
Y-75068D01*
Y-75269D01*
X50314D01*
Y-75470D01*
Y-75671D01*
Y-75872D01*
Y-76073D01*
Y-76274D01*
X50112D01*
Y-76475D01*
Y-76676D01*
Y-76877D01*
Y-77078D01*
X49911D01*
Y-77280D01*
Y-77481D01*
Y-77682D01*
Y-77883D01*
X49710D01*
Y-78084D01*
Y-78285D01*
Y-78486D01*
X49509D01*
Y-78687D01*
Y-78888D01*
Y-79089D01*
X49308D01*
Y-79290D01*
Y-79492D01*
X49107D01*
Y-79693D01*
Y-79894D01*
X48906D01*
Y-80095D01*
Y-80296D01*
X48705D01*
Y-80497D01*
Y-80698D01*
Y-80899D01*
X48504D01*
Y-81100D01*
X48303D01*
Y-81301D01*
Y-81502D01*
X48102D01*
Y-81704D01*
Y-81905D01*
X47901D01*
Y-82106D01*
X47699D01*
Y-82307D01*
Y-82508D01*
X47498D01*
Y-82709D01*
X47297D01*
Y-82910D01*
X47096D01*
Y-83111D01*
Y-83312D01*
X46895D01*
Y-83513D01*
X46694D01*
Y-83714D01*
X46493D01*
Y-83916D01*
X46292D01*
Y-84116D01*
Y-84318D01*
X46091D01*
Y-84519D01*
X45890D01*
Y-84720D01*
X45689D01*
Y-84921D01*
X45487D01*
Y-85122D01*
X45286D01*
Y-85323D01*
X45085D01*
Y-85524D01*
X44683D01*
Y-85725D01*
Y-85926D01*
X44281D01*
Y-86127D01*
X44080D01*
Y-86328D01*
X43879D01*
Y-86530D01*
X43678D01*
Y-86731D01*
X43275D01*
Y-86932D01*
X43074D01*
Y-87133D01*
X42672D01*
Y-87334D01*
X42471D01*
Y-87535D01*
X42069D01*
Y-87736D01*
X41868D01*
Y-87937D01*
X41466D01*
Y-88138D01*
X41063D01*
Y-88339D01*
X40862D01*
Y-88540D01*
X40460D01*
Y-88742D01*
X39857D01*
Y-88943D01*
X39455D01*
Y-89144D01*
X38851D01*
Y-89345D01*
X38047D01*
Y-89546D01*
X37243D01*
Y-89747D01*
X36439D01*
Y-89948D01*
X35232D01*
Y-90149D01*
X30607D01*
Y-89948D01*
X29400D01*
Y-89747D01*
X28596D01*
Y-89546D01*
X27792D01*
Y-89345D01*
X27188D01*
Y-89144D01*
X26585D01*
Y-88943D01*
X26183D01*
Y-88742D01*
X25580D01*
Y-88540D01*
X25178D01*
Y-88339D01*
X24976D01*
Y-88138D01*
X24574D01*
Y-87937D01*
X24172D01*
Y-87736D01*
X23770D01*
Y-87535D01*
X23368D01*
Y-87334D01*
X23167D01*
Y-87133D01*
X22764D01*
Y-86932D01*
X22563D01*
Y-86731D01*
X22362D01*
Y-86530D01*
X22161D01*
Y-86328D01*
X21759D01*
Y-86127D01*
X21558D01*
Y-85926D01*
X21357D01*
Y-85725D01*
X21156D01*
Y-85524D01*
X20955D01*
Y-85323D01*
X20754D01*
Y-85122D01*
X20553D01*
Y-84921D01*
X20352D01*
Y-84720D01*
X20150D01*
Y-84519D01*
X19949D01*
Y-84318D01*
X19748D01*
Y-84116D01*
X19547D01*
Y-83916D01*
X19346D01*
Y-83714D01*
X19145D01*
Y-83513D01*
Y-83312D01*
X18944D01*
Y-83111D01*
X18743D01*
Y-82910D01*
Y-82709D01*
X18542D01*
Y-82508D01*
X18341D01*
Y-82307D01*
X18139D01*
Y-82106D01*
Y-81905D01*
X17938D01*
Y-81704D01*
Y-81502D01*
X17737D01*
Y-81301D01*
Y-81100D01*
X17536D01*
Y-80899D01*
Y-80698D01*
X17335D01*
Y-80497D01*
Y-80296D01*
X17134D01*
Y-80095D01*
X16933D01*
Y-79894D01*
Y-79693D01*
Y-79492D01*
X16732D01*
Y-79290D01*
Y-79089D01*
X16531D01*
Y-78888D01*
Y-78687D01*
Y-78486D01*
X16330D01*
Y-78285D01*
Y-78084D01*
Y-77883D01*
X16129D01*
Y-77682D01*
Y-77481D01*
Y-77280D01*
X15928D01*
Y-77078D01*
Y-76877D01*
Y-76676D01*
X15726D01*
Y-76475D01*
Y-76274D01*
Y-76073D01*
Y-75872D01*
X15525D01*
Y-75671D01*
Y-75470D01*
Y-75269D01*
Y-75068D01*
Y-74866D01*
Y-74665D01*
X15324D01*
Y-74464D01*
Y-74263D01*
Y-74062D01*
Y-73861D01*
Y-73660D01*
Y-73459D01*
Y-73258D01*
Y-73057D01*
Y-72856D01*
Y-72655D01*
Y-72453D01*
Y-72252D01*
Y-72051D01*
Y-71850D01*
Y-71649D01*
Y-71448D01*
Y-71247D01*
Y-71046D01*
Y-70845D01*
Y-70644D01*
Y-70443D01*
Y-70241D01*
X15525D01*
Y-70040D01*
Y-69839D01*
Y-69638D01*
Y-69437D01*
Y-69236D01*
X15726D01*
Y-69035D01*
Y-68834D01*
Y-68633D01*
X15928D01*
Y-68432D01*
Y-68231D01*
Y-68030D01*
Y-67828D01*
X16129D01*
Y-67627D01*
Y-67426D01*
Y-67225D01*
X16330D01*
Y-67024D01*
Y-66823D01*
Y-66622D01*
X16531D01*
Y-66421D01*
Y-66220D01*
Y-66019D01*
X16732D01*
Y-65818D01*
Y-65616D01*
X16933D01*
Y-65415D01*
Y-65214D01*
X17134D01*
Y-65013D01*
Y-64812D01*
X17335D01*
Y-64611D01*
Y-64410D01*
X17536D01*
Y-64209D01*
Y-64008D01*
X17737D01*
Y-63807D01*
Y-63606D01*
X17938D01*
Y-63404D01*
Y-63204D01*
X18139D01*
Y-63002D01*
Y-62801D01*
X18341D01*
Y-62600D01*
X18542D01*
Y-62399D01*
X18743D01*
Y-62198D01*
Y-61997D01*
X18944D01*
Y-61796D01*
X19145D01*
Y-61595D01*
Y-61394D01*
X19346D01*
Y-61193D01*
X19547D01*
Y-60992D01*
X19748D01*
Y-60790D01*
Y-60589D01*
X19949D01*
Y-60388D01*
X20150D01*
Y-60187D01*
X20352D01*
Y-59986D01*
X20553D01*
Y-59785D01*
X20754D01*
Y-59584D01*
X20955D01*
Y-59383D01*
X21357D01*
Y-59182D01*
X21558D01*
Y-58981D01*
X21759D01*
Y-58780D01*
X22161D01*
Y-58578D01*
X22362D01*
Y-58377D01*
X22563D01*
Y-58176D01*
X22966D01*
Y-57975D01*
X23167D01*
Y-57774D01*
X23368D01*
Y-57573D01*
X23770D01*
Y-57372D01*
X24172D01*
Y-57171D01*
X24574D01*
Y-56970D01*
X24775D01*
Y-56769D01*
X25178D01*
Y-56568D01*
X25580D01*
Y-56367D01*
X26183D01*
Y-56165D01*
X26585D01*
Y-55964D01*
X27188D01*
Y-55763D01*
X27792D01*
Y-55562D01*
X28395D01*
Y-55361D01*
X28998D01*
Y-55160D01*
X29803D01*
Y-54959D01*
X30808D01*
Y-54758D01*
X35232D01*
Y-54959D01*
D02*
G37*
G36*
X22563Y-88943D02*
X22362D01*
Y-89144D01*
X22161D01*
Y-89345D01*
X22362D01*
Y-89546D01*
X22563D01*
Y-89747D01*
X23167D01*
Y-89546D01*
X22966D01*
Y-89345D01*
X23167D01*
Y-89144D01*
X23368D01*
Y-89345D01*
X23971D01*
Y-89546D01*
Y-89747D01*
Y-89948D01*
X24574D01*
Y-89747D01*
X24775D01*
Y-89546D01*
X24976D01*
Y-89747D01*
X25379D01*
Y-89948D01*
X25580D01*
Y-90149D01*
Y-90350D01*
X25379D01*
Y-90551D01*
X25580D01*
Y-90752D01*
X24373D01*
Y-90551D01*
X23971D01*
Y-90350D01*
X23770D01*
Y-90149D01*
X23569D01*
Y-89948D01*
X23368D01*
Y-90149D01*
X23167D01*
Y-90350D01*
Y-90551D01*
X23569D01*
Y-90752D01*
X23770D01*
Y-90954D01*
X23368D01*
Y-90752D01*
X22966D01*
Y-90551D01*
X22764D01*
Y-90350D01*
X22563D01*
Y-90149D01*
X22362D01*
Y-89948D01*
X21960D01*
Y-89747D01*
Y-89546D01*
Y-89345D01*
Y-89144D01*
Y-88943D01*
X22161D01*
Y-88742D01*
X22563D01*
Y-88943D01*
D02*
G37*
G36*
X37444Y-90551D02*
Y-90752D01*
Y-90954D01*
Y-91155D01*
Y-91356D01*
X37645D01*
Y-91557D01*
Y-91758D01*
X38047D01*
Y-91557D01*
X38449D01*
Y-91356D01*
Y-91155D01*
X39053D01*
Y-90954D01*
X39254D01*
Y-90752D01*
X39656D01*
Y-90954D01*
Y-91155D01*
Y-91356D01*
Y-91557D01*
Y-91758D01*
X39053D01*
Y-91959D01*
X38449D01*
Y-92160D01*
X36640D01*
Y-91959D01*
Y-91758D01*
Y-91557D01*
X36841D01*
Y-91356D01*
Y-91155D01*
X37042D01*
Y-90954D01*
Y-90752D01*
X36439D01*
Y-90551D01*
X36640D01*
Y-90350D01*
X37444D01*
Y-90551D01*
D02*
G37*
G36*
X35232Y-91959D02*
X35433D01*
Y-92160D01*
X34428D01*
Y-91959D01*
X34830D01*
Y-91758D01*
X35232D01*
Y-91959D01*
D02*
G37*
G36*
X27993Y-90149D02*
X28194D01*
Y-90350D01*
Y-90551D01*
X27993D01*
Y-90752D01*
Y-90954D01*
Y-91155D01*
X27792D01*
Y-91356D01*
X27993D01*
Y-91557D01*
X28395D01*
Y-91356D01*
X28194D01*
Y-91155D01*
X29602D01*
Y-91356D01*
X29803D01*
Y-91557D01*
Y-91758D01*
X29602D01*
Y-91959D01*
X30205D01*
Y-91758D01*
X30406D01*
Y-91557D01*
X31210D01*
Y-91758D01*
Y-91959D01*
X31411D01*
Y-92160D01*
Y-92361D01*
X31210D01*
Y-92562D01*
X30406D01*
Y-92361D01*
X30205D01*
Y-92562D01*
X29803D01*
Y-92361D01*
X29199D01*
Y-92160D01*
X27993D01*
Y-91959D01*
X27591D01*
Y-91758D01*
X27188D01*
Y-91557D01*
X26786D01*
Y-91356D01*
Y-91155D01*
Y-90954D01*
X26987D01*
Y-90752D01*
X27591D01*
Y-90551D01*
Y-90350D01*
X27390D01*
Y-90149D01*
X27188D01*
Y-89948D01*
X27993D01*
Y-90149D01*
D02*
G37*
G36*
X31813Y-90954D02*
X32015D01*
Y-91155D01*
Y-91356D01*
Y-91557D01*
Y-91758D01*
Y-91959D01*
Y-92160D01*
X32417D01*
Y-91959D01*
Y-91758D01*
X32618D01*
Y-91557D01*
X33221D01*
Y-91758D01*
X34227D01*
Y-91959D01*
Y-92160D01*
X33824D01*
Y-92361D01*
X33623D01*
Y-92562D01*
X33221D01*
Y-92763D01*
X32015D01*
Y-92562D01*
X31813D01*
Y-92361D01*
Y-92160D01*
Y-91959D01*
X31612D01*
Y-91758D01*
Y-91557D01*
Y-91356D01*
Y-91155D01*
Y-90954D01*
Y-90752D01*
X31813D01*
Y-90954D01*
D02*
G37*
G36*
X33623Y-93166D02*
Y-93367D01*
X33221D01*
Y-93166D01*
X33020D01*
Y-92964D01*
X33623D01*
Y-93166D01*
D02*
G37*
%LPC*%
G36*
X35634Y-52948D02*
X35232D01*
Y-53149D01*
Y-53350D01*
X35433D01*
Y-53149D01*
X35634D01*
Y-52948D01*
D02*
G37*
G36*
X26786Y-53752D02*
X26585D01*
Y-53953D01*
X26786D01*
Y-53752D01*
D02*
G37*
G36*
X26987Y-54155D02*
X26786D01*
Y-54356D01*
X26585D01*
Y-54557D01*
X26987D01*
Y-54356D01*
Y-54155D01*
D02*
G37*
G36*
X25580Y-54356D02*
X25178D01*
Y-54557D01*
X25580D01*
Y-54356D01*
D02*
G37*
G36*
X25781Y-54758D02*
X25379D01*
Y-54959D01*
X25781D01*
Y-54758D01*
D02*
G37*
G36*
X31612Y-52948D02*
X31009D01*
Y-53149D01*
Y-53350D01*
X31210D01*
Y-53551D01*
X31612D01*
Y-53350D01*
Y-53149D01*
Y-52948D01*
D02*
G37*
G36*
Y-53953D02*
X31210D01*
Y-54155D01*
X31612D01*
Y-53953D01*
D02*
G37*
G36*
X43074Y-55964D02*
X42672D01*
Y-56165D01*
X43074D01*
Y-55964D01*
D02*
G37*
G36*
X22362D02*
X21960D01*
Y-56165D01*
Y-56367D01*
X22161D01*
Y-56568D01*
X22563D01*
Y-56367D01*
Y-56165D01*
X22362D01*
Y-55964D01*
D02*
G37*
G36*
X22966Y-56769D02*
X22563D01*
Y-56970D01*
X22966D01*
Y-56769D01*
D02*
G37*
G36*
X18139Y-59785D02*
X17737D01*
Y-59986D01*
Y-60187D01*
X17938D01*
Y-60388D01*
X18341D01*
Y-60187D01*
Y-59986D01*
X18139D01*
Y-59785D01*
D02*
G37*
G36*
X50716Y-63606D02*
X50515D01*
Y-63807D01*
Y-64008D01*
X50716D01*
Y-63807D01*
Y-63606D01*
D02*
G37*
G36*
X50314Y-64008D02*
X50112D01*
Y-64209D01*
Y-64410D01*
X50314D01*
Y-64209D01*
Y-64008D01*
D02*
G37*
G36*
X51721Y-66019D02*
X51520D01*
Y-66220D01*
X51721D01*
Y-66019D01*
D02*
G37*
G36*
X51118D02*
X50917D01*
Y-66220D01*
Y-66421D01*
X51319D01*
Y-66220D01*
X51118D01*
Y-66019D01*
D02*
G37*
G36*
X14520Y-66622D02*
X14319D01*
Y-66823D01*
X14520D01*
Y-66622D01*
D02*
G37*
G36*
X14922D02*
X14721D01*
Y-66823D01*
Y-67024D01*
X14922D01*
Y-66823D01*
Y-66622D01*
D02*
G37*
G36*
X35433Y-56165D02*
X30808D01*
Y-56367D01*
X29400D01*
Y-56568D01*
X28596D01*
Y-56769D01*
X27993D01*
Y-56970D01*
X27390D01*
Y-57171D01*
X26987D01*
Y-57372D01*
X26384D01*
Y-57573D01*
X25982D01*
Y-57774D01*
X25580D01*
Y-57975D01*
X25178D01*
Y-58176D01*
X24775D01*
Y-58377D01*
X24574D01*
Y-58578D01*
X24172D01*
Y-58780D01*
X23971D01*
Y-58981D01*
X23569D01*
Y-59182D01*
X23368D01*
Y-59383D01*
X22966D01*
Y-59584D01*
X22764D01*
Y-59785D01*
X22563D01*
Y-59986D01*
X22362D01*
Y-60187D01*
X22161D01*
Y-60388D01*
X21759D01*
Y-60589D01*
X21558D01*
Y-60790D01*
X21357D01*
Y-60992D01*
Y-61193D01*
X21156D01*
Y-61394D01*
X20955D01*
Y-61595D01*
X20754D01*
Y-61796D01*
X20553D01*
Y-61997D01*
X20352D01*
Y-62198D01*
X20150D01*
Y-62399D01*
X19949D01*
Y-62600D01*
Y-62801D01*
X19748D01*
Y-63002D01*
X19547D01*
Y-63204D01*
Y-63404D01*
X19346D01*
Y-63606D01*
X19145D01*
Y-63807D01*
Y-64008D01*
X18944D01*
Y-64209D01*
X18743D01*
Y-64410D01*
Y-64611D01*
X18542D01*
Y-64812D01*
Y-65013D01*
X18341D01*
Y-65214D01*
Y-65415D01*
X18139D01*
Y-65616D01*
Y-65818D01*
X17938D01*
Y-66019D01*
Y-66220D01*
X17737D01*
Y-66421D01*
Y-66622D01*
Y-66823D01*
X17536D01*
Y-67024D01*
Y-67225D01*
Y-67426D01*
X17335D01*
Y-67627D01*
Y-67828D01*
Y-68030D01*
X17134D01*
Y-68231D01*
Y-68432D01*
Y-68633D01*
Y-68834D01*
X16933D01*
Y-69035D01*
Y-69236D01*
Y-69437D01*
Y-69638D01*
Y-69839D01*
X16732D01*
Y-70040D01*
Y-70241D01*
Y-70443D01*
Y-70644D01*
Y-70845D01*
Y-71046D01*
Y-71247D01*
Y-71448D01*
Y-71649D01*
Y-71850D01*
Y-72051D01*
X16531D01*
Y-72252D01*
Y-72453D01*
Y-72655D01*
X16732D01*
Y-72856D01*
Y-73057D01*
Y-73258D01*
Y-73459D01*
Y-73660D01*
Y-73861D01*
Y-74062D01*
Y-74263D01*
Y-74464D01*
Y-74665D01*
Y-74866D01*
Y-75068D01*
Y-75269D01*
X16933D01*
Y-75470D01*
Y-75671D01*
Y-75872D01*
Y-76073D01*
Y-76274D01*
X17134D01*
Y-76475D01*
Y-76676D01*
Y-76877D01*
Y-77078D01*
X17335D01*
Y-77280D01*
Y-77481D01*
Y-77682D01*
X17536D01*
Y-77883D01*
Y-78084D01*
Y-78285D01*
X17737D01*
Y-78486D01*
Y-78687D01*
X17938D01*
Y-78888D01*
Y-79089D01*
Y-79290D01*
X18139D01*
Y-79492D01*
Y-79693D01*
X18341D01*
Y-79894D01*
Y-80095D01*
X18542D01*
Y-80296D01*
Y-80497D01*
X18743D01*
Y-80698D01*
Y-80899D01*
X18944D01*
Y-81100D01*
X19145D01*
Y-81301D01*
Y-81502D01*
X19346D01*
Y-81704D01*
Y-81905D01*
X19547D01*
Y-82106D01*
X19748D01*
Y-82307D01*
X19949D01*
Y-82508D01*
X20150D01*
Y-82709D01*
Y-82910D01*
X20352D01*
Y-83111D01*
X20553D01*
Y-83312D01*
X20754D01*
Y-83513D01*
Y-83714D01*
X20955D01*
Y-83916D01*
X21156D01*
Y-84116D01*
X21357D01*
Y-84318D01*
X21558D01*
Y-84519D01*
X21759D01*
Y-84720D01*
X21960D01*
Y-84921D01*
X22362D01*
Y-85122D01*
X22563D01*
Y-85323D01*
X22764D01*
Y-85524D01*
X22966D01*
Y-85725D01*
X23368D01*
Y-85926D01*
X23569D01*
Y-86127D01*
X23971D01*
Y-86328D01*
X24172D01*
Y-86530D01*
X24574D01*
Y-86731D01*
X24775D01*
Y-86932D01*
X25178D01*
Y-87133D01*
X25580D01*
Y-87334D01*
X25982D01*
Y-87535D01*
X26585D01*
Y-87736D01*
X26987D01*
Y-87937D01*
X27390D01*
Y-88138D01*
X27993D01*
Y-88339D01*
X28596D01*
Y-88540D01*
X29602D01*
Y-88742D01*
X30607D01*
Y-88943D01*
X35433D01*
Y-88742D01*
X36640D01*
Y-88540D01*
X37444D01*
Y-88339D01*
X38047D01*
Y-88138D01*
X38650D01*
Y-87937D01*
X39254D01*
Y-87736D01*
X39656D01*
Y-87535D01*
X40058D01*
Y-87334D01*
X40460D01*
Y-87133D01*
X40862D01*
Y-86932D01*
X41265D01*
Y-86731D01*
X41466D01*
Y-86530D01*
X41868D01*
Y-86328D01*
X42069D01*
Y-86127D01*
X42471D01*
Y-85926D01*
X42873D01*
Y-85725D01*
X43074D01*
Y-85524D01*
X43275D01*
Y-85323D01*
X43477D01*
Y-85122D01*
X43678D01*
Y-84921D01*
X43879D01*
Y-84720D01*
X44281D01*
Y-84519D01*
X44482D01*
Y-84318D01*
X44683D01*
Y-84116D01*
Y-83916D01*
X44884D01*
Y-83714D01*
X45286D01*
Y-83513D01*
Y-83312D01*
X45487D01*
Y-83111D01*
X45689D01*
Y-82910D01*
X45890D01*
Y-82709D01*
X46091D01*
Y-82508D01*
Y-82307D01*
X46292D01*
Y-82106D01*
X46493D01*
Y-81905D01*
X46694D01*
Y-81704D01*
Y-81502D01*
X46895D01*
Y-81301D01*
Y-81100D01*
X47096D01*
Y-80899D01*
X47297D01*
Y-80698D01*
Y-80497D01*
X47498D01*
Y-80296D01*
Y-80095D01*
X47699D01*
Y-79894D01*
Y-79693D01*
X47901D01*
Y-79492D01*
Y-79290D01*
X48102D01*
Y-79089D01*
Y-78888D01*
Y-78687D01*
X48303D01*
Y-78486D01*
Y-78285D01*
X48504D01*
Y-78084D01*
Y-77883D01*
Y-77682D01*
Y-77481D01*
X48705D01*
Y-77280D01*
Y-77078D01*
X48906D01*
Y-76877D01*
Y-76676D01*
Y-76475D01*
Y-76274D01*
X49107D01*
Y-76073D01*
Y-75872D01*
Y-75671D01*
Y-75470D01*
Y-75269D01*
X49308D01*
Y-75068D01*
Y-74866D01*
Y-74665D01*
Y-74464D01*
Y-74263D01*
Y-74062D01*
Y-73861D01*
Y-73660D01*
Y-73459D01*
Y-73258D01*
X49509D01*
Y-73057D01*
Y-72856D01*
Y-72655D01*
Y-72453D01*
Y-72252D01*
Y-72051D01*
X49308D01*
Y-71850D01*
Y-71649D01*
Y-71448D01*
Y-71247D01*
Y-71046D01*
Y-70845D01*
Y-70644D01*
Y-70443D01*
Y-70241D01*
Y-70040D01*
Y-69839D01*
X49107D01*
Y-69638D01*
Y-69437D01*
Y-69236D01*
Y-69035D01*
Y-68834D01*
X48906D01*
Y-68633D01*
Y-68432D01*
Y-68231D01*
Y-68030D01*
X48705D01*
Y-67828D01*
Y-67627D01*
Y-67426D01*
X48504D01*
Y-67225D01*
Y-67024D01*
Y-66823D01*
X48303D01*
Y-66622D01*
Y-66421D01*
Y-66220D01*
X48102D01*
Y-66019D01*
Y-65818D01*
X47901D01*
Y-65616D01*
Y-65415D01*
X47699D01*
Y-65214D01*
Y-65013D01*
X47498D01*
Y-64812D01*
Y-64611D01*
X47297D01*
Y-64410D01*
Y-64209D01*
X47096D01*
Y-64008D01*
X46895D01*
Y-63807D01*
Y-63606D01*
X46694D01*
Y-63404D01*
X46493D01*
Y-63204D01*
Y-63002D01*
X46292D01*
Y-62801D01*
X46091D01*
Y-62600D01*
X45890D01*
Y-62399D01*
Y-62198D01*
X45689D01*
Y-61997D01*
X45487D01*
Y-61796D01*
Y-61595D01*
X45085D01*
Y-61394D01*
X44884D01*
Y-61193D01*
X44683D01*
Y-60992D01*
Y-60790D01*
X44482D01*
Y-60589D01*
X44281D01*
Y-60388D01*
X44080D01*
Y-60187D01*
X43678D01*
Y-59986D01*
X43477D01*
Y-59785D01*
X43275D01*
Y-59584D01*
X43074D01*
Y-59383D01*
X42672D01*
Y-59182D01*
X42471D01*
Y-58981D01*
X42069D01*
Y-58780D01*
X41868D01*
Y-58578D01*
X41466D01*
Y-58377D01*
X41265D01*
Y-58176D01*
X40862D01*
Y-57975D01*
X40460D01*
Y-57774D01*
X40058D01*
Y-57573D01*
X39656D01*
Y-57372D01*
X39053D01*
Y-57171D01*
X38650D01*
Y-56970D01*
X38047D01*
Y-56769D01*
X37444D01*
Y-56568D01*
X36640D01*
Y-56367D01*
X35433D01*
Y-56165D01*
D02*
G37*
%LPD*%
G36*
X34830Y-56970D02*
X36237D01*
Y-57171D01*
X36841D01*
Y-57372D01*
X37846D01*
Y-57573D01*
X38449D01*
Y-57774D01*
X38851D01*
Y-57975D01*
X39254D01*
Y-58176D01*
X39656D01*
Y-58377D01*
X40058D01*
Y-58578D01*
X40460D01*
Y-58780D01*
X40862D01*
Y-58981D01*
X41265D01*
Y-59182D01*
X41466D01*
Y-59383D01*
X41868D01*
Y-59584D01*
X42069D01*
Y-59785D01*
X42471D01*
Y-59986D01*
X42672D01*
Y-60187D01*
X42873D01*
Y-60388D01*
X43275D01*
Y-60589D01*
X43477D01*
Y-60790D01*
X43678D01*
Y-60992D01*
X43879D01*
Y-61193D01*
X44080D01*
Y-61394D01*
X44281D01*
Y-61595D01*
X44482D01*
Y-61796D01*
X44683D01*
Y-61997D01*
X44884D01*
Y-62198D01*
Y-62399D01*
X45085D01*
Y-62600D01*
X45286D01*
Y-62801D01*
X45487D01*
Y-63002D01*
X45689D01*
Y-63204D01*
Y-63404D01*
X45890D01*
Y-63606D01*
X46091D01*
Y-63807D01*
Y-64008D01*
X46292D01*
Y-64209D01*
Y-64410D01*
X46493D01*
Y-64611D01*
X46694D01*
Y-64812D01*
Y-65013D01*
X46895D01*
Y-65214D01*
Y-65415D01*
X47096D01*
Y-65616D01*
Y-65818D01*
X47297D01*
Y-66019D01*
Y-66220D01*
X47498D01*
Y-66421D01*
Y-66622D01*
X47699D01*
Y-66823D01*
Y-67024D01*
Y-67225D01*
X47901D01*
Y-67426D01*
Y-67627D01*
Y-67828D01*
X48102D01*
Y-68030D01*
Y-68231D01*
Y-68432D01*
Y-68633D01*
X48303D01*
Y-68834D01*
Y-69035D01*
Y-69236D01*
Y-69437D01*
X48504D01*
Y-69638D01*
Y-69839D01*
Y-70040D01*
Y-70241D01*
Y-70443D01*
X48705D01*
Y-70644D01*
Y-70845D01*
Y-71046D01*
Y-71247D01*
Y-71448D01*
Y-71649D01*
Y-71850D01*
Y-72051D01*
Y-72252D01*
Y-72453D01*
Y-72655D01*
Y-72856D01*
Y-73057D01*
Y-73258D01*
Y-73459D01*
Y-73660D01*
Y-73861D01*
Y-74062D01*
Y-74263D01*
Y-74464D01*
X48504D01*
Y-74665D01*
Y-74866D01*
Y-75068D01*
Y-75269D01*
Y-75470D01*
Y-75671D01*
X48303D01*
Y-75872D01*
Y-76073D01*
Y-76274D01*
Y-76475D01*
Y-76676D01*
X48102D01*
Y-76877D01*
Y-77078D01*
Y-77280D01*
X47901D01*
Y-77481D01*
Y-77682D01*
Y-77883D01*
X47699D01*
Y-78084D01*
Y-78285D01*
Y-78486D01*
X47498D01*
Y-78687D01*
Y-78888D01*
X47297D01*
Y-79089D01*
Y-79290D01*
X47096D01*
Y-79492D01*
Y-79693D01*
X46895D01*
Y-79894D01*
Y-80095D01*
X46694D01*
Y-80296D01*
Y-80497D01*
X46493D01*
Y-80698D01*
X46292D01*
Y-80899D01*
Y-81100D01*
X46091D01*
Y-81301D01*
Y-81502D01*
X45890D01*
Y-81704D01*
X45689D01*
Y-81905D01*
X45487D01*
Y-82106D01*
Y-82307D01*
X45286D01*
Y-82508D01*
X45085D01*
Y-82709D01*
X44884D01*
Y-82910D01*
X44683D01*
Y-83111D01*
Y-83312D01*
X44482D01*
Y-83513D01*
X44281D01*
Y-83714D01*
X44080D01*
Y-83916D01*
X43879D01*
Y-84116D01*
X43678D01*
Y-84318D01*
X43477D01*
Y-84519D01*
X43074D01*
Y-84720D01*
X42873D01*
Y-84921D01*
X42672D01*
Y-85122D01*
X42270D01*
Y-85323D01*
X42069D01*
Y-85524D01*
X41868D01*
Y-85725D01*
X41466D01*
Y-85926D01*
X41265D01*
Y-86127D01*
X40862D01*
Y-86328D01*
X40460D01*
Y-86530D01*
X40058D01*
Y-86731D01*
X39656D01*
Y-86932D01*
X39254D01*
Y-87133D01*
X38851D01*
Y-87334D01*
X38248D01*
Y-87535D01*
X37645D01*
Y-87736D01*
X37042D01*
Y-87937D01*
X36237D01*
Y-88138D01*
X34830D01*
Y-88339D01*
X31009D01*
Y-88138D01*
X30004D01*
Y-87937D01*
X28998D01*
Y-87736D01*
X28395D01*
Y-87535D01*
X27792D01*
Y-87334D01*
X27188D01*
Y-87133D01*
X26786D01*
Y-86932D01*
X26384D01*
Y-86731D01*
X25982D01*
Y-86530D01*
X25580D01*
Y-86328D01*
X25178D01*
Y-86127D01*
X24775D01*
Y-85926D01*
X24373D01*
Y-85725D01*
X24172D01*
Y-85524D01*
X23971D01*
Y-85323D01*
X23569D01*
Y-85122D01*
X23368D01*
Y-84921D01*
X23167D01*
Y-84720D01*
X22966D01*
Y-84519D01*
X22563D01*
Y-84318D01*
X22362D01*
Y-84116D01*
X22161D01*
Y-83916D01*
X21960D01*
Y-83714D01*
X21759D01*
Y-83513D01*
X21558D01*
Y-83312D01*
X21357D01*
Y-83111D01*
X21156D01*
Y-82910D01*
Y-82709D01*
X20955D01*
Y-82508D01*
X20754D01*
Y-82307D01*
X20553D01*
Y-82106D01*
X20352D01*
Y-81905D01*
Y-81704D01*
X20150D01*
Y-81502D01*
X19949D01*
Y-81301D01*
Y-81100D01*
X19748D01*
Y-80899D01*
X19547D01*
Y-80698D01*
Y-80497D01*
X19346D01*
Y-80296D01*
Y-80095D01*
X19145D01*
Y-79894D01*
Y-79693D01*
X18944D01*
Y-79492D01*
Y-79290D01*
X18743D01*
Y-79089D01*
Y-78888D01*
X18542D01*
Y-78687D01*
Y-78486D01*
X18341D01*
Y-78285D01*
Y-78084D01*
Y-77883D01*
X18139D01*
Y-77682D01*
Y-77481D01*
Y-77280D01*
X17938D01*
Y-77078D01*
Y-76877D01*
Y-76676D01*
X17737D01*
Y-76475D01*
Y-76274D01*
Y-76073D01*
Y-75872D01*
X17536D01*
Y-75671D01*
Y-75470D01*
Y-75269D01*
Y-75068D01*
Y-74866D01*
Y-74665D01*
X17335D01*
Y-74464D01*
Y-74263D01*
Y-74062D01*
Y-73861D01*
Y-73660D01*
Y-73459D01*
Y-73258D01*
Y-73057D01*
Y-72856D01*
Y-72655D01*
Y-72453D01*
Y-72252D01*
Y-72051D01*
Y-71850D01*
Y-71649D01*
Y-71448D01*
Y-71247D01*
Y-71046D01*
Y-70845D01*
Y-70644D01*
Y-70443D01*
X17536D01*
Y-70241D01*
Y-70040D01*
Y-69839D01*
Y-69638D01*
Y-69437D01*
Y-69236D01*
X17737D01*
Y-69035D01*
Y-68834D01*
Y-68633D01*
Y-68432D01*
X17938D01*
Y-68231D01*
Y-68030D01*
Y-67828D01*
X18139D01*
Y-67627D01*
Y-67426D01*
Y-67225D01*
X18341D01*
Y-67024D01*
Y-66823D01*
Y-66622D01*
X18542D01*
Y-66421D01*
Y-66220D01*
X18743D01*
Y-66019D01*
Y-65818D01*
X18944D01*
Y-65616D01*
Y-65415D01*
X19145D01*
Y-65214D01*
Y-65013D01*
X19346D01*
Y-64812D01*
Y-64611D01*
X19547D01*
Y-64410D01*
Y-64209D01*
X19748D01*
Y-64008D01*
X19949D01*
Y-63807D01*
Y-63606D01*
X20150D01*
Y-63404D01*
X20352D01*
Y-63204D01*
Y-63002D01*
X20553D01*
Y-62801D01*
X20754D01*
Y-62600D01*
X20955D01*
Y-62399D01*
X21156D01*
Y-62198D01*
Y-61997D01*
X21357D01*
Y-61796D01*
X21558D01*
Y-61595D01*
X21759D01*
Y-61394D01*
X21960D01*
Y-61193D01*
X22161D01*
Y-60992D01*
X22362D01*
Y-60790D01*
X22563D01*
Y-60589D01*
X22764D01*
Y-60388D01*
X23167D01*
Y-60187D01*
X23368D01*
Y-59986D01*
X23569D01*
Y-59785D01*
X23971D01*
Y-59584D01*
X24172D01*
Y-59383D01*
X24574D01*
Y-59182D01*
X24775D01*
Y-58981D01*
X25178D01*
Y-58780D01*
X25580D01*
Y-58578D01*
X25982D01*
Y-58377D01*
X26384D01*
Y-58176D01*
X26786D01*
Y-57975D01*
X27188D01*
Y-57774D01*
X27792D01*
Y-57573D01*
X28395D01*
Y-57372D01*
X28998D01*
Y-57171D01*
X30004D01*
Y-56970D01*
X31009D01*
Y-56769D01*
X34830D01*
Y-56970D01*
D02*
G37*
%LPC*%
G36*
X33020Y-57573D02*
X32417D01*
Y-57774D01*
Y-57975D01*
X32216D01*
Y-58176D01*
Y-58377D01*
X32015D01*
Y-58578D01*
Y-58780D01*
X31813D01*
Y-58981D01*
Y-59182D01*
X31612D01*
Y-59383D01*
Y-59584D01*
X31411D01*
Y-59785D01*
Y-59986D01*
Y-60187D01*
X34227D01*
Y-59986D01*
X34025D01*
Y-59785D01*
Y-59584D01*
X33824D01*
Y-59383D01*
Y-59182D01*
X33623D01*
Y-58981D01*
Y-58780D01*
X33422D01*
Y-58578D01*
Y-58377D01*
X33221D01*
Y-58176D01*
X33020D01*
Y-57975D01*
Y-57774D01*
Y-57573D01*
D02*
G37*
G36*
X28797Y-67024D02*
X28395D01*
Y-67225D01*
X27993D01*
Y-67426D01*
X27792D01*
Y-67627D01*
Y-67828D01*
Y-68030D01*
Y-68231D01*
X27591D01*
Y-68432D01*
Y-68633D01*
X27390D01*
Y-68834D01*
X26987D01*
Y-69035D01*
X26786D01*
Y-69236D01*
X27792D01*
Y-69437D01*
X27591D01*
Y-69638D01*
X28194D01*
Y-69437D01*
X27993D01*
Y-69236D01*
X28395D01*
Y-69437D01*
Y-69638D01*
X29400D01*
Y-69437D01*
X28797D01*
Y-69236D01*
X29400D01*
Y-69437D01*
X30004D01*
Y-69236D01*
Y-69035D01*
Y-68834D01*
Y-68633D01*
Y-68432D01*
X29803D01*
Y-68231D01*
Y-68030D01*
Y-67828D01*
X29602D01*
Y-67627D01*
X29400D01*
Y-67426D01*
X29199D01*
Y-67225D01*
X28797D01*
Y-67024D01*
D02*
G37*
G36*
X37243D02*
X36439D01*
Y-67225D01*
X36237D01*
Y-67426D01*
X36036D01*
Y-67627D01*
X35835D01*
Y-67828D01*
X35634D01*
Y-68030D01*
Y-68231D01*
X35433D01*
Y-68432D01*
Y-68633D01*
Y-68834D01*
Y-69035D01*
Y-69236D01*
Y-69437D01*
X36036D01*
Y-69638D01*
X36237D01*
Y-69839D01*
X35433D01*
Y-70040D01*
X35634D01*
Y-70241D01*
X36237D01*
Y-70443D01*
X36036D01*
Y-70644D01*
Y-70845D01*
X36237D01*
Y-70644D01*
X36439D01*
Y-70845D01*
Y-71046D01*
Y-71247D01*
X36841D01*
Y-71448D01*
X36439D01*
Y-71649D01*
X36640D01*
Y-71850D01*
Y-72051D01*
Y-72252D01*
Y-72453D01*
Y-72655D01*
Y-72856D01*
X36841D01*
Y-73057D01*
Y-73258D01*
Y-73459D01*
Y-73660D01*
Y-73861D01*
X37243D01*
Y-74062D01*
X36841D01*
Y-74263D01*
X36640D01*
Y-74464D01*
Y-74665D01*
X36439D01*
Y-74866D01*
X36237D01*
Y-75068D01*
X37042D01*
Y-75269D01*
X37645D01*
Y-75068D01*
X37846D01*
Y-75269D01*
X38851D01*
Y-75068D01*
X39053D01*
Y-74866D01*
X38248D01*
Y-74665D01*
X38047D01*
Y-74464D01*
Y-74263D01*
Y-74062D01*
X37846D01*
Y-73861D01*
X37645D01*
Y-74062D01*
X37444D01*
Y-73861D01*
Y-73660D01*
Y-73459D01*
X37645D01*
Y-73660D01*
X38047D01*
Y-73459D01*
X38248D01*
Y-73258D01*
Y-73057D01*
X38851D01*
Y-73258D01*
X39254D01*
Y-73459D01*
X39656D01*
Y-73660D01*
X39857D01*
Y-73861D01*
X40058D01*
Y-74062D01*
X40259D01*
Y-74263D01*
Y-74464D01*
X40460D01*
Y-74665D01*
X40661D01*
Y-74866D01*
X40862D01*
Y-75068D01*
X41063D01*
Y-75269D01*
Y-75470D01*
X28194D01*
Y-75269D01*
X28596D01*
Y-75068D01*
X29400D01*
Y-74866D01*
X28998D01*
Y-74665D01*
X28797D01*
Y-74464D01*
Y-74263D01*
X28596D01*
Y-74062D01*
X27993D01*
Y-73861D01*
X27591D01*
Y-74062D01*
Y-74263D01*
X27390D01*
Y-74464D01*
Y-74665D01*
Y-74866D01*
X26384D01*
Y-75068D01*
X26585D01*
Y-75269D01*
X27591D01*
Y-75068D01*
X27792D01*
Y-75269D01*
X27993D01*
Y-75470D01*
X26987D01*
Y-75671D01*
X26786D01*
Y-75470D01*
X24574D01*
Y-75269D01*
X24373D01*
Y-75068D01*
X24172D01*
Y-75269D01*
X23770D01*
Y-75068D01*
X23368D01*
Y-74866D01*
X23770D01*
Y-75068D01*
X23971D01*
Y-74866D01*
X24373D01*
Y-75068D01*
X24775D01*
Y-74866D01*
X24976D01*
Y-74665D01*
Y-74464D01*
X25178D01*
Y-74263D01*
Y-74062D01*
X24775D01*
Y-73861D01*
X25178D01*
Y-74062D01*
X25379D01*
Y-73861D01*
X25781D01*
Y-73660D01*
X25982D01*
Y-73459D01*
X26384D01*
Y-73258D01*
X27188D01*
Y-73459D01*
X27390D01*
Y-73660D01*
X27993D01*
Y-73861D01*
X28596D01*
Y-73660D01*
Y-73459D01*
X28797D01*
Y-73258D01*
X28596D01*
Y-73057D01*
X28797D01*
Y-72856D01*
Y-72655D01*
Y-72453D01*
Y-72252D01*
Y-72051D01*
Y-71850D01*
X28998D01*
Y-71649D01*
X28797D01*
Y-71448D01*
Y-71247D01*
X28998D01*
Y-71046D01*
X28797D01*
Y-70845D01*
X28998D01*
Y-70644D01*
X28797D01*
Y-70443D01*
X28395D01*
Y-70241D01*
X28797D01*
Y-70443D01*
X29199D01*
Y-70644D01*
Y-70845D01*
X29400D01*
Y-70644D01*
Y-70443D01*
X29199D01*
Y-70241D01*
X29803D01*
Y-70040D01*
Y-69839D01*
X28596D01*
Y-70040D01*
X28395D01*
Y-69839D01*
X27390D01*
Y-69638D01*
Y-69437D01*
X26183D01*
Y-69638D01*
Y-69839D01*
X25781D01*
Y-70040D01*
Y-70241D01*
Y-70443D01*
X26183D01*
Y-70644D01*
X25781D01*
Y-70443D01*
X25379D01*
Y-70644D01*
Y-70845D01*
Y-71046D01*
X25781D01*
Y-71247D01*
X25580D01*
Y-71448D01*
X25379D01*
Y-71247D01*
Y-71046D01*
X25178D01*
Y-71247D01*
X24976D01*
Y-71448D01*
Y-71649D01*
X24775D01*
Y-71850D01*
X24574D01*
Y-72051D01*
X24373D01*
Y-72252D01*
Y-72453D01*
X24172D01*
Y-72655D01*
X24775D01*
Y-72453D01*
X24976D01*
Y-72655D01*
X25178D01*
Y-72856D01*
X23770D01*
Y-73057D01*
X23971D01*
Y-73258D01*
X24172D01*
Y-73459D01*
X24373D01*
Y-73660D01*
X24172D01*
Y-73861D01*
X23971D01*
Y-73660D01*
Y-73459D01*
X23770D01*
Y-73258D01*
X23368D01*
Y-73459D01*
Y-73660D01*
Y-73861D01*
X23770D01*
Y-74062D01*
X23368D01*
Y-73861D01*
X22764D01*
Y-74062D01*
X22563D01*
Y-74263D01*
Y-74464D01*
X22161D01*
Y-74665D01*
Y-74866D01*
X22563D01*
Y-74665D01*
X22764D01*
Y-74866D01*
X22966D01*
Y-75068D01*
X23368D01*
Y-75269D01*
X22966D01*
Y-75068D01*
X22563D01*
Y-75269D01*
X22764D01*
Y-75470D01*
X23368D01*
Y-75671D01*
X22764D01*
Y-75470D01*
X22563D01*
Y-75671D01*
X22362D01*
Y-75470D01*
X22161D01*
Y-75671D01*
X21759D01*
Y-75872D01*
X21558D01*
Y-76073D01*
X21357D01*
Y-76274D01*
X21156D01*
Y-76475D01*
X20955D01*
Y-76676D01*
X20754D01*
Y-76877D01*
X20553D01*
Y-77078D01*
X20352D01*
Y-77280D01*
X20150D01*
Y-77481D01*
X19949D01*
Y-77682D01*
X19748D01*
Y-77883D01*
Y-78084D01*
Y-78285D01*
Y-78486D01*
Y-78687D01*
Y-78888D01*
Y-79089D01*
Y-79290D01*
Y-79492D01*
Y-79693D01*
Y-79894D01*
X19949D01*
Y-80095D01*
X25781D01*
Y-79894D01*
X26183D01*
Y-80095D01*
X26585D01*
Y-79894D01*
X45890D01*
Y-79693D01*
Y-79492D01*
Y-79290D01*
Y-79089D01*
Y-78888D01*
Y-78687D01*
Y-78486D01*
Y-78285D01*
Y-78084D01*
Y-77883D01*
Y-77682D01*
Y-77481D01*
X45487D01*
Y-77280D01*
Y-77078D01*
X45286D01*
Y-76877D01*
X45085D01*
Y-76676D01*
X44884D01*
Y-76475D01*
X44683D01*
Y-76274D01*
X44281D01*
Y-76073D01*
X44080D01*
Y-75872D01*
X43879D01*
Y-75671D01*
X43678D01*
Y-75470D01*
X42270D01*
Y-75269D01*
X42873D01*
Y-75068D01*
Y-74866D01*
X42672D01*
Y-74665D01*
Y-74464D01*
X42471D01*
Y-74263D01*
X42270D01*
Y-74062D01*
X42471D01*
Y-74263D01*
X42873D01*
Y-74464D01*
Y-74665D01*
X43275D01*
Y-74464D01*
Y-74263D01*
X42873D01*
Y-74062D01*
Y-73861D01*
X42672D01*
Y-73660D01*
X42270D01*
Y-73861D01*
X41667D01*
Y-73660D01*
X42069D01*
Y-73459D01*
Y-73258D01*
X41667D01*
Y-73459D01*
X41466D01*
Y-73660D01*
X41063D01*
Y-73459D01*
X40862D01*
Y-73258D01*
X41466D01*
Y-73057D01*
X41667D01*
Y-72856D01*
X41466D01*
Y-72655D01*
X41063D01*
Y-72453D01*
X41265D01*
Y-72252D01*
X41063D01*
Y-72051D01*
X40862D01*
Y-71850D01*
Y-71649D01*
X40661D01*
Y-71448D01*
X40460D01*
Y-71247D01*
X40259D01*
Y-71046D01*
X40058D01*
Y-70845D01*
Y-70644D01*
Y-70443D01*
X39455D01*
Y-70241D01*
X39656D01*
Y-70040D01*
Y-69839D01*
X38851D01*
Y-69638D01*
X39254D01*
Y-69437D01*
Y-69236D01*
X38650D01*
Y-69035D01*
X38449D01*
Y-68834D01*
X38248D01*
Y-68633D01*
X37846D01*
Y-68432D01*
Y-68231D01*
X37645D01*
Y-68030D01*
Y-67828D01*
Y-67627D01*
Y-67426D01*
X37444D01*
Y-67225D01*
X37243D01*
Y-67024D01*
D02*
G37*
G36*
X34428Y-60589D02*
X31210D01*
Y-60790D01*
X31009D01*
Y-60992D01*
Y-61193D01*
Y-61394D01*
Y-61595D01*
Y-61796D01*
Y-61997D01*
Y-62198D01*
Y-62399D01*
Y-62600D01*
Y-62801D01*
Y-63002D01*
Y-63204D01*
Y-63404D01*
Y-63606D01*
Y-63807D01*
Y-64008D01*
X30808D01*
Y-64209D01*
Y-64410D01*
Y-64611D01*
Y-64812D01*
Y-65013D01*
Y-65214D01*
Y-65415D01*
Y-65616D01*
Y-65818D01*
Y-66019D01*
Y-66220D01*
Y-66421D01*
Y-66622D01*
Y-66823D01*
Y-67024D01*
Y-67225D01*
X30607D01*
Y-67426D01*
Y-67627D01*
Y-67828D01*
Y-68030D01*
Y-68231D01*
Y-68432D01*
Y-68633D01*
Y-68834D01*
Y-69035D01*
Y-69236D01*
Y-69437D01*
Y-69638D01*
Y-69839D01*
Y-70040D01*
Y-70241D01*
Y-70443D01*
X30406D01*
Y-70644D01*
Y-70845D01*
Y-71046D01*
Y-71247D01*
Y-71448D01*
Y-71649D01*
Y-71850D01*
Y-72051D01*
Y-72252D01*
Y-72453D01*
Y-72655D01*
Y-72856D01*
Y-73057D01*
X30205D01*
Y-73258D01*
X30406D01*
Y-73459D01*
X30205D01*
Y-73660D01*
Y-73861D01*
Y-74062D01*
Y-74263D01*
Y-74464D01*
Y-74665D01*
X30406D01*
Y-74866D01*
X29602D01*
Y-75068D01*
Y-75269D01*
X30004D01*
Y-75068D01*
X30607D01*
Y-75269D01*
X34830D01*
Y-75068D01*
X35031D01*
Y-74866D01*
X35232D01*
Y-75068D01*
X36036D01*
Y-74866D01*
X35232D01*
Y-74665D01*
Y-74464D01*
X35433D01*
Y-74263D01*
X35232D01*
Y-74062D01*
Y-73861D01*
Y-73660D01*
Y-73459D01*
Y-73258D01*
Y-73057D01*
Y-72856D01*
Y-72655D01*
Y-72453D01*
Y-72252D01*
Y-72051D01*
Y-71850D01*
Y-71649D01*
Y-71448D01*
X35031D01*
Y-71247D01*
Y-71046D01*
Y-70845D01*
Y-70644D01*
Y-70443D01*
Y-70241D01*
Y-70040D01*
Y-69839D01*
Y-69638D01*
Y-69437D01*
Y-69236D01*
Y-69035D01*
X34830D01*
Y-68834D01*
Y-68633D01*
Y-68432D01*
Y-68231D01*
Y-68030D01*
Y-67828D01*
Y-67627D01*
Y-67426D01*
Y-67225D01*
Y-67024D01*
Y-66823D01*
Y-66622D01*
Y-66421D01*
Y-66220D01*
X34629D01*
Y-66019D01*
Y-65818D01*
Y-65616D01*
Y-65415D01*
Y-65214D01*
Y-65013D01*
Y-64812D01*
Y-64611D01*
Y-64410D01*
Y-64209D01*
Y-64008D01*
Y-63807D01*
Y-63606D01*
Y-63404D01*
Y-63204D01*
Y-63002D01*
X34428D01*
Y-62801D01*
Y-62600D01*
Y-62399D01*
Y-62198D01*
Y-61997D01*
Y-61796D01*
Y-61595D01*
Y-61394D01*
Y-61193D01*
Y-60992D01*
Y-60790D01*
Y-60589D01*
D02*
G37*
G36*
X26786Y-81502D02*
X26183D01*
Y-81704D01*
Y-81905D01*
X26786D01*
Y-81704D01*
Y-81502D01*
D02*
G37*
G36*
X40862D02*
X39656D01*
Y-81704D01*
Y-81905D01*
X39455D01*
Y-82106D01*
Y-82307D01*
X39254D01*
Y-82106D01*
Y-81905D01*
Y-81704D01*
X39053D01*
Y-81502D01*
X37846D01*
Y-81704D01*
X37645D01*
Y-81905D01*
Y-82106D01*
Y-82307D01*
Y-82508D01*
X38047D01*
Y-82709D01*
Y-82910D01*
X38650D01*
Y-83111D01*
X38851D01*
Y-83312D01*
X38650D01*
Y-83513D01*
X38047D01*
Y-83312D01*
Y-83111D01*
X37444D01*
Y-82910D01*
X37243D01*
Y-82709D01*
Y-82508D01*
Y-82307D01*
X37444D01*
Y-82106D01*
Y-81905D01*
X37243D01*
Y-81704D01*
X37042D01*
Y-81502D01*
X36036D01*
Y-81704D01*
X35835D01*
Y-81905D01*
X35634D01*
Y-82106D01*
Y-82307D01*
Y-82508D01*
X35835D01*
Y-82709D01*
X35634D01*
Y-82910D01*
Y-83111D01*
Y-83312D01*
Y-83513D01*
Y-83714D01*
X35835D01*
Y-83916D01*
X36036D01*
Y-84116D01*
X36841D01*
Y-83916D01*
X37243D01*
Y-83714D01*
X37444D01*
Y-83513D01*
X37645D01*
Y-83714D01*
Y-83916D01*
X38047D01*
Y-84116D01*
X38851D01*
Y-83916D01*
X39254D01*
Y-83714D01*
Y-83513D01*
X39455D01*
Y-83714D01*
X39656D01*
Y-83916D01*
X39857D01*
Y-84116D01*
X40661D01*
Y-83916D01*
X40862D01*
Y-83714D01*
X41063D01*
Y-83513D01*
Y-83312D01*
X41265D01*
Y-83111D01*
Y-82910D01*
Y-82709D01*
Y-82508D01*
Y-82307D01*
Y-82106D01*
X41063D01*
Y-81905D01*
Y-81704D01*
X40862D01*
Y-81502D01*
D02*
G37*
G36*
X25580Y-82106D02*
X24574D01*
Y-82307D01*
X24172D01*
Y-82508D01*
Y-82709D01*
Y-82910D01*
Y-83111D01*
X24574D01*
Y-83312D01*
X25178D01*
Y-83513D01*
X25379D01*
Y-83714D01*
X24775D01*
Y-83513D01*
X24574D01*
Y-83312D01*
X24373D01*
Y-83513D01*
X24172D01*
Y-83714D01*
Y-83916D01*
X24574D01*
Y-84116D01*
X25580D01*
Y-83916D01*
X25781D01*
Y-83714D01*
X25982D01*
Y-83513D01*
Y-83312D01*
X25781D01*
Y-83111D01*
X25580D01*
Y-82910D01*
X25178D01*
Y-82709D01*
X24775D01*
Y-82508D01*
X25379D01*
Y-82709D01*
X25781D01*
Y-82508D01*
Y-82307D01*
X25580D01*
Y-82106D01*
D02*
G37*
G36*
X32417D02*
X31411D01*
Y-82307D01*
X31210D01*
Y-82508D01*
X31009D01*
Y-82709D01*
Y-82910D01*
Y-83111D01*
Y-83312D01*
X30406D01*
Y-83513D01*
X30205D01*
Y-83714D01*
X30004D01*
Y-83513D01*
X29803D01*
Y-83312D01*
Y-83111D01*
Y-82910D01*
Y-82709D01*
Y-82508D01*
X30205D01*
Y-82709D01*
X30406D01*
Y-82910D01*
X30808D01*
Y-82709D01*
Y-82508D01*
Y-82307D01*
X30607D01*
Y-82106D01*
X29602D01*
Y-82307D01*
X29199D01*
Y-82508D01*
Y-82709D01*
Y-82910D01*
Y-83111D01*
Y-83312D01*
Y-83513D01*
Y-83714D01*
X29400D01*
Y-83916D01*
X29602D01*
Y-84116D01*
X30406D01*
Y-83916D01*
X30808D01*
Y-83714D01*
Y-83513D01*
X31210D01*
Y-83714D01*
Y-83916D01*
X31612D01*
Y-84116D01*
X32216D01*
Y-83916D01*
X32618D01*
Y-83714D01*
X32819D01*
Y-83513D01*
X32618D01*
Y-83312D01*
X32819D01*
Y-83111D01*
Y-82910D01*
Y-82709D01*
Y-82508D01*
X32618D01*
Y-82307D01*
X32417D01*
Y-82106D01*
D02*
G37*
G36*
X35232Y-81502D02*
X34629D01*
Y-81704D01*
X34428D01*
Y-81905D01*
X34025D01*
Y-82106D01*
Y-82307D01*
X34629D01*
Y-82508D01*
Y-82709D01*
Y-82910D01*
Y-83111D01*
Y-83312D01*
Y-83513D01*
Y-83714D01*
Y-83916D01*
Y-84116D01*
X34830D01*
Y-83916D01*
X35232D01*
Y-83714D01*
Y-83513D01*
Y-83312D01*
Y-83111D01*
Y-82910D01*
Y-82709D01*
Y-82508D01*
Y-82307D01*
Y-82106D01*
Y-81905D01*
Y-81704D01*
Y-81502D01*
D02*
G37*
G36*
X28596Y-82106D02*
X27188D01*
Y-82307D01*
X26987D01*
Y-82508D01*
X27188D01*
Y-82709D01*
X26987D01*
Y-82910D01*
Y-83111D01*
X27188D01*
Y-83312D01*
Y-83513D01*
X26987D01*
Y-83714D01*
Y-83916D01*
X27188D01*
Y-84116D01*
X27591D01*
Y-83916D01*
X27792D01*
Y-83714D01*
Y-83513D01*
Y-83312D01*
Y-83111D01*
Y-82910D01*
Y-82709D01*
Y-82508D01*
X28194D01*
Y-82709D01*
Y-82910D01*
Y-83111D01*
Y-83312D01*
Y-83513D01*
Y-83714D01*
Y-83916D01*
X28395D01*
Y-84116D01*
X28797D01*
Y-83916D01*
X28998D01*
Y-83714D01*
Y-83513D01*
Y-83312D01*
Y-83111D01*
Y-82910D01*
Y-82709D01*
X28797D01*
Y-82508D01*
Y-82307D01*
X28596D01*
Y-82106D01*
D02*
G37*
G36*
X26786D02*
X26183D01*
Y-82307D01*
Y-82508D01*
Y-82709D01*
Y-82910D01*
Y-83111D01*
Y-83312D01*
Y-83513D01*
Y-83714D01*
Y-83916D01*
X26384D01*
Y-84116D01*
X26585D01*
Y-83916D01*
X26786D01*
Y-83714D01*
Y-83513D01*
Y-83312D01*
Y-83111D01*
Y-82910D01*
Y-82709D01*
Y-82508D01*
Y-82307D01*
Y-82106D01*
D02*
G37*
%LPD*%
G36*
X36439Y-69437D02*
Y-69638D01*
X36237D01*
Y-69437D01*
X36036D01*
Y-69236D01*
X36439D01*
Y-69437D01*
D02*
G37*
G36*
X37243D02*
Y-69638D01*
X37645D01*
Y-69437D01*
X37846D01*
Y-69638D01*
X38047D01*
Y-69839D01*
X36640D01*
Y-69638D01*
X37042D01*
Y-69437D01*
Y-69236D01*
X37243D01*
Y-69437D01*
D02*
G37*
G36*
X39254Y-70443D02*
X39455D01*
Y-70644D01*
X39254D01*
Y-70443D01*
X38851D01*
Y-70241D01*
X39254D01*
Y-70443D01*
D02*
G37*
G36*
X27188D02*
X27591D01*
Y-70644D01*
X27188D01*
Y-70443D01*
X26987D01*
Y-70241D01*
X27188D01*
Y-70443D01*
D02*
G37*
G36*
X26585D02*
X26786D01*
Y-70644D01*
X26585D01*
Y-70443D01*
X26384D01*
Y-70241D01*
X26585D01*
Y-70443D01*
D02*
G37*
G36*
X39656Y-71046D02*
X40058D01*
Y-71247D01*
X39656D01*
Y-71046D01*
X39254D01*
Y-71247D01*
X39053D01*
Y-71046D01*
X38650D01*
Y-70845D01*
X39656D01*
Y-71046D01*
D02*
G37*
G36*
X38047Y-70644D02*
Y-70845D01*
X38248D01*
Y-71046D01*
X38449D01*
Y-71247D01*
X38248D01*
Y-71046D01*
X36841D01*
Y-70845D01*
X37846D01*
Y-70644D01*
Y-70443D01*
X38047D01*
Y-70644D01*
D02*
G37*
G36*
X26786Y-71046D02*
X27188D01*
Y-71247D01*
X26786D01*
Y-71046D01*
X26585D01*
Y-70845D01*
X26786D01*
Y-71046D01*
D02*
G37*
G36*
X26183D02*
X26585D01*
Y-71247D01*
X26384D01*
Y-71448D01*
X26183D01*
Y-71247D01*
Y-71046D01*
X25781D01*
Y-70845D01*
X26183D01*
Y-71046D01*
D02*
G37*
G36*
X38650Y-71649D02*
X38851D01*
Y-71850D01*
X38650D01*
Y-71649D01*
X38449D01*
Y-71448D01*
X38650D01*
Y-71649D01*
D02*
G37*
G36*
X37243D02*
Y-71850D01*
X37645D01*
Y-72051D01*
X37243D01*
Y-71850D01*
X37042D01*
Y-71649D01*
Y-71448D01*
X37243D01*
Y-71649D01*
D02*
G37*
G36*
X25379Y-71850D02*
Y-72051D01*
X25178D01*
Y-71850D01*
Y-71649D01*
X25379D01*
Y-71850D01*
D02*
G37*
G36*
X27591Y-72252D02*
X27390D01*
Y-72453D01*
X26987D01*
Y-72252D01*
X27188D01*
Y-72051D01*
X27591D01*
Y-72252D01*
D02*
G37*
G36*
X25178D02*
Y-72453D01*
X24976D01*
Y-72252D01*
Y-72051D01*
X25178D01*
Y-72252D01*
D02*
G37*
G36*
X38449D02*
X38650D01*
Y-72453D01*
X39455D01*
Y-72655D01*
X38650D01*
Y-72453D01*
X38248D01*
Y-72252D01*
X37846D01*
Y-72051D01*
X38449D01*
Y-72252D01*
D02*
G37*
G36*
X26384Y-72655D02*
X26585D01*
Y-72856D01*
X25580D01*
Y-72655D01*
X25379D01*
Y-72453D01*
X25580D01*
Y-72655D01*
X25982D01*
Y-72453D01*
X26384D01*
Y-72655D01*
D02*
G37*
G36*
X40460Y-72252D02*
X40661D01*
Y-72453D01*
X40862D01*
Y-72655D01*
X40661D01*
Y-72856D01*
X40460D01*
Y-72655D01*
X39857D01*
Y-72453D01*
X40460D01*
Y-72252D01*
X40259D01*
Y-72051D01*
X40460D01*
Y-72252D01*
D02*
G37*
G36*
X41667Y-74263D02*
Y-74464D01*
X41466D01*
Y-74263D01*
Y-74062D01*
X41667D01*
Y-74263D01*
D02*
G37*
G36*
X27993Y-74665D02*
X28395D01*
Y-74866D01*
X27993D01*
Y-74665D01*
X27792D01*
Y-74464D01*
X27993D01*
Y-74665D01*
D02*
G37*
G36*
X31411Y-76073D02*
X31210D01*
Y-76274D01*
X31009D01*
Y-76073D01*
Y-75872D01*
X31411D01*
Y-76073D01*
D02*
G37*
G36*
X26585D02*
Y-76274D01*
X26183D01*
Y-76073D01*
Y-75872D01*
X26585D01*
Y-76073D01*
D02*
G37*
G36*
X31009Y-77078D02*
Y-77280D01*
X30808D01*
Y-77078D01*
Y-76877D01*
X31009D01*
Y-77078D01*
D02*
G37*
G36*
X40259Y-77280D02*
Y-77481D01*
X40058D01*
Y-77280D01*
X39656D01*
Y-77078D01*
X40259D01*
Y-77280D01*
D02*
G37*
G36*
X31813D02*
X32417D01*
Y-77481D01*
X31813D01*
Y-77280D01*
X31612D01*
Y-77078D01*
X31813D01*
Y-77280D01*
D02*
G37*
G36*
X26786D02*
X27188D01*
Y-77481D01*
X26585D01*
Y-77280D01*
X26384D01*
Y-77078D01*
X26786D01*
Y-77280D01*
D02*
G37*
G36*
X41466Y-77481D02*
X41868D01*
Y-77682D01*
X41265D01*
Y-77481D01*
X40862D01*
Y-77280D01*
X41466D01*
Y-77481D01*
D02*
G37*
G36*
X38851Y-77280D02*
X38650D01*
Y-77481D01*
X39053D01*
Y-77682D01*
X38650D01*
Y-77481D01*
X37846D01*
Y-77280D01*
Y-77078D01*
X38851D01*
Y-77280D01*
D02*
G37*
G36*
X37243Y-77481D02*
X37645D01*
Y-77682D01*
X37243D01*
Y-77481D01*
X37042D01*
Y-77280D01*
X37243D01*
Y-77481D01*
D02*
G37*
G36*
X43678Y-78687D02*
X43477D01*
Y-78888D01*
X43275D01*
Y-79089D01*
Y-79290D01*
Y-79492D01*
X42873D01*
Y-79290D01*
Y-79089D01*
Y-78888D01*
X42672D01*
Y-78687D01*
X42270D01*
Y-78888D01*
X42069D01*
Y-79089D01*
Y-79290D01*
Y-79492D01*
X41667D01*
Y-79290D01*
X41868D01*
Y-79089D01*
X41667D01*
Y-78888D01*
Y-78687D01*
X41265D01*
Y-78888D01*
Y-79089D01*
Y-79290D01*
Y-79492D01*
X40862D01*
Y-79290D01*
Y-79089D01*
Y-78888D01*
Y-78687D01*
Y-78486D01*
X42873D01*
Y-78687D01*
X43275D01*
Y-78486D01*
X43678D01*
Y-78687D01*
D02*
G37*
G36*
X40661D02*
X40259D01*
Y-78888D01*
X40460D01*
Y-79089D01*
X40661D01*
Y-79290D01*
Y-79492D01*
X40460D01*
Y-79693D01*
X40058D01*
Y-79492D01*
Y-79290D01*
X40259D01*
Y-79089D01*
X39857D01*
Y-78888D01*
X39455D01*
Y-79089D01*
Y-79290D01*
X39656D01*
Y-79492D01*
X39254D01*
Y-79290D01*
X39053D01*
Y-79492D01*
X38650D01*
Y-79290D01*
Y-79089D01*
Y-78888D01*
Y-78687D01*
Y-78486D01*
X39455D01*
Y-78687D01*
X39857D01*
Y-78486D01*
X40661D01*
Y-78687D01*
D02*
G37*
G36*
X35433D02*
Y-78888D01*
Y-79089D01*
Y-79290D01*
Y-79492D01*
X35232D01*
Y-79693D01*
X35031D01*
Y-79492D01*
X34830D01*
Y-79290D01*
X34629D01*
Y-79492D01*
X34428D01*
Y-79290D01*
X34025D01*
Y-79492D01*
X33824D01*
Y-79693D01*
X33221D01*
Y-79492D01*
X33020D01*
Y-79290D01*
Y-79089D01*
Y-78888D01*
Y-78687D01*
Y-78486D01*
X33221D01*
Y-78687D01*
Y-78888D01*
X33422D01*
Y-79089D01*
X33221D01*
Y-79290D01*
X33824D01*
Y-79089D01*
Y-78888D01*
Y-78687D01*
Y-78486D01*
X34830D01*
Y-78687D01*
Y-78888D01*
X35232D01*
Y-78687D01*
Y-78486D01*
X35433D01*
Y-78687D01*
D02*
G37*
G36*
X27993D02*
Y-78888D01*
Y-79089D01*
Y-79290D01*
Y-79492D01*
Y-79693D01*
X27591D01*
Y-79492D01*
Y-79290D01*
X27188D01*
Y-79492D01*
Y-79693D01*
X26987D01*
Y-79492D01*
X26585D01*
Y-79693D01*
X25781D01*
Y-79492D01*
X26183D01*
Y-79290D01*
X25982D01*
Y-79089D01*
X25781D01*
Y-78888D01*
Y-78687D01*
X25982D01*
Y-78486D01*
X26585D01*
Y-78687D01*
X26384D01*
Y-78888D01*
Y-79089D01*
X26786D01*
Y-79290D01*
X26987D01*
Y-79089D01*
Y-78888D01*
Y-78687D01*
Y-78486D01*
X27188D01*
Y-78687D01*
Y-78888D01*
X27591D01*
Y-78687D01*
X27792D01*
Y-78486D01*
X27993D01*
Y-78687D01*
D02*
G37*
G36*
X24976D02*
Y-78888D01*
Y-79089D01*
Y-79290D01*
Y-79492D01*
Y-79693D01*
X24574D01*
Y-79492D01*
Y-79290D01*
X24373D01*
Y-79492D01*
Y-79693D01*
X23971D01*
Y-79492D01*
Y-79290D01*
Y-79089D01*
Y-78888D01*
Y-78687D01*
Y-78486D01*
X24373D01*
Y-78687D01*
Y-78888D01*
X24775D01*
Y-78687D01*
Y-78486D01*
X24976D01*
Y-78687D01*
D02*
G37*
G36*
X37243D02*
Y-78888D01*
X37042D01*
Y-79089D01*
Y-79290D01*
Y-79492D01*
X36439D01*
Y-79290D01*
Y-79089D01*
Y-78888D01*
X36237D01*
Y-78687D01*
Y-78486D01*
X36439D01*
Y-78687D01*
X36640D01*
Y-78888D01*
Y-79089D01*
X36841D01*
Y-78888D01*
Y-78687D01*
Y-78486D01*
X37243D01*
Y-78687D01*
D02*
G37*
G36*
X31009D02*
Y-78888D01*
X31210D01*
Y-79089D01*
X31009D01*
Y-79290D01*
X31210D01*
Y-79492D01*
Y-79693D01*
X31009D01*
Y-79492D01*
X30808D01*
Y-79290D01*
X30607D01*
Y-79492D01*
Y-79693D01*
X30205D01*
Y-79492D01*
Y-79290D01*
Y-79089D01*
X30004D01*
Y-79290D01*
Y-79492D01*
X29803D01*
Y-79693D01*
X29199D01*
Y-79492D01*
X28596D01*
Y-79693D01*
X28194D01*
Y-79492D01*
X28395D01*
Y-79290D01*
Y-79089D01*
Y-78888D01*
X28596D01*
Y-79089D01*
X28797D01*
Y-79290D01*
X28998D01*
Y-79089D01*
Y-78888D01*
X28596D01*
Y-78687D01*
Y-78486D01*
X28998D01*
Y-78687D01*
X29199D01*
Y-78888D01*
Y-79089D01*
X29400D01*
Y-79290D01*
Y-79492D01*
X29602D01*
Y-79290D01*
X29803D01*
Y-79089D01*
Y-78888D01*
Y-78687D01*
Y-78486D01*
X30205D01*
Y-78687D01*
Y-78888D01*
X30406D01*
Y-79089D01*
X30607D01*
Y-78888D01*
Y-78687D01*
Y-78486D01*
X31009D01*
Y-78687D01*
D02*
G37*
G36*
X38449D02*
X37846D01*
Y-78888D01*
X38248D01*
Y-79089D01*
X37846D01*
Y-79290D01*
X38248D01*
Y-79492D01*
X37444D01*
Y-79290D01*
Y-79089D01*
Y-78888D01*
X37645D01*
Y-78687D01*
X37444D01*
Y-78486D01*
X38449D01*
Y-78687D01*
D02*
G37*
G36*
X36036D02*
Y-78888D01*
X35835D01*
Y-79089D01*
X36036D01*
Y-79290D01*
Y-79492D01*
X35634D01*
Y-79290D01*
Y-79089D01*
Y-78888D01*
Y-78687D01*
Y-78486D01*
X36036D01*
Y-78687D01*
D02*
G37*
G36*
X32216D02*
X31813D01*
Y-78888D01*
X32015D01*
Y-79089D01*
X32216D01*
Y-79290D01*
Y-79492D01*
X32015D01*
Y-79693D01*
X31411D01*
Y-79492D01*
X31612D01*
Y-79290D01*
X31813D01*
Y-79089D01*
X31411D01*
Y-78888D01*
Y-78687D01*
Y-78486D01*
X32216D01*
Y-78687D01*
D02*
G37*
G36*
X23770Y-78888D02*
Y-79089D01*
Y-79290D01*
Y-79492D01*
Y-79693D01*
X23368D01*
Y-79492D01*
Y-79290D01*
Y-79089D01*
Y-78888D01*
Y-78687D01*
X23770D01*
Y-78888D01*
D02*
G37*
G36*
X22764Y-78687D02*
X22966D01*
Y-78888D01*
Y-79089D01*
Y-79290D01*
X23167D01*
Y-79492D01*
Y-79693D01*
X22764D01*
Y-79492D01*
X22362D01*
Y-79693D01*
X21960D01*
Y-79492D01*
Y-79290D01*
X22161D01*
Y-79089D01*
Y-78888D01*
Y-78687D01*
X22362D01*
Y-78486D01*
X22764D01*
Y-78687D01*
D02*
G37*
%LPC*%
G36*
X39254D02*
X38851D01*
Y-78888D01*
X39254D01*
Y-78687D01*
D02*
G37*
G36*
X34428D02*
X34025D01*
Y-78888D01*
Y-79089D01*
X34428D01*
Y-78888D01*
Y-78687D01*
D02*
G37*
G36*
X22764Y-79089D02*
X22362D01*
Y-79290D01*
X22764D01*
Y-79089D01*
D02*
G37*
%LPD*%
G36*
X32819Y-63404D02*
Y-63606D01*
X32618D01*
Y-63404D01*
Y-63204D01*
X32819D01*
Y-63404D01*
D02*
G37*
G36*
Y-65214D02*
Y-65415D01*
Y-65616D01*
X33020D01*
Y-65818D01*
Y-66019D01*
Y-66220D01*
Y-66421D01*
Y-66622D01*
X32819D01*
Y-66823D01*
X32618D01*
Y-66622D01*
Y-66421D01*
X32417D01*
Y-66220D01*
Y-66019D01*
X32618D01*
Y-65818D01*
Y-65616D01*
Y-65415D01*
Y-65214D01*
Y-65013D01*
X32819D01*
Y-65214D01*
D02*
G37*
G36*
X31813Y-68834D02*
X31612D01*
Y-69035D01*
X31411D01*
Y-68834D01*
Y-68633D01*
X31813D01*
Y-68834D01*
D02*
G37*
G36*
X33824Y-71448D02*
X34227D01*
Y-71649D01*
X34428D01*
Y-71850D01*
X34629D01*
Y-72051D01*
Y-72252D01*
X34227D01*
Y-72051D01*
X34428D01*
Y-71850D01*
X34227D01*
Y-71649D01*
X33824D01*
Y-71448D01*
X33221D01*
Y-71247D01*
X33824D01*
Y-71448D01*
D02*
G37*
G36*
Y-72051D02*
X33623D01*
Y-72252D01*
X33422D01*
Y-72051D01*
Y-71850D01*
X33824D01*
Y-72051D01*
D02*
G37*
G36*
X32819Y-72252D02*
X33221D01*
Y-72453D01*
Y-72655D01*
X33020D01*
Y-72453D01*
X32819D01*
Y-72252D01*
X32417D01*
Y-72051D01*
X32819D01*
Y-72252D01*
D02*
G37*
G36*
X34629Y-72856D02*
Y-73057D01*
X34428D01*
Y-72856D01*
X34227D01*
Y-72655D01*
X34629D01*
Y-72856D01*
D02*
G37*
G36*
X33020D02*
X32819D01*
Y-73057D01*
X32417D01*
Y-72856D01*
Y-72655D01*
X33020D01*
Y-72856D01*
D02*
G37*
G36*
X34428Y-73459D02*
X34025D01*
Y-73660D01*
X33020D01*
Y-73459D01*
X32819D01*
Y-73258D01*
X33221D01*
Y-73459D01*
X33824D01*
Y-73258D01*
X34428D01*
Y-73459D01*
D02*
G37*
G36*
X31411Y-73660D02*
X32015D01*
Y-73861D01*
X31210D01*
Y-73660D01*
Y-73459D01*
X31411D01*
Y-73660D01*
D02*
G37*
G36*
X38650Y-82106D02*
Y-82307D01*
Y-82508D01*
X38047D01*
Y-82307D01*
X38248D01*
Y-82106D01*
Y-81905D01*
X38650D01*
Y-82106D01*
D02*
G37*
G36*
X36640D02*
X36841D01*
Y-82307D01*
X36640D01*
Y-82508D01*
X36439D01*
Y-82307D01*
X36237D01*
Y-82106D01*
X36439D01*
Y-81905D01*
X36640D01*
Y-82106D01*
D02*
G37*
G36*
X40460D02*
X40661D01*
Y-82307D01*
Y-82508D01*
X40460D01*
Y-82709D01*
X40058D01*
Y-82508D01*
Y-82307D01*
Y-82106D01*
X40259D01*
Y-81905D01*
X40460D01*
Y-82106D01*
D02*
G37*
G36*
X39455Y-82709D02*
Y-82910D01*
X39656D01*
Y-83111D01*
X39857D01*
Y-83312D01*
X39455D01*
Y-83111D01*
X39254D01*
Y-82910D01*
Y-82709D01*
Y-82508D01*
X39455D01*
Y-82709D01*
D02*
G37*
G36*
X40460Y-83312D02*
Y-83513D01*
X40058D01*
Y-83312D01*
X40259D01*
Y-83111D01*
X40460D01*
Y-83312D01*
D02*
G37*
G36*
X36640Y-83111D02*
X36841D01*
Y-83312D01*
Y-83513D01*
X36237D01*
Y-83312D01*
Y-83111D01*
Y-82910D01*
X36640D01*
Y-83111D01*
D02*
G37*
G36*
X32216Y-82709D02*
Y-82910D01*
X31612D01*
Y-82709D01*
X31813D01*
Y-82508D01*
X32216D01*
Y-82709D01*
D02*
G37*
G36*
X32417Y-83513D02*
X32015D01*
Y-83714D01*
X31813D01*
Y-83513D01*
X31612D01*
Y-83312D01*
X32417D01*
Y-83513D01*
D02*
G37*
%LPC*%
G36*
X25178Y-90149D02*
X24775D01*
Y-90350D01*
X25178D01*
Y-90149D01*
D02*
G37*
G36*
X121750Y-92596D02*
X119312D01*
Y-93003D01*
X118906D01*
Y-93409D01*
X118500D01*
Y-93815D01*
Y-94221D01*
X118094D01*
Y-94627D01*
Y-95034D01*
Y-95440D01*
Y-95846D01*
X118500D01*
Y-96252D01*
X118906D01*
Y-96658D01*
Y-97064D01*
X119719D01*
Y-97471D01*
X121343D01*
Y-97064D01*
X122156D01*
Y-96658D01*
Y-96252D01*
X122562D01*
Y-95846D01*
X122968D01*
Y-95440D01*
Y-95034D01*
Y-94627D01*
Y-94221D01*
X122562D01*
Y-93815D01*
Y-93409D01*
X122156D01*
Y-93003D01*
X121750D01*
Y-92596D01*
D02*
G37*
%LPD*%
D10*
X196560Y502000D02*
G03*
X196560Y502000I-1000J0D01*
G01*
X780020Y-56230D02*
G03*
X780020Y-56230I-1000J0D01*
G01*
X655160Y685800D02*
G03*
X655160Y685800I-1000J0D01*
G01*
X894653Y566829D02*
G03*
X892220Y531775I8317J-18189D01*
G01*
X913720D02*
G03*
X911287Y566829I-10750J16865D01*
G01*
X678753Y498649D02*
G03*
X676320Y463595I8317J-18189D01*
G01*
X697820D02*
G03*
X695387Y498649I-10750J16865D01*
G01*
X694117Y586331D02*
G03*
X696550Y621385I-8317J18189D01*
G01*
X675050D02*
G03*
X677483Y586331I10750J-16865D01*
G01*
X323580Y738340D02*
G03*
X323580Y738340I-1000J0D01*
G01*
X324850Y408140D02*
G03*
X324850Y408140I-1000J0D01*
G01*
X27130Y59690D02*
G03*
X27130Y59690I-1000J0D01*
G01*
X496430Y260350D02*
G03*
X496430Y260350I-1000J0D01*
G01*
X451850Y590440D02*
G03*
X451850Y590440I-1000J0D01*
G01*
X463170Y177800D02*
G03*
X463170Y177800I-1000J0D01*
G01*
X726245Y318770D02*
Y326390D01*
Y318770D02*
X777045D01*
Y334010D01*
X726245D02*
X777045D01*
X726245Y326390D02*
Y334010D01*
X777045Y326390D02*
X779331D01*
X723959D02*
X726245D01*
X341630Y515620D02*
X361950D01*
Y454660D02*
Y515620D01*
X341630Y454660D02*
X361950D01*
X341630D02*
Y515620D01*
X351790D02*
Y525780D01*
Y444500D02*
Y454660D01*
X835660Y293370D02*
Y369570D01*
Y293370D02*
X861060D01*
Y369570D01*
X835660D02*
X861060D01*
D11*
X402580Y650840D02*
G03*
X402580Y650840I-80000J0D01*
G01*
X403850Y320640D02*
G03*
X403850Y320640I-80000J0D01*
G01*
X193630Y59690D02*
G03*
X193630Y59690I-80000J0D01*
G01*
X662930Y260350D02*
G03*
X662930Y260350I-80000J0D01*
G01*
X785495Y600710D02*
G03*
X791845Y594360I6350J0D01*
G01*
D02*
G03*
X798195Y600710I0J6350D01*
G01*
X52560Y193300D02*
Y543300D01*
X202560D01*
X202420Y193340D02*
Y543300D01*
X52560Y193340D02*
X202420D01*
X922020Y-97530D02*
Y252470D01*
X772020Y-97530D02*
X922020D01*
X772160D02*
Y252430D01*
X922020D01*
X817160Y685800D02*
X856860D01*
X687460D02*
X727160D01*
Y712300D02*
X817160D01*
Y685800D02*
Y712300D01*
Y659300D02*
Y685800D01*
X727160Y659300D02*
X817160D01*
X727160D02*
Y685800D01*
Y712300D01*
X824745Y398810D02*
Y600710D01*
X798095D02*
X824745D01*
X753745Y398780D02*
X824745D01*
X753745Y398810D02*
Y600710D01*
X785395D01*
X450850Y517440D02*
X477350D01*
X424350D02*
X450850D01*
X424350Y427440D02*
Y517440D01*
Y427440D02*
X450850D01*
X477350D01*
Y517440D01*
X450850D02*
Y557140D01*
Y387740D02*
Y427440D01*
X389170Y151300D02*
Y177800D01*
Y204300D01*
X299170D02*
X389170D01*
X299170Y177800D02*
Y204300D01*
Y151300D02*
Y177800D01*
Y151300D02*
X389170D01*
Y177800D02*
X428870D01*
X259470D02*
X299170D01*
D12*
X527812Y399796D02*
G03*
X527812Y399796I-2540J0D01*
G01*
D13*
X189880Y615170D02*
Y719310D01*
X42560D02*
X189880D01*
X42560Y615170D02*
X189880D01*
X42560D02*
Y719310D01*
X233165Y-109539D02*
X733016D01*
X233165D02*
Y110171D01*
X733546D01*
Y-109539D02*
Y110461D01*
X742586Y302379D02*
X742102Y303347D01*
X741134Y304314D01*
X740167Y304798D01*
X738232D01*
X737265Y304314D01*
X736297Y303347D01*
X735814Y302379D01*
X735330Y300928D01*
Y298510D01*
X735814Y297059D01*
X736297Y296091D01*
X737265Y295124D01*
X738232Y294640D01*
X740167D01*
X741134Y295124D01*
X742102Y296091D01*
X742586Y297059D01*
Y298510D01*
X740167D02*
X742586D01*
X750712Y301412D02*
Y294640D01*
Y299961D02*
X749744Y300928D01*
X748777Y301412D01*
X747326D01*
X746358Y300928D01*
X745391Y299961D01*
X744907Y298510D01*
Y297542D01*
X745391Y296091D01*
X746358Y295124D01*
X747326Y294640D01*
X748777D01*
X749744Y295124D01*
X750712Y296091D01*
X754872Y304798D02*
Y296575D01*
X755355Y295124D01*
X756323Y294640D01*
X757290D01*
X753421Y301412D02*
X756806D01*
X758741Y298510D02*
X764546D01*
Y299477D01*
X764062Y300445D01*
X763578Y300928D01*
X762611Y301412D01*
X761160D01*
X760192Y300928D01*
X759225Y299961D01*
X758741Y298510D01*
Y297542D01*
X759225Y296091D01*
X760192Y295124D01*
X761160Y294640D01*
X762611D01*
X763578Y295124D01*
X764546Y296091D01*
X774704Y304798D02*
Y294640D01*
Y304798D02*
X779057D01*
X780508Y304314D01*
X780992Y303830D01*
X781476Y302863D01*
Y301896D01*
X780992Y300928D01*
X780508Y300445D01*
X779057Y299961D01*
X774704D01*
X778090D02*
X781476Y294640D01*
X783749Y298510D02*
X789553D01*
Y299477D01*
X789070Y300445D01*
X788586Y300928D01*
X787619Y301412D01*
X786168D01*
X785200Y300928D01*
X784233Y299961D01*
X783749Y298510D01*
Y297542D01*
X784233Y296091D01*
X785200Y295124D01*
X786168Y294640D01*
X787619D01*
X788586Y295124D01*
X789553Y296091D01*
X797051Y299961D02*
X796567Y300928D01*
X795116Y301412D01*
X793665D01*
X792214Y300928D01*
X791730Y299961D01*
X792214Y298993D01*
X793181Y298510D01*
X795600Y298026D01*
X796567Y297542D01*
X797051Y296575D01*
Y296091D01*
X796567Y295124D01*
X795116Y294640D01*
X793665D01*
X792214Y295124D01*
X791730Y296091D01*
X726439Y426718D02*
X722811Y419100D01*
X721360Y426718D02*
X726439D01*
X845930Y504007D02*
X846655Y504370D01*
X847744Y505458D01*
Y497840D01*
X851516Y504007D02*
X852242Y504370D01*
X853330Y505458D01*
Y497840D01*
X847744Y426718D02*
X846655Y426356D01*
X846292Y425630D01*
Y424905D01*
X846655Y424179D01*
X847381Y423816D01*
X848832Y423453D01*
X849920Y423091D01*
X850646Y422365D01*
X851009Y421640D01*
Y420551D01*
X850646Y419826D01*
X850283Y419463D01*
X849195Y419100D01*
X847744D01*
X846655Y419463D01*
X846292Y419826D01*
X845930Y420551D01*
Y421640D01*
X846292Y422365D01*
X847018Y423091D01*
X848106Y423453D01*
X849557Y423816D01*
X850283Y424179D01*
X850646Y424905D01*
Y425630D01*
X850283Y426356D01*
X849195Y426718D01*
X847744D01*
X845930Y580207D02*
X846655Y580570D01*
X847744Y581658D01*
Y574040D01*
X855144Y581658D02*
X851516Y576580D01*
X856958D01*
X855144Y581658D02*
Y574040D01*
X911244Y362069D02*
X910760Y363037D01*
X909793Y364004D01*
X908826Y364488D01*
X906891D01*
X905923Y364004D01*
X904956Y363037D01*
X904472Y362069D01*
X903988Y360618D01*
Y358200D01*
X904472Y356749D01*
X904956Y355781D01*
X905923Y354814D01*
X906891Y354330D01*
X908826D01*
X909793Y354814D01*
X910760Y355781D01*
X911244Y356749D01*
Y358200D01*
X908826D02*
X911244D01*
X913566Y364488D02*
Y354330D01*
Y364488D02*
X920338Y354330D01*
Y364488D02*
Y354330D01*
X923143Y364488D02*
Y354330D01*
Y364488D02*
X926529D01*
X927980Y364004D01*
X928948Y363037D01*
X929431Y362069D01*
X929915Y360618D01*
Y358200D01*
X929431Y356749D01*
X928948Y355781D01*
X927980Y354814D01*
X926529Y354330D01*
X923143D01*
X901425Y304557D02*
X905778D01*
X907229Y305041D01*
X907713Y305525D01*
X908197Y306492D01*
Y307943D01*
X907713Y308910D01*
X907229Y309394D01*
X905778Y309878D01*
X901425D01*
Y299720D01*
X910470Y309878D02*
X912889Y299720D01*
X915307Y309878D02*
X912889Y299720D01*
X915307Y309878D02*
X917726Y299720D01*
X920144Y309878D02*
X917726Y299720D01*
X922176Y309878D02*
Y299720D01*
Y309878D02*
X926046Y299720D01*
X929915Y309878D02*
X926046Y299720D01*
X929915Y309878D02*
Y299720D01*
X901425Y329957D02*
X905778D01*
X907229Y330441D01*
X907713Y330924D01*
X908197Y331892D01*
Y333343D01*
X907713Y334310D01*
X907229Y334794D01*
X905778Y335278D01*
X901425D01*
Y325120D01*
X910470Y335278D02*
X912889Y325120D01*
X915307Y335278D02*
X912889Y325120D01*
X915307Y335278D02*
X917726Y325120D01*
X920144Y335278D02*
X917726Y325120D01*
X922176Y335278D02*
Y325120D01*
Y335278D02*
X926046Y325120D01*
X929915Y335278D02*
X926046Y325120D01*
X929915Y335278D02*
Y325120D01*
X591640Y354296D02*
X590914Y353571D01*
X590552Y352482D01*
Y351031D01*
X590914Y349943D01*
X591640Y349217D01*
X592365D01*
X593091Y349580D01*
X593454Y349943D01*
X593817Y350668D01*
X594542Y352845D01*
X594905Y353571D01*
X595268Y353933D01*
X595993Y354296D01*
X597082D01*
X597807Y353571D01*
X598170Y352482D01*
Y351031D01*
X597807Y349943D01*
X597082Y349217D01*
X593091Y357815D02*
X593454Y357090D01*
X594179Y356364D01*
X595268Y356001D01*
X595993D01*
X597082Y356364D01*
X597807Y357090D01*
X598170Y357815D01*
Y358904D01*
X597807Y359629D01*
X597082Y360355D01*
X595993Y360717D01*
X595268D01*
X594179Y360355D01*
X593454Y359629D01*
X593091Y358904D01*
Y357815D01*
Y362386D02*
X596719D01*
X597807Y362749D01*
X598170Y363475D01*
Y364563D01*
X597807Y365288D01*
X596719Y366377D01*
X593091D02*
X598170D01*
X593091Y368372D02*
X598170D01*
X595268D02*
X594179Y368735D01*
X593454Y369460D01*
X593091Y370186D01*
Y371274D01*
X594179Y376317D02*
X593454Y375591D01*
X593091Y374866D01*
Y373777D01*
X593454Y373052D01*
X594179Y372326D01*
X595268Y371964D01*
X595993D01*
X597082Y372326D01*
X597807Y373052D01*
X598170Y373777D01*
Y374866D01*
X597807Y375591D01*
X597082Y376317D01*
X595268Y377949D02*
Y382303D01*
X594542D01*
X593817Y381940D01*
X593454Y381577D01*
X593091Y380852D01*
Y379763D01*
X593454Y379038D01*
X594179Y378312D01*
X595268Y377949D01*
X595993D01*
X597082Y378312D01*
X597807Y379038D01*
X598170Y379763D01*
Y380852D01*
X597807Y381577D01*
X597082Y382303D01*
X540295Y358976D02*
X539570Y358613D01*
X538844Y357887D01*
X538482Y357162D01*
Y355711D01*
X538844Y354985D01*
X539570Y354260D01*
X540295Y353897D01*
X541384Y353534D01*
X543198D01*
X544286Y353897D01*
X545012Y354260D01*
X545737Y354985D01*
X546100Y355711D01*
Y357162D01*
X545737Y357887D01*
X545012Y358613D01*
X544286Y358976D01*
X543198D01*
Y357162D02*
Y358976D01*
X541021Y365070D02*
X546100D01*
X542109D02*
X541384Y364345D01*
X541021Y363619D01*
Y362531D01*
X541384Y361805D01*
X542109Y361080D01*
X543198Y360717D01*
X543923D01*
X545012Y361080D01*
X545737Y361805D01*
X546100Y362531D01*
Y363619D01*
X545737Y364345D01*
X545012Y365070D01*
X538482Y368190D02*
X544649D01*
X545737Y368553D01*
X546100Y369279D01*
Y370004D01*
X541021Y367102D02*
Y369641D01*
X543198Y371093D02*
Y375446D01*
X542472D01*
X541747Y375083D01*
X541384Y374720D01*
X541021Y373995D01*
Y372906D01*
X541384Y372181D01*
X542109Y371455D01*
X543198Y371093D01*
X543923D01*
X545012Y371455D01*
X545737Y372181D01*
X546100Y372906D01*
Y373995D01*
X545737Y374720D01*
X545012Y375446D01*
X3811Y728958D02*
Y726419D01*
Y727688D01*
X11429D01*
X10159Y728958D01*
X3811Y717532D02*
Y722610D01*
X8890Y717532D01*
X10159D01*
X11429Y718801D01*
Y721340D01*
X10159Y722610D01*
X11429Y707375D02*
X6350D01*
X3811Y704836D01*
X6350Y702296D01*
X11429D01*
X3811Y698488D02*
Y695948D01*
X5081Y694679D01*
X7620D01*
X8890Y695948D01*
Y698488D01*
X7620Y699757D01*
X5081D01*
X3811Y698488D01*
Y692140D02*
Y689601D01*
Y690870D01*
X11429D01*
Y692140D01*
X10159Y684522D02*
X8890D01*
Y685792D01*
Y683253D01*
Y684522D01*
X5081D01*
X3811Y683253D01*
X11429Y671826D02*
X3811D01*
Y668018D01*
X5081Y666748D01*
X6350D01*
X7620Y668018D01*
Y671826D01*
Y668018D01*
X8890Y666748D01*
X10159D01*
X11429Y668018D01*
Y671826D01*
X8890Y664209D02*
X5081D01*
X3811Y662939D01*
Y659130D01*
X8890D01*
Y651513D02*
Y655322D01*
X7620Y656591D01*
X5081D01*
X3811Y655322D01*
Y651513D01*
Y648974D02*
X11429D01*
X6350D02*
X8890Y645165D01*
X6350Y648974D02*
X3811Y645165D01*
Y633739D02*
X11429D01*
X8890Y631199D01*
X11429Y628660D01*
X3811D01*
Y624851D02*
Y622312D01*
X5081Y621043D01*
X7620D01*
X8890Y622312D01*
Y624851D01*
X7620Y626121D01*
X5081D01*
X3811Y624851D01*
X11429Y613425D02*
X3811D01*
Y617234D01*
X5081Y618503D01*
X7620D01*
X8890Y617234D01*
Y613425D01*
Y610886D02*
X5081D01*
X3811Y609616D01*
Y605808D01*
X8890D01*
X3811Y603269D02*
Y600729D01*
Y601999D01*
X11429D01*
Y603269D01*
X3811Y593112D02*
Y595651D01*
X5081Y596921D01*
X7620D01*
X8890Y595651D01*
Y593112D01*
X7620Y591842D01*
X6350D01*
Y596921D01*
X685800Y438549D02*
X684531Y439819D01*
X681992D01*
X680722Y438549D01*
Y433471D01*
X681992Y432201D01*
X684531D01*
X685800Y433471D01*
X693418Y432201D02*
X688339D01*
X693418Y437280D01*
Y438549D01*
X692148Y439819D01*
X689609D01*
X688339Y438549D01*
X656589Y493155D02*
X657859Y491885D01*
Y489346D01*
X656589Y488076D01*
X651511D01*
X650241Y489346D01*
Y491885D01*
X651511Y493155D01*
X656589D01*
X650241Y485537D02*
X651511D01*
Y484268D01*
X650241D01*
Y485537D01*
Y479189D02*
Y476650D01*
Y477920D01*
X657859D01*
X656589Y479189D01*
X655320Y472841D02*
X651511D01*
X650241Y471572D01*
Y467763D01*
X655320D01*
X657859Y460145D02*
Y465224D01*
X654050D01*
Y462685D01*
Y465224D01*
X650241D01*
X272640Y563878D02*
Y553722D01*
X277719D01*
X279412Y555414D01*
Y557107D01*
Y558800D01*
X277719Y560493D01*
X272640D01*
X282797D02*
Y555414D01*
X284490Y553722D01*
X289568D01*
Y560493D01*
X299725D02*
X294647D01*
X292954Y558800D01*
Y555414D01*
X294647Y553722D01*
X299725D01*
X303111D02*
Y563878D01*
Y557107D02*
X308189Y560493D01*
X303111Y557107D02*
X308189Y553722D01*
X330195Y562186D02*
X328502Y563878D01*
X325117D01*
X323424Y562186D01*
Y555414D01*
X325117Y553722D01*
X328502D01*
X330195Y555414D01*
X335273Y553722D02*
X338659D01*
X340352Y555414D01*
Y558800D01*
X338659Y560493D01*
X335273D01*
X333581Y558800D01*
Y555414D01*
X335273Y553722D01*
X343737Y560493D02*
Y555414D01*
X345430Y553722D01*
X350508D01*
Y560493D01*
X355587Y562186D02*
Y560493D01*
X353894D01*
X357280D01*
X355587D01*
Y555414D01*
X357280Y553722D01*
X224791Y657856D02*
X232409D01*
X228600Y661664D01*
Y656586D01*
X232409Y654047D02*
Y648968D01*
X231139D01*
X226061Y654047D01*
X224791D01*
X231139Y646429D02*
X232409Y645160D01*
Y642620D01*
X231139Y641351D01*
X226061D01*
X224791Y642620D01*
Y645160D01*
X226061Y646429D01*
X231139D01*
X229870Y638812D02*
X226061D01*
X224791Y637542D01*
Y633733D01*
X229870D01*
X232409Y626116D02*
Y631194D01*
X228600D01*
Y628655D01*
Y631194D01*
X224791D01*
X746351Y618066D02*
X744658Y619758D01*
X741273D01*
X739580Y618066D01*
Y611294D01*
X741273Y609602D01*
X744658D01*
X746351Y611294D01*
Y614680D01*
X742966D01*
X751430Y616373D02*
X754815D01*
X756508Y614680D01*
Y609602D01*
X751430D01*
X749737Y611294D01*
X751430Y612987D01*
X756508D01*
X761586Y618066D02*
Y616373D01*
X759893D01*
X763279D01*
X761586D01*
Y611294D01*
X763279Y609602D01*
X773436D02*
X770050D01*
X768357Y611294D01*
Y614680D01*
X770050Y616373D01*
X773436D01*
X775128Y614680D01*
Y612987D01*
X768357D01*
X788671Y619758D02*
Y609602D01*
X793749D01*
X795442Y611294D01*
Y618066D01*
X793749Y619758D01*
X788671D01*
X798828Y616373D02*
Y609602D01*
Y612987D01*
X800520Y614680D01*
X802213Y616373D01*
X803906D01*
X808984Y609602D02*
X812370D01*
X810677D01*
Y616373D01*
X808984D01*
X817448D02*
X820834Y609602D01*
X824219Y616373D01*
X832683Y609602D02*
X829298D01*
X827605Y611294D01*
Y614680D01*
X829298Y616373D01*
X832683D01*
X834376Y614680D01*
Y612987D01*
X827605D01*
X837762Y616373D02*
Y609602D01*
Y612987D01*
X839454Y614680D01*
X841147Y616373D01*
X842840D01*
X444926Y345438D02*
Y335282D01*
X450004D01*
X451697Y336974D01*
Y343746D01*
X450004Y345438D01*
X444926D01*
X455083Y343746D02*
X456776Y345438D01*
X460161D01*
X461854Y343746D01*
Y342053D01*
X460161Y340360D01*
X458468D01*
X460161D01*
X461854Y338667D01*
Y336974D01*
X460161Y335282D01*
X456776D01*
X455083Y336974D01*
X6351Y67306D02*
Y72384D01*
X11430Y67306D01*
X12699D01*
X13969Y68576D01*
Y71115D01*
X12699Y72384D01*
X6351Y59688D02*
Y64767D01*
X11430Y59688D01*
X12699D01*
X13969Y60958D01*
Y63497D01*
X12699Y64767D01*
Y57149D02*
X13969Y55880D01*
Y53340D01*
X12699Y52071D01*
X7621D01*
X6351Y53340D01*
Y55880D01*
X7621Y57149D01*
X12699D01*
X11430Y49532D02*
X7621D01*
X6351Y48262D01*
Y44453D01*
X11430D01*
X13969Y36836D02*
Y41914D01*
X10160D01*
Y39375D01*
Y41914D01*
X6351D01*
X904240Y502919D02*
X902971Y504189D01*
X900432D01*
X899162Y502919D01*
Y497841D01*
X900432Y496571D01*
X902971D01*
X904240Y497841D01*
X910588Y496571D02*
Y504189D01*
X906780Y500380D01*
X911858D01*
X890275Y488949D02*
X891545Y490219D01*
X894084D01*
X895354Y488949D01*
Y483871D01*
X894084Y482601D01*
X891545D01*
X890275Y483871D01*
Y488949D01*
X897893Y482601D02*
Y483871D01*
X899163D01*
Y482601D01*
X897893D01*
X904241D02*
X906780D01*
X905510D01*
Y490219D01*
X904241Y488949D01*
X910589Y487680D02*
Y483871D01*
X911858Y482601D01*
X915667D01*
Y487680D01*
X923285Y490219D02*
X918206D01*
Y486410D01*
X920745D01*
X918206D01*
Y482601D01*
X325754Y523963D02*
X316866D01*
Y519520D01*
X318348Y518039D01*
X319829D01*
X321310Y519520D01*
Y523963D01*
Y519520D01*
X322791Y518039D01*
X324272D01*
X325754Y519520D01*
Y523963D01*
X322791Y515076D02*
X318348D01*
X316866Y513595D01*
Y509151D01*
X322791D01*
Y500264D02*
Y504708D01*
X321310Y506189D01*
X318348D01*
X316866Y504708D01*
Y500264D01*
Y497302D02*
X325754D01*
X319829D02*
X322791Y492858D01*
X319829Y497302D02*
X316866Y492858D01*
X325754Y479528D02*
Y476565D01*
Y478046D01*
X316866D01*
Y479528D01*
Y476565D01*
Y472122D02*
X322791D01*
Y467678D01*
X321310Y466197D01*
X316866D01*
X325754Y457310D02*
X316866D01*
Y461754D01*
X318348Y463235D01*
X321310D01*
X322791Y461754D01*
Y457310D01*
Y454347D02*
X318348D01*
X316866Y452866D01*
Y448423D01*
X322791D01*
Y439536D02*
Y443979D01*
X321310Y445460D01*
X318348D01*
X316866Y443979D01*
Y439536D01*
X324272Y435092D02*
X322791D01*
Y436573D01*
Y433611D01*
Y435092D01*
X318348D01*
X316866Y433611D01*
Y427686D02*
Y424724D01*
X318348Y423243D01*
X321310D01*
X322791Y424724D01*
Y427686D01*
X321310Y429167D01*
X318348D01*
X316866Y427686D01*
X322791Y420280D02*
X316866D01*
X319829D01*
X321310Y418799D01*
X322791Y417318D01*
Y415837D01*
X219711Y320036D02*
X227329D01*
X223520Y323844D01*
Y318766D01*
X227329Y316227D02*
Y311148D01*
X226059D01*
X220981Y316227D01*
X219711D01*
X226059Y308609D02*
X227329Y307340D01*
Y304800D01*
X226059Y303531D01*
X220981D01*
X219711Y304800D01*
Y307340D01*
X220981Y308609D01*
X226059D01*
X224790Y300992D02*
X220981D01*
X219711Y299722D01*
Y295913D01*
X224790D01*
X227329Y288296D02*
Y293374D01*
X223520D01*
Y290835D01*
Y293374D01*
X219711D01*
X733236Y279401D02*
X735776D01*
X734506D01*
Y287019D01*
X733236Y285749D01*
X739584D02*
X740854Y287019D01*
X743393D01*
X744663Y285749D01*
Y280671D01*
X743393Y279401D01*
X740854D01*
X739584Y280671D01*
Y285749D01*
X748472Y279401D02*
X751011D01*
X752280Y280671D01*
Y283210D01*
X751011Y284480D01*
X748472D01*
X747202Y283210D01*
Y280671D01*
X748472Y279401D01*
X754819Y287019D02*
Y279401D01*
Y283210D01*
X756089Y284480D01*
X758628D01*
X759898Y283210D01*
Y279401D01*
X762437D02*
Y284480D01*
X763707D01*
X764976Y283210D01*
Y279401D01*
Y283210D01*
X766246Y284480D01*
X767515Y283210D01*
Y279401D01*
X516052Y449582D02*
Y459738D01*
X519437Y456353D01*
X522823Y459738D01*
Y449582D01*
X527901D02*
X531287D01*
X532980Y451274D01*
Y454660D01*
X531287Y456353D01*
X527901D01*
X526208Y454660D01*
Y451274D01*
X527901Y449582D01*
X536365D02*
X541444D01*
X543136Y451274D01*
X541444Y452967D01*
X538058D01*
X536365Y454660D01*
X538058Y456353D01*
X543136D01*
X548215Y449582D02*
Y458046D01*
Y454660D01*
X546522D01*
X549907D01*
X548215D01*
Y458046D01*
X549907Y459738D01*
X560064Y449582D02*
X556679D01*
X554986Y451274D01*
Y454660D01*
X556679Y456353D01*
X560064D01*
X561757Y454660D01*
Y452967D01*
X554986D01*
X566835Y458046D02*
Y456353D01*
X565143D01*
X568528D01*
X566835D01*
Y451274D01*
X568528Y449582D01*
X879688Y275185D02*
X878206Y273704D01*
Y270741D01*
X879688Y269260D01*
X885612D01*
X887094Y270741D01*
Y273704D01*
X885612Y275185D01*
X887094Y279628D02*
Y282591D01*
X885612Y284072D01*
X882650D01*
X881169Y282591D01*
Y279628D01*
X882650Y278147D01*
X885612D01*
X887094Y279628D01*
Y287034D02*
X881169D01*
Y291478D01*
X882650Y292959D01*
X887094D01*
X879688Y297403D02*
X881169D01*
Y295921D01*
Y298884D01*
Y297403D01*
X885612D01*
X887094Y298884D01*
X881169Y303328D02*
X887094D01*
X884131D01*
X882650Y304809D01*
X881169Y306290D01*
Y307771D01*
X887094Y313696D02*
Y316658D01*
X885612Y318139D01*
X882650D01*
X881169Y316658D01*
Y313696D01*
X882650Y312215D01*
X885612D01*
X887094Y313696D01*
Y321102D02*
Y324064D01*
Y322583D01*
X878206D01*
Y321102D01*
X887094Y328508D02*
Y331470D01*
Y329989D01*
X878206D01*
Y328508D01*
X887094Y340357D02*
Y337395D01*
X885612Y335914D01*
X882650D01*
X881169Y337395D01*
Y340357D01*
X882650Y341838D01*
X884131D01*
Y335914D01*
X881169Y344801D02*
X887094D01*
X884131D01*
X882650Y346282D01*
X881169Y347763D01*
Y349244D01*
X887094Y362575D02*
X878206D01*
Y367019D01*
X879688Y368500D01*
X882650D01*
X884131Y367019D01*
Y362575D01*
X887094Y371462D02*
Y374425D01*
Y372943D01*
X881169D01*
Y371462D01*
X887094Y378868D02*
X881169D01*
Y383312D01*
X882650Y384793D01*
X887094D01*
Y387755D02*
Y392199D01*
X885612Y393680D01*
X884131Y392199D01*
Y389236D01*
X882650Y387755D01*
X881169Y389236D01*
Y393680D01*
X684530Y563879D02*
X683261Y565149D01*
X680722D01*
X679452Y563879D01*
Y558801D01*
X680722Y557531D01*
X683261D01*
X684530Y558801D01*
X687070Y563879D02*
X688339Y565149D01*
X690878D01*
X692148Y563879D01*
Y562610D01*
X690878Y561340D01*
X689609D01*
X690878D01*
X692148Y560070D01*
Y558801D01*
X690878Y557531D01*
X688339D01*
X687070Y558801D01*
X655319Y615945D02*
X656589Y614675D01*
Y612136D01*
X655319Y610866D01*
X650241D01*
X648971Y612136D01*
Y614675D01*
X650241Y615945D01*
X655319D01*
X648971Y608327D02*
X650241D01*
Y607057D01*
X648971D01*
Y608327D01*
Y601979D02*
Y599440D01*
Y600710D01*
X656589D01*
X655319Y601979D01*
X654050Y595631D02*
X650241D01*
X648971Y594362D01*
Y590553D01*
X654050D01*
X656589Y582935D02*
Y588014D01*
X652780D01*
Y585475D01*
Y588014D01*
X648971D01*
X574044Y139701D02*
Y147319D01*
X570236Y143510D01*
X575314D01*
X577853Y147319D02*
X582932D01*
Y146049D01*
X577853Y140971D01*
Y139701D01*
X585471Y146049D02*
X586740Y147319D01*
X589280D01*
X590549Y146049D01*
Y140971D01*
X589280Y139701D01*
X586740D01*
X585471Y140971D01*
Y146049D01*
X593088Y144780D02*
Y140971D01*
X594358Y139701D01*
X598167D01*
Y144780D01*
X605784Y147319D02*
X600706D01*
Y143510D01*
X603245D01*
X600706D01*
Y139701D01*
D14*
X617220Y393700D02*
X619760Y396240D01*
X523240Y393700D02*
X617220D01*
X520700Y396240D02*
X523240Y393700D01*
X619760Y396240D02*
X621030Y425450D01*
X519430D02*
X520700Y396240D01*
D15*
X437131Y609743D02*
X432561Y621741D01*
X427990Y609743D01*
X429704Y613743D02*
X435417D01*
X439930Y621741D02*
Y609743D01*
Y616028D02*
X441073Y617170D01*
X442215Y617742D01*
X443929D01*
X445072Y617170D01*
X446215Y616028D01*
X446786Y614314D01*
Y613171D01*
X446215Y611457D01*
X445072Y610315D01*
X443929Y609743D01*
X442215D01*
X441073Y610315D01*
X439930Y611457D01*
X456213Y621741D02*
Y609743D01*
Y616028D02*
X455070Y617170D01*
X453927Y617742D01*
X452213D01*
X451071Y617170D01*
X449928Y616028D01*
X449357Y614314D01*
Y613171D01*
X449928Y611457D01*
X451071Y610315D01*
X452213Y609743D01*
X453927D01*
X455070Y610315D01*
X456213Y611457D01*
X459412Y614314D02*
X466268D01*
Y615457D01*
X465696Y616599D01*
X465125Y617170D01*
X463982Y617742D01*
X462268D01*
X461126Y617170D01*
X459983Y616028D01*
X459412Y614314D01*
Y613171D01*
X459983Y611457D01*
X461126Y610315D01*
X462268Y609743D01*
X463982D01*
X465125Y610315D01*
X466268Y611457D01*
X468838Y621741D02*
Y609743D01*
X480779Y617742D02*
Y609743D01*
Y614314D02*
X481350Y616028D01*
X482493Y617170D01*
X483635Y617742D01*
X485349D01*
X493290D02*
Y609743D01*
Y616028D02*
X492148Y617170D01*
X491005Y617742D01*
X489291D01*
X488148Y617170D01*
X487006Y616028D01*
X486435Y614314D01*
Y613171D01*
X487006Y611457D01*
X488148Y610315D01*
X489291Y609743D01*
X491005D01*
X492148Y610315D01*
X493290Y611457D01*
X496490Y621741D02*
Y609743D01*
Y615457D02*
X498204Y617170D01*
X499346Y617742D01*
X501060D01*
X502203Y617170D01*
X502774Y615457D01*
Y609743D01*
X505916Y617742D02*
Y609743D01*
Y615457D02*
X507630Y617170D01*
X508773Y617742D01*
X510487D01*
X511629Y617170D01*
X512201Y615457D01*
Y609743D01*
Y615457D02*
X513914Y617170D01*
X515057Y617742D01*
X516771D01*
X517914Y617170D01*
X518485Y615457D01*
Y609743D01*
X529111Y617742D02*
Y609743D01*
Y616028D02*
X527969Y617170D01*
X526826Y617742D01*
X525112D01*
X523969Y617170D01*
X522827Y616028D01*
X522256Y614314D01*
Y613171D01*
X522827Y611457D01*
X523969Y610315D01*
X525112Y609743D01*
X526826D01*
X527969Y610315D01*
X529111Y611457D01*
X532310Y617742D02*
Y609743D01*
Y615457D02*
X534024Y617170D01*
X535167Y617742D01*
X536881D01*
X538024Y617170D01*
X538595Y615457D01*
Y609743D01*
X551164Y621741D02*
Y609743D01*
Y621741D02*
X555734Y609743D01*
X560304Y621741D02*
X555734Y609743D01*
X560304Y621741D02*
Y609743D01*
X566589Y617742D02*
X565446Y617170D01*
X564304Y616028D01*
X563732Y614314D01*
Y613171D01*
X564304Y611457D01*
X565446Y610315D01*
X566589Y609743D01*
X568303D01*
X569445Y610315D01*
X570588Y611457D01*
X571159Y613171D01*
Y614314D01*
X570588Y616028D01*
X569445Y617170D01*
X568303Y617742D01*
X566589D01*
X573787Y621741D02*
Y609743D01*
Y615457D02*
X575501Y617170D01*
X576644Y617742D01*
X578358D01*
X579500Y617170D01*
X580072Y615457D01*
Y609743D01*
X590070Y617742D02*
Y609743D01*
Y616028D02*
X588927Y617170D01*
X587784Y617742D01*
X586070D01*
X584928Y617170D01*
X583785Y616028D01*
X583214Y614314D01*
Y613171D01*
X583785Y611457D01*
X584928Y610315D01*
X586070Y609743D01*
X587784D01*
X588927Y610315D01*
X590070Y611457D01*
X593269Y617742D02*
Y609743D01*
Y615457D02*
X594983Y617170D01*
X596125Y617742D01*
X597839D01*
X598982Y617170D01*
X599553Y615457D01*
Y609743D01*
Y615457D02*
X601267Y617170D01*
X602410Y617742D01*
X604124D01*
X605266Y617170D01*
X605838Y615457D01*
Y609743D01*
X609608Y614314D02*
X616464D01*
Y615457D01*
X615893Y616599D01*
X615321Y617170D01*
X614179Y617742D01*
X612465D01*
X611322Y617170D01*
X610180Y616028D01*
X609608Y614314D01*
Y613171D01*
X610180Y611457D01*
X611322Y610315D01*
X612465Y609743D01*
X614179D01*
X615321Y610315D01*
X616464Y611457D01*
X625891Y621741D02*
Y609743D01*
Y616028D02*
X624748Y617170D01*
X623605Y617742D01*
X621891D01*
X620749Y617170D01*
X619606Y616028D01*
X619035Y614314D01*
Y613171D01*
X619606Y611457D01*
X620749Y610315D01*
X621891Y609743D01*
X623605D01*
X624748Y610315D01*
X625891Y611457D01*
X437131Y630024D02*
X432561Y642022D01*
X427990Y630024D01*
X429704Y634023D02*
X435417D01*
X439930Y642022D02*
Y630024D01*
Y636309D02*
X441073Y637451D01*
X442215Y638022D01*
X443929D01*
X445072Y637451D01*
X446215Y636309D01*
X446786Y634595D01*
Y633452D01*
X446215Y631738D01*
X445072Y630596D01*
X443929Y630024D01*
X442215D01*
X441073Y630596D01*
X439930Y631738D01*
X456213Y642022D02*
Y630024D01*
Y636309D02*
X455070Y637451D01*
X453927Y638022D01*
X452213D01*
X451071Y637451D01*
X449928Y636309D01*
X449357Y634595D01*
Y633452D01*
X449928Y631738D01*
X451071Y630596D01*
X452213Y630024D01*
X453927D01*
X455070Y630596D01*
X456213Y631738D01*
X459412Y638022D02*
Y632309D01*
X459983Y630596D01*
X461126Y630024D01*
X462840D01*
X463982Y630596D01*
X465696Y632309D01*
Y638022D02*
Y630024D01*
X468838Y642022D02*
Y630024D01*
X471352Y642022D02*
Y630024D01*
X480722Y638022D02*
Y630024D01*
Y636309D02*
X479579Y637451D01*
X478436Y638022D01*
X476722D01*
X475580Y637451D01*
X474437Y636309D01*
X473866Y634595D01*
Y633452D01*
X474437Y631738D01*
X475580Y630596D01*
X476722Y630024D01*
X478436D01*
X479579Y630596D01*
X480722Y631738D01*
X483921Y642022D02*
Y630024D01*
Y635737D02*
X485635Y637451D01*
X486777Y638022D01*
X488491D01*
X489634Y637451D01*
X490205Y635737D01*
Y630024D01*
X502774Y642022D02*
Y630024D01*
Y642022D02*
X507344Y630024D01*
X511915Y642022D02*
X507344Y630024D01*
X511915Y642022D02*
Y630024D01*
X518199Y638022D02*
X517057Y637451D01*
X515914Y636309D01*
X515343Y634595D01*
Y633452D01*
X515914Y631738D01*
X517057Y630596D01*
X518199Y630024D01*
X519913D01*
X521056Y630596D01*
X522198Y631738D01*
X522770Y633452D01*
Y634595D01*
X522198Y636309D01*
X521056Y637451D01*
X519913Y638022D01*
X518199D01*
X525398Y642022D02*
Y630024D01*
Y635737D02*
X527112Y637451D01*
X528254Y638022D01*
X529968D01*
X531111Y637451D01*
X531682Y635737D01*
Y630024D01*
X541680Y638022D02*
Y630024D01*
Y636309D02*
X540537Y637451D01*
X539395Y638022D01*
X537681D01*
X536538Y637451D01*
X535396Y636309D01*
X534824Y634595D01*
Y633452D01*
X535396Y631738D01*
X536538Y630596D01*
X537681Y630024D01*
X539395D01*
X540537Y630596D01*
X541680Y631738D01*
X544879Y638022D02*
Y630024D01*
Y635737D02*
X546593Y637451D01*
X547736Y638022D01*
X549450D01*
X550592Y637451D01*
X551164Y635737D01*
Y630024D01*
Y635737D02*
X552878Y637451D01*
X554020Y638022D01*
X555734D01*
X556877Y637451D01*
X557448Y635737D01*
Y630024D01*
X561219Y634595D02*
X568074D01*
Y635737D01*
X567503Y636880D01*
X566932Y637451D01*
X565789Y638022D01*
X564075D01*
X562933Y637451D01*
X561790Y636309D01*
X561219Y634595D01*
Y633452D01*
X561790Y631738D01*
X562933Y630596D01*
X564075Y630024D01*
X565789D01*
X566932Y630596D01*
X568074Y631738D01*
X577501Y642022D02*
Y630024D01*
Y636309D02*
X576358Y637451D01*
X575216Y638022D01*
X573502D01*
X572359Y637451D01*
X571217Y636309D01*
X570645Y634595D01*
Y633452D01*
X571217Y631738D01*
X572359Y630596D01*
X573502Y630024D01*
X575216D01*
X576358Y630596D01*
X577501Y631738D01*
X427990Y662302D02*
X432561Y656589D01*
Y650305D01*
X437131Y662302D02*
X432561Y656589D01*
X441530Y658303D02*
X440387Y657732D01*
X439245Y656589D01*
X438673Y654875D01*
Y653733D01*
X439245Y652019D01*
X440387Y650876D01*
X441530Y650305D01*
X443244D01*
X444386Y650876D01*
X445529Y652019D01*
X446100Y653733D01*
Y654875D01*
X445529Y656589D01*
X444386Y657732D01*
X443244Y658303D01*
X441530D01*
X448728D02*
Y650305D01*
Y656018D02*
X450442Y657732D01*
X451585Y658303D01*
X453299D01*
X454441Y657732D01*
X455013Y656018D01*
Y650305D01*
Y656018D02*
X456727Y657732D01*
X457869Y658303D01*
X459583D01*
X460726Y657732D01*
X461297Y656018D01*
Y650305D01*
X465068Y658303D02*
Y650305D01*
Y656018D02*
X466782Y657732D01*
X467924Y658303D01*
X469638D01*
X470781Y657732D01*
X471352Y656018D01*
Y650305D01*
X481350Y658303D02*
Y650305D01*
Y656589D02*
X480207Y657732D01*
X479065Y658303D01*
X477351D01*
X476208Y657732D01*
X475066Y656589D01*
X474494Y654875D01*
Y653733D01*
X475066Y652019D01*
X476208Y650876D01*
X477351Y650305D01*
X479065D01*
X480207Y650876D01*
X481350Y652019D01*
X493976Y662302D02*
Y650305D01*
Y662302D02*
X498546Y650305D01*
X503117Y662302D02*
X498546Y650305D01*
X503117Y662302D02*
Y650305D01*
X509401Y658303D02*
X508259Y657732D01*
X507116Y656589D01*
X506545Y654875D01*
Y653733D01*
X507116Y652019D01*
X508259Y650876D01*
X509401Y650305D01*
X511115D01*
X512258Y650876D01*
X513400Y652019D01*
X513972Y653733D01*
Y654875D01*
X513400Y656589D01*
X512258Y657732D01*
X511115Y658303D01*
X509401D01*
X516600Y662302D02*
Y650305D01*
Y656018D02*
X518313Y657732D01*
X519456Y658303D01*
X521170D01*
X522313Y657732D01*
X522884Y656018D01*
Y650305D01*
X532882Y658303D02*
Y650305D01*
Y656589D02*
X531739Y657732D01*
X530597Y658303D01*
X528883D01*
X527740Y657732D01*
X526597Y656589D01*
X526026Y654875D01*
Y653733D01*
X526597Y652019D01*
X527740Y650876D01*
X528883Y650305D01*
X530597D01*
X531739Y650876D01*
X532882Y652019D01*
X536081Y658303D02*
Y650305D01*
Y656018D02*
X537795Y657732D01*
X538938Y658303D01*
X540652D01*
X541794Y657732D01*
X542365Y656018D01*
Y650305D01*
Y656018D02*
X544079Y657732D01*
X545222Y658303D01*
X546936D01*
X548079Y657732D01*
X548650Y656018D01*
Y650305D01*
X552421Y654875D02*
X559276D01*
Y656018D01*
X558705Y657161D01*
X558134Y657732D01*
X556991Y658303D01*
X555277D01*
X554134Y657732D01*
X552992Y656589D01*
X552421Y654875D01*
Y653733D01*
X552992Y652019D01*
X554134Y650876D01*
X555277Y650305D01*
X556991D01*
X558134Y650876D01*
X559276Y652019D01*
X568703Y662302D02*
Y650305D01*
Y656589D02*
X567560Y657732D01*
X566418Y658303D01*
X564704D01*
X563561Y657732D01*
X562418Y656589D01*
X561847Y654875D01*
Y653733D01*
X562418Y652019D01*
X563561Y650876D01*
X564704Y650305D01*
X566418D01*
X567560Y650876D01*
X568703Y652019D01*
X437131Y670586D02*
X432561Y682583D01*
X427990Y670586D01*
X429704Y674585D02*
X435417D01*
X439930Y682583D02*
Y670586D01*
Y676299D02*
X441644Y678013D01*
X442787Y678584D01*
X444501D01*
X445643Y678013D01*
X446215Y676299D01*
Y670586D01*
X449357Y678584D02*
Y670586D01*
Y676299D02*
X451071Y678013D01*
X452213Y678584D01*
X453927D01*
X455070Y678013D01*
X455641Y676299D01*
Y670586D01*
Y676299D02*
X457355Y678013D01*
X458498Y678584D01*
X460212D01*
X461354Y678013D01*
X461926Y676299D01*
Y670586D01*
X465696Y675156D02*
X472552D01*
Y676299D01*
X471981Y677441D01*
X471409Y678013D01*
X470267Y678584D01*
X468553D01*
X467410Y678013D01*
X466268Y676870D01*
X465696Y675156D01*
Y674014D01*
X466268Y672300D01*
X467410Y671157D01*
X468553Y670586D01*
X470267D01*
X471409Y671157D01*
X472552Y672300D01*
X481978Y682583D02*
Y670586D01*
Y676870D02*
X480836Y678013D01*
X479693Y678584D01*
X477979D01*
X476837Y678013D01*
X475694Y676870D01*
X475123Y675156D01*
Y674014D01*
X475694Y672300D01*
X476837Y671157D01*
X477979Y670586D01*
X479693D01*
X480836Y671157D01*
X481978Y672300D01*
X494604Y682583D02*
Y670586D01*
X502603Y682583D02*
Y670586D01*
X494604Y676870D02*
X502603D01*
X512772Y678584D02*
Y670586D01*
Y676870D02*
X511629Y678013D01*
X510487Y678584D01*
X508773D01*
X507630Y678013D01*
X506488Y676870D01*
X505916Y675156D01*
Y674014D01*
X506488Y672300D01*
X507630Y671157D01*
X508773Y670586D01*
X510487D01*
X511629Y671157D01*
X512772Y672300D01*
X522256Y676870D02*
X521684Y678013D01*
X519970Y678584D01*
X518256D01*
X516543Y678013D01*
X515971Y676870D01*
X516543Y675727D01*
X517685Y675156D01*
X520542Y674585D01*
X521684Y674014D01*
X522256Y672871D01*
Y672300D01*
X521684Y671157D01*
X519970Y670586D01*
X518256D01*
X516543Y671157D01*
X515971Y672300D01*
X531054Y676870D02*
X530482Y678013D01*
X528769Y678584D01*
X527054D01*
X525341Y678013D01*
X524769Y676870D01*
X525341Y675727D01*
X526483Y675156D01*
X529340Y674585D01*
X530482Y674014D01*
X531054Y672871D01*
Y672300D01*
X530482Y671157D01*
X528769Y670586D01*
X527054D01*
X525341Y671157D01*
X524769Y672300D01*
X540423Y678584D02*
Y670586D01*
Y676870D02*
X539281Y678013D01*
X538138Y678584D01*
X536424D01*
X535281Y678013D01*
X534139Y676870D01*
X533567Y675156D01*
Y674014D01*
X534139Y672300D01*
X535281Y671157D01*
X536424Y670586D01*
X538138D01*
X539281Y671157D01*
X540423Y672300D01*
X543622Y678584D02*
Y670586D01*
Y676299D02*
X545336Y678013D01*
X546479Y678584D01*
X548193D01*
X549336Y678013D01*
X549907Y676299D01*
Y670586D01*
X427990Y702864D02*
Y690866D01*
X435988Y702864D02*
X427990Y694866D01*
X430846Y697722D02*
X435988Y690866D01*
X438673Y702864D02*
Y690866D01*
Y696580D02*
X440387Y698294D01*
X441530Y698865D01*
X443244D01*
X444386Y698294D01*
X444958Y696580D01*
Y690866D01*
X454956Y698865D02*
Y690866D01*
Y697151D02*
X453813Y698294D01*
X452670Y698865D01*
X450956D01*
X449814Y698294D01*
X448671Y697151D01*
X448100Y695437D01*
Y694294D01*
X448671Y692580D01*
X449814Y691438D01*
X450956Y690866D01*
X452670D01*
X453813Y691438D01*
X454956Y692580D01*
X458155Y702864D02*
Y690866D01*
X460669Y695437D02*
X467524D01*
Y696580D01*
X466953Y697722D01*
X466382Y698294D01*
X465239Y698865D01*
X463525D01*
X462383Y698294D01*
X461240Y697151D01*
X460669Y695437D01*
Y694294D01*
X461240Y692580D01*
X462383Y691438D01*
X463525Y690866D01*
X465239D01*
X466382Y691438D01*
X467524Y692580D01*
X476951Y702864D02*
Y690866D01*
Y697151D02*
X475808Y698294D01*
X474666Y698865D01*
X472952D01*
X471809Y698294D01*
X470667Y697151D01*
X470095Y695437D01*
Y694294D01*
X470667Y692580D01*
X471809Y691438D01*
X472952Y690866D01*
X474666D01*
X475808Y691438D01*
X476951Y692580D01*
X489577Y702864D02*
Y690866D01*
Y702864D02*
X494719D01*
X496432Y702293D01*
X497004Y701721D01*
X497575Y700579D01*
Y699436D01*
X497004Y698294D01*
X496432Y697722D01*
X494719Y697151D01*
X489577D01*
X493576D02*
X497575Y690866D01*
X507116Y698865D02*
Y690866D01*
Y697151D02*
X505973Y698294D01*
X504831Y698865D01*
X503117D01*
X501974Y698294D01*
X500831Y697151D01*
X500260Y695437D01*
Y694294D01*
X500831Y692580D01*
X501974Y691438D01*
X503117Y690866D01*
X504831D01*
X505973Y691438D01*
X507116Y692580D01*
X516600Y697151D02*
X516028Y698294D01*
X514314Y698865D01*
X512600D01*
X510886Y698294D01*
X510315Y697151D01*
X510886Y696008D01*
X512029Y695437D01*
X514886Y694866D01*
X516028Y694294D01*
X516600Y693152D01*
Y692580D01*
X516028Y691438D01*
X514314Y690866D01*
X512600D01*
X510886Y691438D01*
X510315Y692580D01*
X519113Y702864D02*
Y690866D01*
Y696580D02*
X520827Y698294D01*
X521970Y698865D01*
X523684D01*
X524826Y698294D01*
X525398Y696580D01*
Y690866D01*
X528540Y695437D02*
X535396D01*
Y696580D01*
X534824Y697722D01*
X534253Y698294D01*
X533110Y698865D01*
X531396D01*
X530254Y698294D01*
X529111Y697151D01*
X528540Y695437D01*
Y694294D01*
X529111Y692580D01*
X530254Y691438D01*
X531396Y690866D01*
X533110D01*
X534253Y691438D01*
X535396Y692580D01*
X544822Y702864D02*
Y690866D01*
Y697151D02*
X543680Y698294D01*
X542537Y698865D01*
X540823D01*
X539680Y698294D01*
X538538Y697151D01*
X537966Y695437D01*
Y694294D01*
X538538Y692580D01*
X539680Y691438D01*
X540823Y690866D01*
X542537D01*
X543680Y691438D01*
X544822Y692580D01*
X437131Y711147D02*
X432561Y723145D01*
X427990Y711147D01*
X429704Y715146D02*
X435417D01*
X439930Y719146D02*
Y711147D01*
Y716860D02*
X441644Y718574D01*
X442787Y719146D01*
X444501D01*
X445643Y718574D01*
X446215Y716860D01*
Y711147D01*
Y716860D02*
X447929Y718574D01*
X449071Y719146D01*
X450785D01*
X451928Y718574D01*
X452499Y716860D01*
Y711147D01*
X456270Y719146D02*
Y711147D01*
Y715718D02*
X456841Y717432D01*
X457984Y718574D01*
X459126Y719146D01*
X460840D01*
X480493Y711147D02*
X475923Y723145D01*
X471352Y711147D01*
X473066Y715146D02*
X478779D01*
X483293Y723145D02*
Y711147D01*
Y716860D02*
X485006Y718574D01*
X486149Y719146D01*
X487863D01*
X489006Y718574D01*
X489577Y716860D01*
Y711147D01*
X492719Y719146D02*
Y711147D01*
Y716860D02*
X494433Y718574D01*
X495575Y719146D01*
X497290D01*
X498432Y718574D01*
X499003Y716860D01*
Y711147D01*
Y716860D02*
X500717Y718574D01*
X501860Y719146D01*
X503574D01*
X504716Y718574D01*
X505288Y716860D01*
Y711147D01*
X509058Y715718D02*
X515914D01*
Y716860D01*
X515343Y718003D01*
X514771Y718574D01*
X513629Y719146D01*
X511915D01*
X510772Y718574D01*
X509630Y717432D01*
X509058Y715718D01*
Y714575D01*
X509630Y712861D01*
X510772Y711719D01*
X511915Y711147D01*
X513629D01*
X514771Y711719D01*
X515914Y712861D01*
X525341Y723145D02*
Y711147D01*
Y717432D02*
X524198Y718574D01*
X523055Y719146D01*
X521342D01*
X520199Y718574D01*
X519056Y717432D01*
X518485Y715718D01*
Y714575D01*
X519056Y712861D01*
X520199Y711719D01*
X521342Y711147D01*
X523055D01*
X524198Y711719D01*
X525341Y712861D01*
X435988Y743426D02*
X427990Y731428D01*
Y743426D02*
X435988D01*
X427990Y731428D02*
X435988D01*
X439816Y743426D02*
X440387Y742854D01*
X440959Y743426D01*
X440387Y743997D01*
X439816Y743426D01*
X440387Y739426D02*
Y731428D01*
X449928Y739426D02*
Y731428D01*
Y737712D02*
X448786Y738855D01*
X447643Y739426D01*
X445929D01*
X444786Y738855D01*
X443644Y737712D01*
X443073Y735999D01*
Y734856D01*
X443644Y733142D01*
X444786Y731999D01*
X445929Y731428D01*
X447643D01*
X448786Y731999D01*
X449928Y733142D01*
X459983Y743426D02*
Y731428D01*
Y737712D02*
X458840Y738855D01*
X457698Y739426D01*
X455984D01*
X454841Y738855D01*
X453699Y737712D01*
X453128Y735999D01*
Y734856D01*
X453699Y733142D01*
X454841Y731999D01*
X455984Y731428D01*
X457698D01*
X458840Y731999D01*
X459983Y733142D01*
X472609Y743426D02*
X477179Y737712D01*
Y731428D01*
X481750Y743426D02*
X477179Y737712D01*
X490148Y739426D02*
Y731428D01*
Y737712D02*
X489006Y738855D01*
X487863Y739426D01*
X486149D01*
X485006Y738855D01*
X483864Y737712D01*
X483292Y735999D01*
Y734856D01*
X483864Y733142D01*
X485006Y731999D01*
X486149Y731428D01*
X487863D01*
X489006Y731999D01*
X490148Y733142D01*
X499632Y737712D02*
X499061Y738855D01*
X497347Y739426D01*
X495633D01*
X493919Y738855D01*
X493347Y737712D01*
X493919Y736570D01*
X495061Y735999D01*
X497918Y735427D01*
X499061Y734856D01*
X499632Y733713D01*
Y733142D01*
X499061Y731999D01*
X497347Y731428D01*
X495633D01*
X493919Y731999D01*
X493347Y733142D01*
X508430Y737712D02*
X507859Y738855D01*
X506145Y739426D01*
X504431D01*
X502717Y738855D01*
X502146Y737712D01*
X502717Y736570D01*
X503859Y735999D01*
X506716Y735427D01*
X507859Y734856D01*
X508430Y733713D01*
Y733142D01*
X507859Y731999D01*
X506145Y731428D01*
X504431D01*
X502717Y731999D01*
X502146Y733142D01*
X510944Y735999D02*
X517799D01*
Y737141D01*
X517228Y738284D01*
X516657Y738855D01*
X515514Y739426D01*
X513800D01*
X512658Y738855D01*
X511515Y737712D01*
X510944Y735999D01*
Y734856D01*
X511515Y733142D01*
X512658Y731999D01*
X513800Y731428D01*
X515514D01*
X516657Y731999D01*
X517799Y733142D01*
X520370Y739426D02*
Y731428D01*
Y735999D02*
X520942Y737712D01*
X522084Y738855D01*
X523227Y739426D01*
X524941D01*
X616987Y-123556D02*
X615898Y-122467D01*
X614266Y-121923D01*
X612089D01*
X610457Y-122467D01*
X609368Y-123556D01*
Y-124644D01*
X609912Y-125732D01*
X610457Y-126277D01*
X611545Y-126821D01*
X614810Y-127909D01*
X615898Y-128453D01*
X616443Y-128997D01*
X616987Y-130086D01*
Y-131718D01*
X615898Y-132807D01*
X614266Y-133351D01*
X612089D01*
X610457Y-132807D01*
X609368Y-131718D01*
X619544Y-125732D02*
Y-131174D01*
X620089Y-132807D01*
X621177Y-133351D01*
X622809D01*
X623898Y-132807D01*
X625530Y-131174D01*
Y-125732D02*
Y-133351D01*
X628523Y-125732D02*
Y-137160D01*
Y-127365D02*
X629612Y-126277D01*
X630700Y-125732D01*
X632332D01*
X633421Y-126277D01*
X634509Y-127365D01*
X635053Y-128997D01*
Y-130086D01*
X634509Y-131718D01*
X633421Y-132807D01*
X632332Y-133351D01*
X630700D01*
X629612Y-132807D01*
X628523Y-131718D01*
X637502Y-128997D02*
X644032D01*
Y-127909D01*
X643488Y-126821D01*
X642944Y-126277D01*
X641855Y-125732D01*
X640223D01*
X639134Y-126277D01*
X638046Y-127365D01*
X637502Y-128997D01*
Y-130086D01*
X638046Y-131718D01*
X639134Y-132807D01*
X640223Y-133351D01*
X641855D01*
X642944Y-132807D01*
X644032Y-131718D01*
X646481Y-125732D02*
Y-133351D01*
Y-128997D02*
X647025Y-127365D01*
X648113Y-126277D01*
X649202Y-125732D01*
X650834D01*
X651868Y-121923D02*
X656221Y-133351D01*
X660575Y-121923D02*
X656221Y-133351D01*
X663132Y-121923D02*
X663676Y-122467D01*
X664221Y-121923D01*
X663676Y-121379D01*
X663132Y-121923D01*
X663676Y-125732D02*
Y-133351D01*
X672220Y-127365D02*
X671676Y-126277D01*
X670043Y-125732D01*
X668411D01*
X666778Y-126277D01*
X666234Y-127365D01*
X666778Y-128453D01*
X667867Y-128997D01*
X670587Y-129542D01*
X671676Y-130086D01*
X672220Y-131174D01*
Y-131718D01*
X671676Y-132807D01*
X670043Y-133351D01*
X668411D01*
X666778Y-132807D01*
X666234Y-131718D01*
X674614Y-128997D02*
X681144D01*
Y-127909D01*
X680600Y-126821D01*
X680056Y-126277D01*
X678968Y-125732D01*
X677335D01*
X676247Y-126277D01*
X675158Y-127365D01*
X674614Y-128997D01*
Y-130086D01*
X675158Y-131718D01*
X676247Y-132807D01*
X677335Y-133351D01*
X678968D01*
X680056Y-132807D01*
X681144Y-131718D01*
X690123Y-121923D02*
Y-133351D01*
Y-127365D02*
X689035Y-126277D01*
X687946Y-125732D01*
X686314D01*
X685226Y-126277D01*
X684137Y-127365D01*
X683593Y-128997D01*
Y-130086D01*
X684137Y-131718D01*
X685226Y-132807D01*
X686314Y-133351D01*
X687946D01*
X689035Y-132807D01*
X690123Y-131718D01*
X702149Y-121923D02*
Y-133351D01*
Y-127365D02*
X703238Y-126277D01*
X704326Y-125732D01*
X705958D01*
X707047Y-126277D01*
X708135Y-127365D01*
X708679Y-128997D01*
Y-130086D01*
X708135Y-131718D01*
X707047Y-132807D01*
X705958Y-133351D01*
X704326D01*
X703238Y-132807D01*
X702149Y-131718D01*
X711672Y-125732D02*
X714937Y-133351D01*
X718202Y-125732D02*
X714937Y-133351D01*
X713849Y-135527D01*
X712760Y-136616D01*
X711672Y-137160D01*
X711128D01*
X729630Y-125732D02*
X729086Y-126277D01*
X729630Y-126821D01*
X730174Y-126277D01*
X729630Y-125732D01*
Y-132262D02*
X729086Y-132807D01*
X729630Y-133351D01*
X730174Y-132807D01*
X729630Y-132262D01*
X741656Y-121923D02*
Y-133351D01*
Y-121923D02*
X745465D01*
X747098Y-122467D01*
X748186Y-123556D01*
X748730Y-124644D01*
X749274Y-126277D01*
Y-128997D01*
X748730Y-130630D01*
X748186Y-131718D01*
X747098Y-132807D01*
X745465Y-133351D01*
X741656D01*
X751832Y-125732D02*
Y-133351D01*
Y-128997D02*
X752376Y-127365D01*
X753464Y-126277D01*
X754553Y-125732D01*
X756185D01*
X757763Y-132262D02*
X757219Y-132807D01*
X757763Y-133351D01*
X758307Y-132807D01*
X757763Y-132262D01*
X760811Y-121923D02*
Y-133351D01*
Y-121923D02*
X765164Y-133351D01*
X769517Y-121923D02*
X765164Y-133351D01*
X769517Y-121923D02*
Y-133351D01*
X775503Y-125732D02*
X774415Y-126277D01*
X773326Y-127365D01*
X772782Y-128997D01*
Y-130086D01*
X773326Y-131718D01*
X774415Y-132807D01*
X775503Y-133351D01*
X777136D01*
X778224Y-132807D01*
X779312Y-131718D01*
X779857Y-130086D01*
Y-128997D01*
X779312Y-127365D01*
X778224Y-126277D01*
X777136Y-125732D01*
X775503D01*
X782360Y-121923D02*
Y-133351D01*
Y-127909D02*
X783992Y-126277D01*
X785081Y-125732D01*
X786713D01*
X787801Y-126277D01*
X788346Y-127909D01*
Y-133351D01*
X797869Y-125732D02*
Y-133351D01*
Y-127365D02*
X796780Y-126277D01*
X795692Y-125732D01*
X794059D01*
X792971Y-126277D01*
X791883Y-127365D01*
X791339Y-128997D01*
Y-130086D01*
X791883Y-131718D01*
X792971Y-132807D01*
X794059Y-133351D01*
X795692D01*
X796780Y-132807D01*
X797869Y-131718D01*
X800916Y-125732D02*
Y-133351D01*
Y-127909D02*
X802548Y-126277D01*
X803637Y-125732D01*
X805269D01*
X806358Y-126277D01*
X806902Y-127909D01*
Y-133351D01*
Y-127909D02*
X808534Y-126277D01*
X809623Y-125732D01*
X811255D01*
X812344Y-126277D01*
X812888Y-127909D01*
Y-133351D01*
X816479Y-128997D02*
X823009D01*
Y-127909D01*
X822465Y-126821D01*
X821921Y-126277D01*
X820833Y-125732D01*
X819200D01*
X818112Y-126277D01*
X817023Y-127365D01*
X816479Y-128997D01*
Y-130086D01*
X817023Y-131718D01*
X818112Y-132807D01*
X819200Y-133351D01*
X820833D01*
X821921Y-132807D01*
X823009Y-131718D01*
X831988Y-121923D02*
Y-133351D01*
Y-127365D02*
X830900Y-126277D01*
X829811Y-125732D01*
X828179D01*
X827091Y-126277D01*
X826002Y-127365D01*
X825458Y-128997D01*
Y-130086D01*
X826002Y-131718D01*
X827091Y-132807D01*
X828179Y-133351D01*
X829811D01*
X830900Y-132807D01*
X831988Y-131718D01*
X844014Y-121923D02*
Y-133351D01*
Y-121923D02*
X848367Y-133351D01*
X852721Y-121923D02*
X848367Y-133351D01*
X852721Y-121923D02*
Y-133351D01*
X858707Y-125732D02*
X857618Y-126277D01*
X856530Y-127365D01*
X855986Y-128997D01*
Y-130086D01*
X856530Y-131718D01*
X857618Y-132807D01*
X858707Y-133351D01*
X860339D01*
X861428Y-132807D01*
X862516Y-131718D01*
X863060Y-130086D01*
Y-128997D01*
X862516Y-127365D01*
X861428Y-126277D01*
X860339Y-125732D01*
X858707D01*
X871549Y-127365D02*
X871005Y-126277D01*
X869372Y-125732D01*
X867740D01*
X866107Y-126277D01*
X865563Y-127365D01*
X866107Y-128453D01*
X867196Y-128997D01*
X869917Y-129542D01*
X871005Y-130086D01*
X871549Y-131174D01*
Y-131718D01*
X871005Y-132807D01*
X869372Y-133351D01*
X867740D01*
X866107Y-132807D01*
X865563Y-131718D01*
X875576Y-121923D02*
Y-131174D01*
X876120Y-132807D01*
X877208Y-133351D01*
X878297D01*
X873943Y-125732D02*
X877753D01*
X886459D02*
Y-133351D01*
Y-127365D02*
X885371Y-126277D01*
X884283Y-125732D01*
X882650D01*
X881562Y-126277D01*
X880473Y-127365D01*
X879929Y-128997D01*
Y-130086D01*
X880473Y-131718D01*
X881562Y-132807D01*
X882650Y-133351D01*
X884283D01*
X885371Y-132807D01*
X886459Y-131718D01*
X893860Y-121923D02*
X892772D01*
X891683Y-122467D01*
X891139Y-124100D01*
Y-133351D01*
X889507Y-125732D02*
X893316D01*
X902023D02*
Y-133351D01*
Y-127365D02*
X900934Y-126277D01*
X899846Y-125732D01*
X898213D01*
X897125Y-126277D01*
X896037Y-127365D01*
X895492Y-128997D01*
Y-130086D01*
X896037Y-131718D01*
X897125Y-132807D01*
X898213Y-133351D01*
X899846D01*
X900934Y-132807D01*
X902023Y-131718D01*
X415107Y557530D02*
X406400D01*
X410753Y561883D02*
Y553177D01*
X679267Y647700D02*
X670560D01*
X674913Y652053D02*
Y643347D01*
X446857Y132080D02*
X438150D01*
X442503Y136433D02*
Y127727D01*
X232227Y684530D02*
X223520D01*
X227873Y688883D02*
Y680177D01*
X66040Y-26853D02*
Y-35560D01*
X61687Y-31207D02*
X70393D01*
X164557Y-31388D02*
X173263D01*
X13960Y-121923D02*
Y-133351D01*
Y-121923D02*
X17769D01*
X19402Y-122467D01*
X20490Y-123556D01*
X21034Y-124644D01*
X21578Y-126277D01*
Y-128997D01*
X21034Y-130630D01*
X20490Y-131718D01*
X19402Y-132807D01*
X17769Y-133351D01*
X13960D01*
X24136Y-128997D02*
X30666D01*
Y-127909D01*
X30122Y-126821D01*
X29578Y-126277D01*
X28489Y-125732D01*
X26857D01*
X25768Y-126277D01*
X24680Y-127365D01*
X24136Y-128997D01*
Y-130086D01*
X24680Y-131718D01*
X25768Y-132807D01*
X26857Y-133351D01*
X28489D01*
X29578Y-132807D01*
X30666Y-131718D01*
X39100Y-127365D02*
X38556Y-126277D01*
X36924Y-125732D01*
X35291D01*
X33659Y-126277D01*
X33115Y-127365D01*
X33659Y-128453D01*
X34747Y-128997D01*
X37468Y-129542D01*
X38556Y-130086D01*
X39100Y-131174D01*
Y-131718D01*
X38556Y-132807D01*
X36924Y-133351D01*
X35291D01*
X33659Y-132807D01*
X33115Y-131718D01*
X42583Y-121923D02*
X43127Y-122467D01*
X43671Y-121923D01*
X43127Y-121379D01*
X42583Y-121923D01*
X43127Y-125732D02*
Y-133351D01*
X52215Y-125732D02*
Y-134439D01*
X51671Y-136072D01*
X51127Y-136616D01*
X50038Y-137160D01*
X48406D01*
X47318Y-136616D01*
X52215Y-127365D02*
X51127Y-126277D01*
X50038Y-125732D01*
X48406D01*
X47318Y-126277D01*
X46229Y-127365D01*
X45685Y-128997D01*
Y-130086D01*
X46229Y-131718D01*
X47318Y-132807D01*
X48406Y-133351D01*
X50038D01*
X51127Y-132807D01*
X52215Y-131718D01*
X55262Y-125732D02*
Y-133351D01*
Y-127909D02*
X56895Y-126277D01*
X57983Y-125732D01*
X59616D01*
X60704Y-126277D01*
X61248Y-127909D01*
Y-133351D01*
X64241Y-128997D02*
X70771D01*
Y-127909D01*
X70227Y-126821D01*
X69683Y-126277D01*
X68594Y-125732D01*
X66962D01*
X65874Y-126277D01*
X64785Y-127365D01*
X64241Y-128997D01*
Y-130086D01*
X64785Y-131718D01*
X65874Y-132807D01*
X66962Y-133351D01*
X68594D01*
X69683Y-132807D01*
X70771Y-131718D01*
X79750Y-121923D02*
Y-133351D01*
Y-127365D02*
X78662Y-126277D01*
X77573Y-125732D01*
X75941D01*
X74852Y-126277D01*
X73764Y-127365D01*
X73220Y-128997D01*
Y-130086D01*
X73764Y-131718D01*
X74852Y-132807D01*
X75941Y-133351D01*
X77573D01*
X78662Y-132807D01*
X79750Y-131718D01*
X91776Y-121923D02*
Y-133351D01*
Y-127365D02*
X92864Y-126277D01*
X93953Y-125732D01*
X95585D01*
X96674Y-126277D01*
X97762Y-127365D01*
X98306Y-128997D01*
Y-130086D01*
X97762Y-131718D01*
X96674Y-132807D01*
X95585Y-133351D01*
X93953D01*
X92864Y-132807D01*
X91776Y-131718D01*
X101299Y-125732D02*
X104564Y-133351D01*
X107829Y-125732D02*
X104564Y-133351D01*
X103476Y-135527D01*
X102387Y-136616D01*
X101299Y-137160D01*
X100755D01*
X119257Y-125732D02*
X118713Y-126277D01*
X119257Y-126821D01*
X119801Y-126277D01*
X119257Y-125732D01*
Y-132262D02*
X118713Y-132807D01*
X119257Y-133351D01*
X119801Y-132807D01*
X119257Y-132262D01*
X130466Y-124644D02*
X129922Y-123556D01*
X128834Y-122467D01*
X127746Y-121923D01*
X125569D01*
X124481Y-122467D01*
X123392Y-123556D01*
X122848Y-124644D01*
X122304Y-126277D01*
Y-128997D01*
X122848Y-130630D01*
X123392Y-131718D01*
X124481Y-132807D01*
X125569Y-133351D01*
X127746D01*
X128834Y-132807D01*
X129922Y-131718D01*
X130466Y-130630D01*
Y-128997D01*
X127746D02*
X130466D01*
X139609Y-125732D02*
Y-133351D01*
Y-127365D02*
X138520Y-126277D01*
X137432Y-125732D01*
X135799D01*
X134711Y-126277D01*
X133623Y-127365D01*
X133079Y-128997D01*
Y-130086D01*
X133623Y-131718D01*
X134711Y-132807D01*
X135799Y-133351D01*
X137432D01*
X138520Y-132807D01*
X139609Y-131718D01*
X142656Y-125732D02*
Y-133351D01*
Y-127909D02*
X144288Y-126277D01*
X145377Y-125732D01*
X147009D01*
X148098Y-126277D01*
X148642Y-127909D01*
Y-133351D01*
X151635Y-125732D02*
Y-133351D01*
Y-127909D02*
X153267Y-126277D01*
X154356Y-125732D01*
X155988D01*
X157076Y-126277D01*
X157621Y-127909D01*
Y-133351D01*
X167144Y-125732D02*
Y-133351D01*
Y-127365D02*
X166055Y-126277D01*
X164967Y-125732D01*
X163334D01*
X162246Y-126277D01*
X161158Y-127365D01*
X160613Y-128997D01*
Y-130086D01*
X161158Y-131718D01*
X162246Y-132807D01*
X163334Y-133351D01*
X164967D01*
X166055Y-132807D01*
X167144Y-131718D01*
X187876Y-133351D02*
X183523Y-121923D01*
X179170Y-133351D01*
X180802Y-129542D02*
X186244D01*
X191087Y-125732D02*
X194352Y-133351D01*
X197617Y-125732D02*
X194352Y-133351D01*
X193264Y-135527D01*
X192175Y-136616D01*
X191087Y-137160D01*
X190543D01*
X199522Y-125732D02*
Y-133351D01*
Y-127909D02*
X201154Y-126277D01*
X202243Y-125732D01*
X203875D01*
X204963Y-126277D01*
X205508Y-127909D01*
Y-133351D01*
Y-127909D02*
X207140Y-126277D01*
X208228Y-125732D01*
X209861D01*
X210949Y-126277D01*
X211493Y-127909D01*
Y-133351D01*
X221615Y-125732D02*
Y-133351D01*
Y-127365D02*
X220527Y-126277D01*
X219438Y-125732D01*
X217806D01*
X216717Y-126277D01*
X215629Y-127365D01*
X215085Y-128997D01*
Y-130086D01*
X215629Y-131718D01*
X216717Y-132807D01*
X217806Y-133351D01*
X219438D01*
X220527Y-132807D01*
X221615Y-131718D01*
X224662Y-125732D02*
Y-133351D01*
Y-127909D02*
X226295Y-126277D01*
X227383Y-125732D01*
X229016D01*
X230104Y-126277D01*
X230648Y-127909D01*
Y-133351D01*
X265274Y-121923D02*
Y-133351D01*
Y-121923D02*
X270171D01*
X271804Y-122467D01*
X272348Y-123012D01*
X272892Y-124100D01*
Y-125188D01*
X272348Y-126277D01*
X271804Y-126821D01*
X270171Y-127365D01*
X265274D02*
X270171D01*
X271804Y-127909D01*
X272348Y-128453D01*
X272892Y-129542D01*
Y-131174D01*
X272348Y-132262D01*
X271804Y-132807D01*
X270171Y-133351D01*
X265274D01*
X281980Y-125732D02*
Y-133351D01*
Y-127365D02*
X280891Y-126277D01*
X279803Y-125732D01*
X278171D01*
X277082Y-126277D01*
X275994Y-127365D01*
X275450Y-128997D01*
Y-130086D01*
X275994Y-131718D01*
X277082Y-132807D01*
X278171Y-133351D01*
X279803D01*
X280891Y-132807D01*
X281980Y-131718D01*
X286660Y-121923D02*
Y-131174D01*
X287204Y-132807D01*
X288292Y-133351D01*
X289380D01*
X285027Y-125732D02*
X288836D01*
X292645Y-121923D02*
Y-131174D01*
X293190Y-132807D01*
X294278Y-133351D01*
X295366D01*
X291013Y-125732D02*
X294822D01*
X296999Y-128997D02*
X303529D01*
Y-127909D01*
X302985Y-126821D01*
X302440Y-126277D01*
X301352Y-125732D01*
X299720D01*
X298631Y-126277D01*
X297543Y-127365D01*
X296999Y-128997D01*
Y-130086D01*
X297543Y-131718D01*
X298631Y-132807D01*
X299720Y-133351D01*
X301352D01*
X302440Y-132807D01*
X303529Y-131718D01*
X305978Y-125732D02*
Y-133351D01*
Y-128997D02*
X306522Y-127365D01*
X307610Y-126277D01*
X308698Y-125732D01*
X310331D01*
X311909D02*
X315174Y-133351D01*
X318439Y-125732D02*
X315174Y-133351D01*
X314086Y-135527D01*
X312997Y-136616D01*
X311909Y-137160D01*
X311365D01*
X329323Y-121923D02*
Y-133351D01*
Y-121923D02*
X333676Y-133351D01*
X338029Y-121923D02*
X333676Y-133351D01*
X338029Y-121923D02*
Y-133351D01*
X347824Y-125732D02*
Y-133351D01*
Y-127365D02*
X346736Y-126277D01*
X345648Y-125732D01*
X344015D01*
X342927Y-126277D01*
X341838Y-127365D01*
X341294Y-128997D01*
Y-130086D01*
X341838Y-131718D01*
X342927Y-132807D01*
X344015Y-133351D01*
X345648D01*
X346736Y-132807D01*
X347824Y-131718D01*
X350872Y-125732D02*
Y-133351D01*
Y-127909D02*
X352504Y-126277D01*
X353592Y-125732D01*
X355225D01*
X356313Y-126277D01*
X356857Y-127909D01*
Y-133351D01*
X359850Y-128997D02*
X366380D01*
Y-127909D01*
X365836Y-126821D01*
X365292Y-126277D01*
X364204Y-125732D01*
X362571D01*
X361483Y-126277D01*
X360395Y-127365D01*
X359850Y-128997D01*
Y-130086D01*
X360395Y-131718D01*
X361483Y-132807D01*
X362571Y-133351D01*
X364204D01*
X365292Y-132807D01*
X366380Y-131718D01*
X375359Y-125732D02*
Y-134439D01*
X374815Y-136072D01*
X374271Y-136616D01*
X373182Y-137160D01*
X371550D01*
X370462Y-136616D01*
X375359Y-127365D02*
X374271Y-126277D01*
X373182Y-125732D01*
X371550D01*
X370462Y-126277D01*
X369373Y-127365D01*
X368829Y-128997D01*
Y-130086D01*
X369373Y-131718D01*
X370462Y-132807D01*
X371550Y-133351D01*
X373182D01*
X374271Y-132807D01*
X375359Y-131718D01*
X378406Y-125732D02*
Y-133351D01*
Y-127909D02*
X380039Y-126277D01*
X381127Y-125732D01*
X382760D01*
X383848Y-126277D01*
X384392Y-127909D01*
Y-133351D01*
Y-127909D02*
X386025Y-126277D01*
X387113Y-125732D01*
X388746D01*
X389834Y-126277D01*
X390378Y-127909D01*
Y-133351D01*
X393970Y-128997D02*
X400500D01*
Y-127909D01*
X399956Y-126821D01*
X399412Y-126277D01*
X398323Y-125732D01*
X396691D01*
X395602Y-126277D01*
X394514Y-127365D01*
X393970Y-128997D01*
Y-130086D01*
X394514Y-131718D01*
X395602Y-132807D01*
X396691Y-133351D01*
X398323D01*
X399412Y-132807D01*
X400500Y-131718D01*
X402949Y-125732D02*
Y-133351D01*
Y-127909D02*
X404581Y-126277D01*
X405669Y-125732D01*
X407302D01*
X408390Y-126277D01*
X408934Y-127909D01*
Y-133351D01*
X413560Y-121923D02*
Y-131174D01*
X414104Y-132807D01*
X415192Y-133351D01*
X416281D01*
X411927Y-125732D02*
X415737D01*
X432878Y-127365D02*
X432334Y-126277D01*
X430701Y-125732D01*
X429069D01*
X427436Y-126277D01*
X426892Y-127365D01*
X427436Y-128453D01*
X428525Y-128997D01*
X431245Y-129542D01*
X432334Y-130086D01*
X432878Y-131174D01*
Y-131718D01*
X432334Y-132807D01*
X430701Y-133351D01*
X429069D01*
X427436Y-132807D01*
X426892Y-131718D01*
X435816Y-125732D02*
X439081Y-133351D01*
X442346Y-125732D02*
X439081Y-133351D01*
X437993Y-135527D01*
X436905Y-136616D01*
X435816Y-137160D01*
X435272D01*
X450237Y-127365D02*
X449693Y-126277D01*
X448060Y-125732D01*
X446428D01*
X444795Y-126277D01*
X444251Y-127365D01*
X444795Y-128453D01*
X445883Y-128997D01*
X448604Y-129542D01*
X449693Y-130086D01*
X450237Y-131174D01*
Y-131718D01*
X449693Y-132807D01*
X448060Y-133351D01*
X446428D01*
X444795Y-132807D01*
X444251Y-131718D01*
X454264Y-121923D02*
Y-131174D01*
X454808Y-132807D01*
X455896Y-133351D01*
X456985D01*
X452631Y-125732D02*
X456440D01*
X458617Y-128997D02*
X465147D01*
Y-127909D01*
X464603Y-126821D01*
X464059Y-126277D01*
X462970Y-125732D01*
X461338D01*
X460250Y-126277D01*
X459161Y-127365D01*
X458617Y-128997D01*
Y-130086D01*
X459161Y-131718D01*
X460250Y-132807D01*
X461338Y-133351D01*
X462970D01*
X464059Y-132807D01*
X465147Y-131718D01*
X467596Y-125732D02*
Y-133351D01*
Y-127909D02*
X469228Y-126277D01*
X470317Y-125732D01*
X471949D01*
X473038Y-126277D01*
X473582Y-127909D01*
Y-133351D01*
Y-127909D02*
X475214Y-126277D01*
X476303Y-125732D01*
X477935D01*
X479024Y-126277D01*
X479568Y-127909D01*
Y-133351D01*
X486968Y-119747D02*
X485880Y-120835D01*
X484792Y-122467D01*
X483703Y-124644D01*
X483159Y-127365D01*
Y-129542D01*
X483703Y-132262D01*
X484792Y-134439D01*
X485880Y-136072D01*
X486968Y-137160D01*
X485880Y-120835D02*
X484792Y-123012D01*
X484248Y-124644D01*
X483703Y-127365D01*
Y-129542D01*
X484248Y-132262D01*
X484792Y-133895D01*
X485880Y-136072D01*
X489145Y-121923D02*
Y-133351D01*
Y-121923D02*
X494043D01*
X495675Y-122467D01*
X496219Y-123012D01*
X496763Y-124100D01*
Y-125188D01*
X496219Y-126277D01*
X495675Y-126821D01*
X494043Y-127365D01*
X489145D02*
X494043D01*
X495675Y-127909D01*
X496219Y-128453D01*
X496763Y-129542D01*
Y-131174D01*
X496219Y-132262D01*
X495675Y-132807D01*
X494043Y-133351D01*
X489145D01*
X499321Y-121923D02*
Y-133351D01*
Y-121923D02*
X503674Y-133351D01*
X508028Y-121923D02*
X503674Y-133351D01*
X508028Y-121923D02*
Y-133351D01*
X518911Y-123556D02*
X517823Y-122467D01*
X516190Y-121923D01*
X514013D01*
X512381Y-122467D01*
X511293Y-123556D01*
Y-124644D01*
X511837Y-125732D01*
X512381Y-126277D01*
X513469Y-126821D01*
X516734Y-127909D01*
X517823Y-128453D01*
X518367Y-128997D01*
X518911Y-130086D01*
Y-131718D01*
X517823Y-132807D01*
X516190Y-133351D01*
X514013D01*
X512381Y-132807D01*
X511293Y-131718D01*
X521469Y-119747D02*
X522557Y-120835D01*
X523645Y-122467D01*
X524734Y-124644D01*
X525278Y-127365D01*
Y-129542D01*
X524734Y-132262D01*
X523645Y-134439D01*
X522557Y-136072D01*
X521469Y-137160D01*
X522557Y-120835D02*
X523645Y-123012D01*
X524189Y-124644D01*
X524734Y-127365D01*
Y-129542D01*
X524189Y-132262D01*
X523645Y-133895D01*
X522557Y-136072D01*
X537576Y-124644D02*
Y-124100D01*
X538120Y-123012D01*
X538664Y-122467D01*
X539753Y-121923D01*
X541929D01*
X543018Y-122467D01*
X543562Y-123012D01*
X544106Y-124100D01*
Y-125188D01*
X543562Y-126277D01*
X542474Y-127909D01*
X537032Y-133351D01*
X544650D01*
X550473Y-121923D02*
X548840Y-122467D01*
X547752Y-124100D01*
X547208Y-126821D01*
Y-128453D01*
X547752Y-131174D01*
X548840Y-132807D01*
X550473Y-133351D01*
X551561D01*
X553194Y-132807D01*
X554282Y-131174D01*
X554826Y-128453D01*
Y-126821D01*
X554282Y-124100D01*
X553194Y-122467D01*
X551561Y-121923D01*
X550473D01*
X557928Y-124644D02*
Y-124100D01*
X558472Y-123012D01*
X559016Y-122467D01*
X560105Y-121923D01*
X562281D01*
X563370Y-122467D01*
X563914Y-123012D01*
X564458Y-124100D01*
Y-125188D01*
X563914Y-126277D01*
X562826Y-127909D01*
X557384Y-133351D01*
X565002D01*
X574090Y-121923D02*
X568648D01*
X568104Y-126821D01*
X568648Y-126277D01*
X570281Y-125732D01*
X571913D01*
X573546Y-126277D01*
X574634Y-127365D01*
X575178Y-128997D01*
Y-130086D01*
X574634Y-131718D01*
X573546Y-132807D01*
X571913Y-133351D01*
X570281D01*
X568648Y-132807D01*
X568104Y-132262D01*
X567560Y-131174D01*
X22860Y461737D02*
Y470443D01*
Y265430D02*
X31567D01*
X27213Y261077D02*
Y269783D01*
X25038Y692269D02*
Y692753D01*
X25522Y693720D01*
X26005Y694204D01*
X26973Y694688D01*
X28907D01*
X29875Y694204D01*
X30359Y693720D01*
X30842Y692753D01*
Y691786D01*
X30359Y690818D01*
X29391Y689367D01*
X24554Y684530D01*
X31326D01*
X30359Y637538D02*
X25522D01*
X25038Y633185D01*
X25522Y633668D01*
X26973Y634152D01*
X28424D01*
X29875Y633668D01*
X30842Y632701D01*
X31326Y631250D01*
Y630282D01*
X30842Y628831D01*
X29875Y627864D01*
X28424Y627380D01*
X26973D01*
X25522Y627864D01*
X25038Y628347D01*
X24554Y629315D01*
X29149Y656588D02*
X24312Y649816D01*
X31568D01*
X29149Y656588D02*
Y646430D01*
X25522Y675638D02*
X30842D01*
X27940Y671768D01*
X29391D01*
X30359Y671284D01*
X30842Y670801D01*
X31326Y669350D01*
Y668382D01*
X30842Y666931D01*
X29875Y665964D01*
X28424Y665480D01*
X26973D01*
X25522Y665964D01*
X25038Y666447D01*
X24554Y667415D01*
X228600Y611413D02*
Y602707D01*
X227147Y355600D02*
X218440D01*
X222793Y359953D02*
Y351247D01*
X226060Y257083D02*
Y248377D01*
X629377Y161290D02*
X638083D01*
X935990Y175260D02*
Y166553D01*
X547370Y164917D02*
Y156210D01*
X543017Y160563D02*
X551723D01*
X18895Y713738D02*
X22764Y703580D01*
X26634Y713738D02*
X22764Y703580D01*
X28907Y713738D02*
X29391Y713254D01*
X29875Y713738D01*
X29391Y714221D01*
X28907Y713738D01*
X29391Y710352D02*
Y703580D01*
X31665Y710352D02*
Y703580D01*
Y708417D02*
X33116Y709868D01*
X34083Y710352D01*
X35534D01*
X36502Y709868D01*
X36985Y708417D01*
Y703580D01*
X944697Y-48260D02*
X935990D01*
X940343Y-43907D02*
Y-52613D01*
X934722Y-19023D02*
X932606Y-21139D01*
Y-25371D01*
X934722Y-27487D01*
X943186D01*
X945302Y-25371D01*
Y-21139D01*
X943186Y-19023D01*
X932606Y-14791D02*
X945302D01*
X938954D01*
X936838Y-12675D01*
Y-8443D01*
X938954Y-6327D01*
X945302D01*
X936838Y21D02*
Y4252D01*
X938954Y6368D01*
X945302D01*
Y21D01*
X943186Y-2095D01*
X941070Y21D01*
Y6368D01*
X936838Y10601D02*
X945302D01*
X941070D01*
X938954Y12716D01*
X936838Y14832D01*
Y16948D01*
X949534Y27528D02*
Y29644D01*
X947418Y31760D01*
X936838D01*
Y25412D01*
X938954Y23296D01*
X943186D01*
X945302Y25412D01*
Y31760D01*
Y42340D02*
Y38108D01*
X943186Y35992D01*
X938954D01*
X936838Y38108D01*
Y42340D01*
X938954Y44456D01*
X941070D01*
Y35992D01*
X936838Y48688D02*
X945302D01*
X941070D01*
X938954Y50804D01*
X936838Y52920D01*
Y55036D01*
X932606Y80428D02*
Y76196D01*
X934722Y74080D01*
X943186D01*
X945302Y76196D01*
Y80428D01*
X943186Y82544D01*
X934722D01*
X932606Y80428D01*
X936838Y86776D02*
X943186D01*
X945302Y88892D01*
Y95240D01*
X936838D01*
X934722Y101588D02*
X936838D01*
Y99472D01*
Y103704D01*
Y101588D01*
X943186D01*
X945302Y103704D01*
X949534Y110052D02*
X936838D01*
Y116399D01*
X938954Y118516D01*
X943186D01*
X945302Y116399D01*
Y110052D01*
X936838Y122747D02*
X943186D01*
X945302Y124863D01*
Y131211D01*
X936838D01*
X934722Y137559D02*
X936838D01*
Y135443D01*
Y139675D01*
Y137559D01*
X943186D01*
X945302Y139675D01*
X30478Y432411D02*
X32594Y434527D01*
Y438759D01*
X30478Y440875D01*
X22014D01*
X19898Y438759D01*
Y434527D01*
X22014Y432411D01*
X32594Y428179D02*
X19898D01*
X26246D01*
X28362Y426063D01*
Y421831D01*
X26246Y419715D01*
X19898D01*
X28362Y413368D02*
Y409136D01*
X26246Y407020D01*
X19898D01*
Y413368D01*
X22014Y415484D01*
X24130Y413368D01*
Y407020D01*
X28362Y402788D02*
X19898D01*
X24130D01*
X26246Y400672D01*
X28362Y398556D01*
Y396440D01*
X15666Y385860D02*
Y383744D01*
X17782Y381628D01*
X28362D01*
Y387976D01*
X26246Y390092D01*
X22014D01*
X19898Y387976D01*
Y381628D01*
Y371048D02*
Y375280D01*
X22014Y377396D01*
X26246D01*
X28362Y375280D01*
Y371048D01*
X26246Y368932D01*
X24130D01*
Y377396D01*
X28362Y364700D02*
X19898D01*
X24130D01*
X26246Y362584D01*
X28362Y360468D01*
Y358352D01*
X32594Y339308D02*
Y335076D01*
Y337192D01*
X19898D01*
Y339308D01*
Y335076D01*
Y328728D02*
X28362D01*
Y322380D01*
X26246Y320264D01*
X19898D01*
X15666Y316032D02*
X28362D01*
Y309684D01*
X26246Y307568D01*
X22014D01*
X19898Y309684D01*
Y316032D01*
X28362Y303337D02*
X22014D01*
X19898Y301220D01*
Y294873D01*
X28362D01*
X30478Y288525D02*
X28362D01*
Y290641D01*
Y286409D01*
Y288525D01*
X22014D01*
X19898Y286409D01*
Y280061D02*
X22014D01*
Y277945D01*
X19898D01*
Y280061D01*
X245869Y133346D02*
X243330Y135885D01*
X238251D01*
X235712Y133346D01*
Y123189D01*
X238251Y120650D01*
X243330D01*
X245869Y123189D01*
X258565Y135885D02*
X253486D01*
X250947Y133346D01*
Y123189D01*
X253486Y120650D01*
X258565D01*
X261104Y123189D01*
Y133346D01*
X258565Y135885D01*
X266182D02*
X271261D01*
X268721D01*
Y120650D01*
X266182D01*
X271261D01*
X278878Y135885D02*
Y120650D01*
X289035D01*
X104565Y-32174D02*
X102872Y-30482D01*
X99487D01*
X97794Y-32174D01*
Y-38946D01*
X99487Y-40638D01*
X102872D01*
X104565Y-38946D01*
X107951Y-40638D02*
X111336D01*
X109644D01*
Y-33867D01*
X107951D01*
X116415Y-40638D02*
Y-33867D01*
X121493D01*
X123186Y-35560D01*
Y-40638D01*
X287032Y233678D02*
Y223522D01*
X292111D01*
X293803Y225214D01*
Y226907D01*
Y228600D01*
X292111Y230293D01*
X287032D01*
X297189D02*
Y225214D01*
X298882Y223522D01*
X303960D01*
Y230293D01*
X314117D02*
X309039D01*
X307346Y228600D01*
Y225214D01*
X309039Y223522D01*
X314117D01*
X317502D02*
Y233678D01*
Y226907D02*
X322581Y230293D01*
X317502Y226907D02*
X322581Y223522D01*
X344587Y231986D02*
X342894Y233678D01*
X339509D01*
X337816Y231986D01*
Y225214D01*
X339509Y223522D01*
X342894D01*
X344587Y225214D01*
X347973Y223522D02*
X351358D01*
X349665D01*
Y230293D01*
X347973D01*
X356437Y223522D02*
Y230293D01*
X361515D01*
X363208Y228600D01*
Y223522D01*
X342479Y140968D02*
Y130812D01*
X347557D01*
X349250Y132504D01*
Y139276D01*
X347557Y140968D01*
X342479D01*
X352636Y130812D02*
X356021D01*
X354328D01*
Y140968D01*
X352636Y139276D01*
D16*
X825926Y730248D02*
Y720092D01*
X831004D01*
X832697Y721784D01*
Y728556D01*
X831004Y730248D01*
X825926D01*
X842854Y720092D02*
X836083D01*
X842854Y726863D01*
Y728556D01*
X841161Y730248D01*
X837776D01*
X836083Y728556D01*
X579123Y165946D02*
X577430Y167638D01*
X574045D01*
X572352Y165946D01*
Y159174D01*
X574045Y157482D01*
X577430D01*
X579123Y159174D01*
X584202Y157482D02*
X587587D01*
X589280Y159174D01*
Y162560D01*
X587587Y164253D01*
X584202D01*
X582509Y162560D01*
Y159174D01*
X584202Y157482D01*
X592666Y164253D02*
Y159174D01*
X594358Y157482D01*
X599437D01*
Y164253D01*
X604515Y165946D02*
Y164253D01*
X602822D01*
X606208D01*
X604515D01*
Y159174D01*
X606208Y157482D01*
M02*
