G04*
G04 #@! TF.GenerationSoftware,Altium Limited,Altium Designer,22.5.1 (42)*
G04*
G04 Layer_Color=12632256*
%FSLAX44Y44*%
%MOMM*%
G71*
G04*
G04 #@! TF.SameCoordinates,9AAE9822-52E9-4CA5-9BA1-C6C8D3A4EDC0*
G04*
G04*
G04 #@! TF.FilePolarity,Positive*
G04*
G01*
G75*
%ADD39R,2.5000X2.5000*%
%ADD40C,2.2500*%
%ADD42C,1.3500*%
%ADD43R,1.3500X1.3500*%
%ADD44C,1.4000*%
%ADD47C,1.5240*%
%ADD48O,2.5400X1.2700*%
%ADD49C,0.6000*%
%ADD51O,1.5240X3.0480*%
%ADD52R,1.5000X1.5000*%
%ADD53C,1.5000*%
D39*
X162560Y368300D02*
D03*
X162480Y273300D02*
D03*
X162560Y463300D02*
D03*
X812020Y77470D02*
D03*
X812100Y172470D02*
D03*
X812020Y-17530D02*
D03*
D40*
X871660Y685800D02*
D03*
X672660D02*
D03*
X450850Y571940D02*
D03*
Y372940D02*
D03*
X443670Y177800D02*
D03*
X244670D02*
D03*
D42*
X902970Y573640D02*
D03*
X687070Y505460D02*
D03*
X685800Y579520D02*
D03*
D43*
X902970Y523640D02*
D03*
X687070Y455460D02*
D03*
X685800Y629520D02*
D03*
D44*
X713545Y326390D02*
D03*
X789745D02*
D03*
X322580Y688340D02*
D03*
Y613340D02*
D03*
X323850Y358140D02*
D03*
Y283140D02*
D03*
X76130Y59690D02*
D03*
X151130D02*
D03*
X545430Y260350D02*
D03*
X620430D02*
D03*
X351790Y535940D02*
D03*
Y434340D02*
D03*
D47*
X557530Y-71120D02*
D03*
X412750Y81280D02*
D03*
D48*
X826770Y452120D02*
D03*
Y553720D02*
D03*
Y579120D02*
D03*
X750570D02*
D03*
Y553720D02*
D03*
Y528320D02*
D03*
Y477520D02*
D03*
Y454660D02*
D03*
X826770Y477520D02*
D03*
Y502920D02*
D03*
Y528320D02*
D03*
X750570Y502920D02*
D03*
Y426720D02*
D03*
X826770D02*
D03*
D49*
Y579120D02*
D03*
D51*
X544830Y411480D02*
D03*
X570230D02*
D03*
X595630D02*
D03*
D52*
X848360Y356870D02*
D03*
D53*
Y331470D02*
D03*
Y306070D02*
D03*
M02*
