%FSTAX23Y23*%
%MOIN*%
%SFA1B1*%

%IPPOS*%
%ADD39R,0.098425X0.098425*%
%ADD40C,0.088582*%
%ADD41R,0.088582X0.088582*%
%ADD42C,0.053150*%
%ADD43R,0.053150X0.053150*%
%ADD44C,0.055118*%
%ADD45R,0.055118X0.055118*%
%ADD46R,0.055118X0.055118*%
%ADD47C,0.060000*%
%ADD48O,0.100000X0.050000*%
%ADD49C,0.023622*%
%ADD50R,0.088582X0.088582*%
%ADD51O,0.060000X0.120000*%
%ADD52R,0.059055X0.059055*%
%ADD53C,0.059055*%
%LNcharger-1*%
%LPD*%
G54D39*
X0064Y0145D03*
X00639Y01075D03*
X0064Y01824D03*
X03196Y00305D03*
X03197Y00679D03*
X03196Y-00069D03*
G54D40*
X03431Y027D03*
X01775Y01468D03*
X00963Y007D03*
G54D41*
X02648Y027D03*
X01746Y007D03*
G54D42*
X03555Y02258D03*
X02705Y0199D03*
X027Y02281D03*
G54D43*
X03555Y02061D03*
X02705Y01793D03*
X027Y02478D03*
G54D44*
X02809Y01285D03*
X03109D03*
X0127Y02414D03*
X01275Y01114D03*
X00595Y00235D03*
X02442Y01025D03*
X01385Y0211D03*
Y0171D03*
G54D45*
X0127Y0271D03*
X01275Y0141D03*
G54D46*
X00299Y00235D03*
X02147Y01025D03*
G54D47*
X02195Y-0028D03*
X01625Y0032D03*
G54D48*
X03255Y0178D03*
Y0218D03*
Y0228D03*
X02955D03*
Y0218D03*
Y0208D03*
Y0188D03*
Y0179D03*
X03255Y0188D03*
Y0198D03*
Y0208D03*
X02955Y0198D03*
Y0168D03*
X03255D03*
G54D49*
X03255Y0228D03*
G54D50*
X01775Y02251D03*
G54D51*
X02145Y0162D03*
X02245D03*
X02345D03*
G54D52*
X0334Y01405D03*
G54D53*
X0334Y01305D03*
Y01205D03*
M02*